<svg width="120" height="120" viewBox="0 0 120 120" fill="none" xmlns="http://www.w3.org/2000/svg">
    <g filter="url(#filter0_d_311_2340)">
        <rect x="10" y="6" width="100" height="100" rx="50" fill="#D05278" fill-opacity="0.5"/>
        <path d="M55 41C56.2361 41 57.4445 41.3666 58.4723 42.0533C59.5001 42.7401 60.3012 43.7162 60.7742 44.8582C61.2473 46.0003 61.3711 47.2569 61.1299 48.4693C60.8888 49.6817 60.2935 50.7953 59.4194 51.6694C58.5453 52.5435 57.4317 53.1388 56.2193 53.3799C55.0069 53.6211 53.7503 53.4973 52.6082 53.0242C51.4662 52.5512 50.4901 51.7501 49.8033 50.7223C49.1166 49.6945 48.75 48.4861 48.75 47.25C48.75 45.5924 49.4085 44.0027 50.5806 42.8306C51.7527 41.6585 53.3424 41 55 41ZM55 38.5C53.2694 38.5 51.5777 39.0132 50.1388 39.9746C48.6998 40.9361 47.5783 42.3027 46.9161 43.9015C46.2538 45.5004 46.0805 47.2597 46.4181 48.957C46.7557 50.6544 47.5891 52.2135 48.8128 53.4372C50.0365 54.6609 51.5956 55.4943 53.293 55.8319C54.9903 56.1695 56.7496 55.9962 58.3485 55.3339C59.9473 54.6717 61.3139 53.5502 62.2754 52.1112C63.2368 50.6723 63.75 48.9806 63.75 47.25C63.75 44.9294 62.8281 42.7038 61.1872 41.0628C59.5462 39.4219 57.3206 38.5 55 38.5ZM67.5 74.75C67.5 75.4404 66.9404 76 66.25 76C65.5596 76 65 75.4404 65 74.75V69.75C65 68.0924 64.3415 66.5027 63.1694 65.3306C61.9973 64.1585 60.4076 63.5 58.75 63.5H51.25C49.5924 63.5 48.0027 64.1585 46.8306 65.3306C45.6585 66.5027 45 68.0924 45 69.75V74.75C45 75.4404 44.4404 76 43.75 76C43.0596 76 42.5 75.4404 42.5 74.75V69.75C42.5 67.4294 43.4219 65.2038 45.0628 63.5628C46.7038 61.9219 48.9294 61 51.25 61H58.75C61.0706 61 63.2962 61.9219 64.9372 63.5628C66.5781 65.2038 67.5 67.4294 67.5 69.75V74.75ZM68.8778 53.8798C68.3977 53.405 67.6255 53.4032 67.143 53.8756C66.6514 54.357 66.6472 55.1472 67.1338 55.6338L70.8832 59.3832C71.0858 59.5858 71.4142 59.5858 71.6168 59.3832L79.1188 51.8813C79.6054 51.3946 79.6054 50.6055 79.1188 50.1188C78.632 49.632 77.843 49.632 77.3563 50.1188L71.4908 55.9842C71.3576 56.1174 71.1418 56.118 71.0078 55.9856L68.8778 53.8798Z" fill="white"/>
    </g>
    <defs>
        <filter id="filter0_d_311_2340" x="0" y="0" width="120" height="120" filterUnits="userSpaceOnUse" color-interpolation-filters="sRGB">
            <feFlood flood-opacity="0" result="BackgroundImageFix"/>
            <feColorMatrix in="SourceAlpha" type="matrix" values="0 0 0 0 0 0 0 0 0 0 0 0 0 0 0 0 0 0 127 0" result="hardAlpha"/>
            <feOffset dy="4"/>
            <feGaussianBlur stdDeviation="5"/>
            <feColorMatrix type="matrix" values="0 0 0 0 0.133333 0 0 0 0 0.133333 0 0 0 0 0.133333 0 0 0 0.15 0"/>
            <feBlend mode="normal" in2="BackgroundImageFix" result="effect1_dropShadow_311_2340"/>
            <feBlend mode="normal" in="SourceGraphic" in2="effect1_dropShadow_311_2340" result="shape"/>
        </filter>
    </defs>
</svg>
