<svg width="335" height="677" viewBox="0 0 335 677" fill="none" xmlns="http://www.w3.org/2000/svg">
    <g clip-path="url(#clip0_52_108)">
        <rect width="335" height="677" fill="#FCEDEA"/>
        <path opacity="0.1" fill-rule="evenodd" clip-rule="evenodd" d="M1.09905 265.832C-12.9323 276.388 -26.6779 286.904 -40.1662 297.784C-55.7351 310.343 -78.5026 307.86 -91.0187 292.238C-103.535 276.616 -101.06 253.771 -85.4913 241.212C-64.7887 224.512 -43.3063 208.47 -22.4621 192.905C-17.097 188.899 -11.7741 184.924 -6.51764 180.978C19.5127 161.436 44.376 142.258 67.4665 121.663C75.9237 114.12 85.5942 106.811 95.0406 100.745L95.0811 100.719C97.0144 99.4769 107.941 92.456 122.853 95.9796C141.992 100.502 148.154 116.605 149.612 122.311C151.111 128.179 150.737 132.963 150.624 134.347C150.457 136.375 150.153 137.976 149.974 138.835C149.406 141.566 148.6 143.776 148.448 144.193C148.441 144.213 148.435 144.228 148.431 144.24C147.914 145.675 147.315 147.104 146.925 148.02C146.03 150.127 144.786 152.912 143.408 155.945C140.605 162.115 136.751 170.411 132.785 178.889C128.683 187.658 124.506 196.534 121.103 203.763C117.789 210.804 115.21 216.283 114.152 218.582C99.1772 251.114 79.2195 280.09 61.3555 306.027C59.2872 309.03 57.2468 311.993 55.2456 314.915C54.0347 316.683 52.8355 318.441 51.6485 320.188C60.8401 312.581 69.8381 304.101 79.0311 294.667C105.169 267.843 136.405 248.787 163.904 232.431C187.714 202.874 216.059 176.028 248.052 156.684C251.789 154.425 255.773 152.258 259.849 150.552C263.269 149.12 269.832 146.663 277.854 146.612C287.162 146.554 303.33 150.314 312.052 166.918C318.656 179.491 316.134 191.305 315.278 194.865C313.176 203.601 308.551 210.873 306.07 214.521C304.844 216.324 303.512 218.139 302.107 219.918C303.912 219.482 306.481 219.011 309.494 218.914C312.018 218.832 331.717 218.393 342.326 237.616C351.264 253.81 344.408 268.534 343.624 270.219C343.604 270.261 343.588 270.295 343.577 270.321C341.841 274.131 339.835 276.748 339.167 277.607C338.246 278.793 337.429 279.693 336.95 280.206C335.397 281.866 333.905 283.142 333.501 283.487L333.464 283.519C331.423 285.266 328.263 287.686 325.791 289.566C323.101 291.613 320.361 293.672 317.839 295.568C317.455 295.856 317.077 296.141 316.704 296.421C310.745 302.844 304.933 311.349 297.197 322.67C295.288 325.464 293.262 328.428 291.088 331.576C281.341 345.685 272.51 360.736 263.981 376.623C279.664 366.646 294.718 356.995 309.977 346.251C318.965 339.922 328.923 333.955 337.464 328.837C339.033 327.897 340.554 326.985 342.012 326.106C348.023 320.781 354.221 315.495 360.632 310.232C363.777 307.65 371.067 302.757 375.636 300.033C376.883 299.289 378.869 298.137 381.039 297.102C381.959 296.663 384.208 295.612 387.095 294.754C388.458 294.349 391.417 293.538 395.248 293.284C397.932 293.106 407.948 292.608 418.048 299.459C431.556 308.622 434.623 322.998 433.902 332.419C433.331 339.9 430.581 345.234 429.68 346.93C427.556 350.927 425.096 353.732 424.391 354.536L424.368 354.562C422.401 356.806 420.192 358.874 418.542 360.375C407.666 370.265 395.809 378.144 385.253 384.673C351.03 415.68 323.264 448.654 294.545 488.997C282.934 505.308 260.344 509.086 244.089 497.435C239.259 493.973 235.531 489.538 232.982 484.586C218.645 495.306 205.373 506.445 193.395 518.574C193.337 518.661 193.276 518.754 193.211 518.853C192.236 520.343 191.08 522.195 189.757 524.317L189.558 524.636C188.505 526.324 186.988 528.757 185.782 530.517C185.43 531.031 184.805 531.928 184.032 532.924C183.651 533.414 182.981 534.255 182.1 535.228L182.089 535.24C181.52 535.867 179.418 538.187 176.213 540.479C174.709 541.555 170.987 544.081 165.566 545.713C160.019 547.382 148.308 549.267 136.327 541.942C124.761 534.872 121.074 524.128 119.93 519.275C118.737 514.213 118.922 510.088 119.045 508.331C119.306 504.595 120.101 501.735 120.326 500.925C120.67 499.689 121.015 498.687 121.231 498.086C125.755 485.477 132.598 472.728 138.514 462.263C138.031 462.638 137.546 463.012 137.06 463.385C126.158 471.759 112.523 480.801 100.091 489.044C93.3587 493.508 86.9795 497.738 81.579 501.501C63.9079 513.814 50.5298 524.958 41.8134 536.791C41.7895 536.823 41.7564 536.869 41.7147 536.926C41.0729 537.809 38.3725 541.525 34.9994 544.564C34.9801 544.581 34.9555 544.604 34.9256 544.631C34.1663 545.323 29.9954 549.126 23.5595 551.595C20.1325 552.909 11.4351 555.669 0.710928 552.615C-12.1063 548.964 -19.579 539.535 -22.877 531.521C-25.6314 524.828 -25.669 519.041 -25.6141 516.733C-25.5474 513.926 -25.1689 511.696 -24.9247 510.457C-24.4357 507.974 -23.7892 506.052 -23.5049 505.234C-22.1725 501.398 -19.6145 496.503 -18.5953 494.552C-18.5057 494.38 -18.428 494.232 -18.364 494.108C-17.8555 493.128 -17.3596 492.178 -16.8763 491.251C-15.754 489.1 -14.7002 487.08 -13.7158 485.124C-12.9046 483.513 -12.4917 482.622 -12.3327 482.284C-4.77312 458.444 8.50522 440.795 21.3631 426.718C23.7886 424.063 26.2678 421.464 28.7299 418.945C27.319 419.561 25.8961 420.167 24.4611 420.766C24.4623 420.765 24.2685 420.848 23.6273 421.131C23.4611 421.204 23.2367 421.303 22.981 421.416C22.5172 421.622 21.9506 421.872 21.4424 422.096C19.6912 422.867 17.4062 423.861 14.8346 424.914C9.96135 426.912 2.95356 429.59 -4.26807 431.38C-7.87177 432.274 -12.5461 433.208 -17.6512 433.467C-22.1947 433.698 -30.6059 433.618 -39.502 429.536C-50.3491 424.559 -59.3873 414.664 -62.3201 401.141C-64.7228 390.063 -62.1352 380.477 -60.1548 374.957C-46.1867 336.024 -24.4203 303.078 -4.37574 273.807C-2.53293 271.116 -0.707321 268.46 1.09905 265.832ZM212.515 287.907C209.775 291.568 207.101 295.286 204.5 299.05C210 293.565 215.609 288.076 221.342 282.624C218.366 284.42 215.42 286.179 212.515 287.907ZM-16.9492 494.413C-16.9433 494.399 -16.8167 494.23 -16.5866 493.95C-16.84 494.287 -16.9551 494.428 -16.9492 494.413ZM194.154 517.464C194.153 517.467 194.118 517.517 194.051 517.606C194.122 517.506 194.155 517.461 194.154 517.464ZM246.84 172.762C246.849 172.76 246.78 172.894 246.605 173.169C246.744 172.902 246.831 172.764 246.84 172.762ZM7.96253 399.394C7.94467 399.444 7.92683 399.494 7.90901 399.543L7.9159 399.525C7.92524 399.499 7.94118 399.455 7.96253 399.394Z" fill="#D05278"/>
    </g>
    <defs>
        <clipPath id="clip0_52_108">
            <rect width="335" height="677" fill="white"/>
        </clipPath>
    </defs>
</svg>
