<svg width="100" height="100" viewBox="0 0 100 100" fill="none" xmlns="http://www.w3.org/2000/svg">
    <rect width="100" height="100" rx="50" fill="#D05278"/>
    <path d="M39.0385 64.2747C39.1611 64.7041 39.5535 65 40 65H60.1333C60.5798 65 60.9722 64.7041 61.0949 64.2747L64.8876 51H35.2457L39.0385 64.2747ZM54.6469 59.8357L55.6469 53.8357C55.7377 53.2909 56.2529 52.9226 56.7977 53.0137C57.3425 53.1045 57.7105 53.6197 57.6197 54.1645L56.6197 60.1645C56.5382 60.6536 56.1145 61.0003 55.6345 61.0003C55.5799 61.0003 55.5246 60.9958 55.4689 60.9865C54.9241 60.8957 54.5561 60.3804 54.6469 59.8357ZM49.0667 54C49.0667 53.4477 49.5144 53 50.0667 53C50.6189 53 51.0667 53.4477 51.0667 54V60C51.0667 60.5523 50.6189 61 50.0667 61C49.5144 61 49.0667 60.5523 49.0667 60V54ZM43.4023 53.0137C43.9471 52.9229 44.4623 53.2909 44.5531 53.8357L45.5531 59.8357C45.6439 60.3804 45.2759 60.8957 44.7311 60.9865C44.6755 60.9957 44.6201 61.0003 44.5655 61.0003C44.0854 61.0003 43.6618 60.6537 43.5803 60.1645L42.5803 54.1645C42.4895 53.6197 42.8575 53.1044 43.4023 53.0137Z" fill="white"/>
    <path d="M66.1334 45H62.614L54.9142 35.3753C54.5693 34.9442 53.94 34.8741 53.5087 35.2192C53.0774 35.5642 53.0075 36.1935 53.3526 36.6247L60.0528 45H40.0806L46.7809 36.6247C47.1259 36.1935 47.0559 35.5641 46.6247 35.2192C46.1934 34.8741 45.5641 34.9441 45.2192 35.3753L37.5194 45H34C33.4477 45 33 45.4477 33 46V48C33 48.5523 33.4477 49 34 49H66.1334C66.6856 49 67.1334 48.5523 67.1334 48V46C67.1334 45.4477 66.6856 45 66.1334 45Z" fill="white"/>
</svg>
