<svg width="90" height="90" viewBox="0 0 90 90" fill="none" xmlns="http://www.w3.org/2000/svg">
    <g filter="url(#filter0_d_314_2043)">
        <rect x="10" y="6" width="70" height="70" rx="35" fill="#D05278" fill-opacity="0.8"/>
        <path d="M50.625 37.7502L39.375 31.2627" stroke="white" stroke-width="1.5" stroke-linecap="round" stroke-linejoin="round"/>
        <path d="M56.25 45.9999V35.9999C56.2496 35.5615 56.1338 35.1309 55.9144 34.7513C55.695 34.3718 55.3797 34.0566 55 33.8374L46.25 28.8374C45.87 28.618 45.4388 28.5024 45 28.5024C44.5612 28.5024 44.13 28.618 43.75 28.8374L35 33.8374C34.6203 34.0566 34.305 34.3718 34.0856 34.7513C33.8662 35.1309 33.7504 35.5615 33.75 35.9999V45.9999C33.7504 46.4383 33.8662 46.8689 34.0856 47.2484C34.305 47.628 34.6203 47.9432 35 48.1624L43.75 53.1624C44.13 53.3818 44.5612 53.4973 45 53.4973C45.4388 53.4973 45.87 53.3818 46.25 53.1624L55 48.1624C55.3797 47.9432 55.695 47.628 55.9144 47.2484C56.1338 46.8689 56.2496 46.4383 56.25 45.9999Z" stroke="white" stroke-width="1.5" stroke-linecap="round" stroke-linejoin="round"/>
        <path d="M34.0874 34.7002L44.9999 41.0127L55.9124 34.7002" stroke="white" stroke-width="1.5" stroke-linecap="round" stroke-linejoin="round"/>
        <path d="M45 53.6V41" stroke="white" stroke-width="1.5" stroke-linecap="round" stroke-linejoin="round"/>
    </g>
    <defs>
        <filter id="filter0_d_314_2043" x="0" y="0" width="90" height="90" filterUnits="userSpaceOnUse" color-interpolation-filters="sRGB">
            <feFlood flood-opacity="0" result="BackgroundImageFix"/>
            <feColorMatrix in="SourceAlpha" type="matrix" values="0 0 0 0 0 0 0 0 0 0 0 0 0 0 0 0 0 0 127 0" result="hardAlpha"/>
            <feOffset dy="4"/>
            <feGaussianBlur stdDeviation="5"/>
            <feColorMatrix type="matrix" values="0 0 0 0 0.133333 0 0 0 0 0.133333 0 0 0 0 0.133333 0 0 0 0.15 0"/>
            <feBlend mode="normal" in2="BackgroundImageFix" result="effect1_dropShadow_314_2043"/>
            <feBlend mode="normal" in="SourceGraphic" in2="effect1_dropShadow_314_2043" result="shape"/>
        </filter>
    </defs>
</svg>
