<svg width="90" height="90" viewBox="0 0 90 90" fill="none" xmlns="http://www.w3.org/2000/svg">
    <g filter="url(#filter0_d_311_2382)">
        <rect x="10" y="6" width="70" height="70" rx="35" fill="#D05278" fill-opacity="0.5"/>
        <path fill-rule="evenodd" clip-rule="evenodd" d="M32.1875 27.25C31.6073 27.25 31.0509 27.4805 30.6407 27.8907C30.2305 28.3009 30 28.8573 30 29.4375V41.3125C30 42.52 30.98 43.5 32.1875 43.5H33.75V45.4288C33.7501 45.7889 33.857 46.1409 34.0571 46.4403C34.2573 46.7396 34.5417 46.973 34.8744 47.1108C35.2071 47.2486 35.5732 47.2846 35.9264 47.2144C36.2796 47.1442 36.604 46.9708 36.8587 46.7162L40.0763 43.5H47.8125C48.3927 43.5 48.9491 43.2695 49.3593 42.8593C49.7695 42.4491 50 41.8927 50 41.3125V29.4375C50 28.8573 49.7695 28.3009 49.3593 27.8907C48.9491 27.4805 48.3927 27.25 47.8125 27.25H32.1875ZM31.875 29.4375C31.875 29.3546 31.9079 29.2751 31.9665 29.2165C32.0251 29.1579 32.1046 29.125 32.1875 29.125H47.8125C47.8954 29.125 47.9749 29.1579 48.0335 29.2165C48.0921 29.2751 48.125 29.3546 48.125 29.4375V41.3125C48.125 41.3954 48.0921 41.4749 48.0335 41.5335C47.9749 41.5921 47.8954 41.625 47.8125 41.625H39.6875C39.4389 41.6252 39.2006 41.7241 39.025 41.9L35.625 45.3V42.5625C35.625 42.3139 35.5262 42.0754 35.3504 41.8996C35.1746 41.7238 34.9361 41.625 34.6875 41.625H32.1875C32.1046 41.625 32.0251 41.5921 31.9665 41.5335C31.9079 41.4749 31.875 41.3954 31.875 41.3125V29.4375Z" fill="white"/>
        <path d="M58.125 36.9375C58.125 36.8546 58.0921 36.7751 58.0335 36.7165C57.9749 36.6579 57.8954 36.625 57.8125 36.625H53.4375C53.1889 36.625 52.9504 36.5262 52.7746 36.3504C52.5988 36.1746 52.5 35.9361 52.5 35.6875C52.5 35.4389 52.5988 35.2004 52.7746 35.0246C52.9504 34.8488 53.1889 34.75 53.4375 34.75H57.8125C59.02 34.75 60 35.73 60 36.9375V48.8125C60 49.3927 59.7695 49.9491 59.3593 50.3593C58.9491 50.7695 58.3927 51 57.8125 51H56.25V52.9287C56.2499 53.2889 56.143 53.6409 55.9429 53.9403C55.7427 54.2396 55.4583 54.473 55.1256 54.6108C54.7929 54.7486 54.4268 54.7846 54.0736 54.7144C53.7204 54.6442 53.396 54.4708 53.1413 54.2162L49.9237 51H43.4375C42.8573 51 42.3009 50.7695 41.8907 50.3593C41.4805 49.9491 41.25 49.3927 41.25 48.8125V46.9812C41.25 46.7326 41.3488 46.4942 41.5246 46.3183C41.7004 46.1425 41.9389 46.0437 42.1875 46.0437C42.4361 46.0437 42.6746 46.1425 42.8504 46.3183C43.0262 46.4942 43.125 46.7326 43.125 46.9812V48.8125C43.125 48.985 43.265 49.125 43.4375 49.125H50.3125C50.5611 49.1252 50.7994 49.2241 50.975 49.4L54.375 52.8V50.0625C54.375 49.8139 54.4738 49.5754 54.6496 49.3996C54.8254 49.2238 55.0639 49.125 55.3125 49.125H57.8125C57.8954 49.125 57.9749 49.0921 58.0335 49.0335C58.0921 48.9749 58.125 48.8954 58.125 48.8125V36.9375Z" fill="white"/>
    </g>
    <defs>
        <filter id="filter0_d_311_2382" x="0" y="0" width="90" height="90" filterUnits="userSpaceOnUse" color-interpolation-filters="sRGB">
            <feFlood flood-opacity="0" result="BackgroundImageFix"/>
            <feColorMatrix in="SourceAlpha" type="matrix" values="0 0 0 0 0 0 0 0 0 0 0 0 0 0 0 0 0 0 127 0" result="hardAlpha"/>
            <feOffset dy="4"/>
            <feGaussianBlur stdDeviation="5"/>
            <feColorMatrix type="matrix" values="0 0 0 0 0.133333 0 0 0 0 0.133333 0 0 0 0 0.133333 0 0 0 0.15 0"/>
            <feBlend mode="normal" in2="BackgroundImageFix" result="effect1_dropShadow_311_2382"/>
            <feBlend mode="normal" in="SourceGraphic" in2="effect1_dropShadow_311_2382" result="shape"/>
        </filter>
    </defs>
</svg>
