<svg width="120" height="120" viewBox="0 0 120 120" fill="none" xmlns="http://www.w3.org/2000/svg">
    <g filter="url(#filter0_d_311_2347)">
        <rect x="10" y="6" width="100" height="100" rx="50" fill="#DD4B39"/>
        <g clip-path="url(#clip0_311_2347)">
            <path d="M74.4996 56.0001L81.9944 48.5053C85.992 44.5076 85.992 38.0031 81.9944 34.0054C77.9969 30.0079 71.4922 30.0079 67.4946 34.0054L59.9998 41.5002L52.505 34.0054C48.498 29.9983 42.0126 29.9981 38.0052 34.0054C34.0077 38.003 34.0077 44.5076 38.0052 48.5052L45.5002 56L38.0053 63.4948C34.0078 67.4925 34.0078 73.997 38.0053 77.9947C42.0029 81.9921 48.5075 81.9923 52.5051 77.9947L59.9998 70.4999L67.4946 77.9947C71.5017 82.0018 77.9871 82.002 81.9944 77.9947C85.992 73.9971 85.992 67.4925 81.9944 63.4949L74.4996 56.0001ZM69.566 36.0769C72.4215 33.2214 77.0677 33.2215 79.923 36.0769C82.7784 38.9324 82.7784 43.5785 79.923 46.4339L72.4282 53.9287L62.0713 43.5716L69.566 36.0769ZM50.4337 75.9232C47.5783 78.7786 42.9321 78.7786 40.0767 75.9232C37.2214 73.0677 37.2214 68.4216 40.0767 65.5662L47.5715 58.0714L57.9285 68.4285L50.4337 75.9232ZM79.9231 75.9231C77.0609 78.7852 72.4285 78.7856 69.5661 75.9231C66.2526 72.6095 40.991 47.348 40.0768 46.4338C37.2215 43.5783 37.2215 38.9322 40.0768 36.0768C42.939 33.2147 47.5714 33.2143 50.4338 36.0768C51.4362 37.0791 79.1321 64.7751 79.9231 65.5661C82.7785 68.4217 82.7785 73.0677 79.9231 75.9231Z" fill="white"/>
            <path d="M67.25 57.0355L58.9644 48.7499C57.2471 47.0326 54.4675 47.0325 52.7501 48.7499C51.0329 50.4672 51.0327 53.2467 52.7501 54.9642L61.0357 63.2498C62.753 64.9671 65.5326 64.9672 67.25 63.2498C68.9674 61.5325 68.9676 58.753 67.25 57.0355ZM65.1785 61.1784C64.6061 61.7508 63.6796 61.7509 63.1071 61.1784L54.8215 52.8928C54.2505 52.3217 54.2505 51.3924 54.8215 50.8214C55.394 50.249 56.3204 50.2489 56.8929 50.8214L65.1785 59.107C65.7496 59.678 65.7496 60.6073 65.1785 61.1784Z" fill="white"/>
            <path d="M45.5001 42.9646C46.3091 42.9646 46.9649 42.3089 46.9649 41.4999C46.9649 40.6909 46.3091 40.0352 45.5001 40.0352C44.6912 40.0352 44.0354 40.6909 44.0354 41.4999C44.0354 42.3089 44.6912 42.9646 45.5001 42.9646Z" fill="white"/>
            <path d="M47.5722 49.179C48.3811 49.179 49.0369 48.5232 49.0369 47.7143C49.0369 46.9053 48.3811 46.2495 47.5722 46.2495C46.7632 46.2495 46.1074 46.9053 46.1074 47.7143C46.1074 48.5232 46.7632 49.179 47.5722 49.179Z" fill="white"/>
            <path d="M51.7143 45.0369C52.5232 45.0369 53.179 44.3811 53.179 43.5722C53.179 42.7632 52.5232 42.1074 51.7143 42.1074C50.9053 42.1074 50.2495 42.7632 50.2495 43.5722C50.2495 44.3811 50.9053 45.0369 51.7143 45.0369Z" fill="white"/>
            <path d="M74.5001 71.9646C75.3091 71.9646 75.9649 71.3089 75.9649 70.4999C75.9649 69.6909 75.3091 69.0352 74.5001 69.0352C73.6912 69.0352 73.0354 69.6909 73.0354 70.4999C73.0354 71.3089 73.6912 71.9646 74.5001 71.9646Z" fill="white"/>
            <path d="M68.2858 69.8929C69.0947 69.8929 69.7505 69.2371 69.7505 68.4281C69.7505 67.6192 69.0947 66.9634 68.2858 66.9634C67.4768 66.9634 66.821 67.6192 66.821 68.4281C66.821 69.2371 67.4768 69.8929 68.2858 69.8929Z" fill="white"/>
            <path d="M72.4281 65.7508C73.2371 65.7508 73.8929 65.095 73.8929 64.286C73.8929 63.4771 73.2371 62.8213 72.4281 62.8213C71.6192 62.8213 70.9634 63.4771 70.9634 64.286C70.9634 65.095 71.6192 65.7508 72.4281 65.7508Z" fill="white"/>
            <path d="M45.255 72.2088C46.064 72.2088 46.7198 71.553 46.7198 70.744C46.7198 69.9351 46.064 69.2793 45.255 69.2793C44.4461 69.2793 43.7903 69.9351 43.7903 70.744C43.7903 71.553 44.4461 72.2088 45.255 72.2088Z" fill="white"/>
            <path d="M51.7143 69.8929C52.5232 69.8929 53.179 69.2371 53.179 68.4281C53.179 67.6192 52.5232 66.9634 51.7143 66.9634C50.9053 66.9634 50.2495 67.6192 50.2495 68.4281C50.2495 69.2371 50.9053 69.8929 51.7143 69.8929Z" fill="white"/>
            <path d="M47.5722 65.7508C48.3811 65.7508 49.0369 65.095 49.0369 64.286C49.0369 63.4771 48.3811 62.8213 47.5722 62.8213C46.7632 62.8213 46.1074 63.4771 46.1074 64.286C46.1074 65.095 46.7632 65.7508 47.5722 65.7508Z" fill="white"/>
            <path d="M74.5001 42.9646C75.3091 42.9646 75.9649 42.3089 75.9649 41.4999C75.9649 40.6909 75.3091 40.0352 74.5001 40.0352C73.6912 40.0352 73.0354 40.6909 73.0354 41.4999C73.0354 42.3089 73.6912 42.9646 74.5001 42.9646Z" fill="white"/>
            <path d="M72.4281 49.179C73.2371 49.179 73.8929 48.5232 73.8929 47.7143C73.8929 46.9053 73.2371 46.2495 72.4281 46.2495C71.6192 46.2495 70.9634 46.9053 70.9634 47.7143C70.9634 48.5232 71.6192 49.179 72.4281 49.179Z" fill="white"/>
            <path d="M68.2858 45.0369C69.0947 45.0369 69.7505 44.3811 69.7505 43.5722C69.7505 42.7632 69.0947 42.1074 68.2858 42.1074C67.4768 42.1074 66.821 42.7632 66.821 43.5722C66.821 44.3811 67.4768 45.0369 68.2858 45.0369Z" fill="white"/>
        </g>
    </g>
    <defs>
        <filter id="filter0_d_311_2347" x="0" y="0" width="120" height="120" filterUnits="userSpaceOnUse" color-interpolation-filters="sRGB">
            <feFlood flood-opacity="0" result="BackgroundImageFix"/>
            <feColorMatrix in="SourceAlpha" type="matrix" values="0 0 0 0 0 0 0 0 0 0 0 0 0 0 0 0 0 0 127 0" result="hardAlpha"/>
            <feOffset dy="4"/>
            <feGaussianBlur stdDeviation="5"/>
            <feColorMatrix type="matrix" values="0 0 0 0 0.133333 0 0 0 0 0.133333 0 0 0 0 0.133333 0 0 0 0.15 0"/>
            <feBlend mode="normal" in2="BackgroundImageFix" result="effect1_dropShadow_311_2347"/>
            <feBlend mode="normal" in="SourceGraphic" in2="effect1_dropShadow_311_2347" result="shape"/>
        </filter>
        <clipPath id="clip0_311_2347">
            <rect width="50" height="50" fill="white" transform="translate(35 31)"/>
        </clipPath>
    </defs>
</svg>
