<svg width="279" height="170" viewBox="0 0 279 170" fill="none" xmlns="http://www.w3.org/2000/svg">
    <g clip-path="url(#clip0_37_2170)">
        <rect width="279" height="170" rx="5" fill="#222222"/>
        <path opacity="0.1" fill-rule="evenodd" clip-rule="evenodd" d="M178.439 62.365C172.91 66.5278 167.495 70.6745 162.18 74.965C156.046 79.9175 147.076 78.9383 142.145 72.7779C137.213 66.6176 138.188 57.6089 144.322 52.6565C152.479 46.0711 160.943 39.7453 169.156 33.6075C171.269 32.0277 173.367 30.4603 175.438 28.9042C185.694 21.1979 195.49 13.6354 204.587 5.51402C207.919 2.5395 211.729 -0.342321 215.451 -2.73449L215.467 -2.74476C216.229 -3.23461 220.534 -6.00318 226.409 -4.61373C233.95 -2.83038 236.378 3.51953 236.952 5.76985C237.543 8.08365 237.396 9.97019 237.351 10.5158C237.285 11.3158 237.165 11.9471 237.095 12.2857C236.871 13.3624 236.554 14.2343 236.494 14.3987C236.491 14.4064 236.489 14.4125 236.487 14.4171C236.283 14.9828 236.047 15.5464 235.894 15.9078C235.541 16.7387 235.051 17.8366 234.508 19.0326C233.404 21.4659 231.885 24.7372 230.322 28.0806C228.706 31.5384 227.06 35.0384 225.72 37.8893C224.414 40.6656 223.398 42.8262 222.981 43.7327C217.081 56.5611 209.218 67.9877 202.179 78.2156C201.365 79.3998 200.561 80.568 199.772 81.7204C199.295 82.4177 198.823 83.1105 198.355 83.7995C201.976 80.7999 205.522 77.4558 209.144 73.7357C219.442 63.1581 231.748 55.6438 242.583 49.194C251.964 37.5387 263.132 26.9524 275.737 19.3243C277.21 18.4334 278.779 17.5789 280.385 16.9061C281.733 16.3415 284.319 15.3725 287.479 15.3526C291.146 15.3296 297.516 16.8122 300.953 23.3597C303.555 28.3179 302.561 32.9767 302.224 34.3802C301.396 37.8251 299.574 40.6927 298.596 42.1312C298.113 42.8425 297.588 43.5582 297.035 44.2597C297.746 44.0878 298.758 43.9018 299.945 43.8635C300.94 43.8315 308.701 43.6583 312.881 51.2386C316.402 57.6245 313.701 63.4306 313.392 64.095C313.384 64.1117 313.378 64.1251 313.374 64.1352C312.69 65.6377 311.899 66.6696 311.636 67.0084C311.273 67.4762 310.951 67.831 310.763 68.0332C310.151 68.688 309.563 69.1911 309.404 69.3272L309.389 69.3399C308.585 70.0288 307.34 70.9831 306.366 71.7245C305.306 72.5314 304.227 73.3434 303.233 74.091C303.082 74.2047 302.933 74.3169 302.786 74.4273C300.438 76.9603 298.148 80.314 295.1 84.7786C294.348 85.88 293.55 87.0491 292.693 88.2902C288.853 93.8539 285.374 99.7892 282.013 106.054C288.192 102.12 294.124 98.314 300.136 94.077C303.677 91.5813 307.6 89.2284 310.965 87.2102C311.583 86.8395 312.183 86.4801 312.757 86.1331C315.126 84.0333 317.567 81.9489 320.093 79.8735C321.332 78.8553 324.205 76.9261 326.005 75.8519C326.496 75.5586 327.278 75.104 328.133 74.6959C328.496 74.5227 329.382 74.1084 330.52 73.7701C331.056 73.6104 332.222 73.2906 333.732 73.1905C334.789 73.1204 338.736 72.9238 342.715 75.6255C348.037 79.2386 349.245 84.9078 348.962 88.6226C348.736 91.5726 347.653 93.6762 347.298 94.3449C346.461 95.9211 345.492 97.0274 345.214 97.3444L345.205 97.3545C344.43 98.2394 343.56 99.055 342.909 99.6468C338.624 103.547 333.953 106.654 329.794 109.228C316.31 121.455 305.37 134.458 294.055 150.367C289.481 156.799 280.58 158.289 274.176 153.695C272.273 152.329 270.804 150.58 269.8 148.628C264.151 152.855 258.922 157.248 254.203 162.03C254.18 162.065 254.156 162.101 254.13 162.14C253.746 162.728 253.291 163.458 252.769 164.295L252.691 164.421C252.276 165.086 251.678 166.046 251.203 166.74C251.064 166.942 250.818 167.296 250.513 167.689C250.363 167.882 250.099 168.214 249.752 168.597L249.748 168.602C249.524 168.849 248.696 169.764 247.433 170.668C246.84 171.092 245.374 172.089 243.238 172.732C241.052 173.39 236.438 174.133 231.718 171.245C227.161 168.457 225.708 164.22 225.258 162.307C224.787 160.311 224.861 158.684 224.909 157.991C225.012 156.518 225.325 155.39 225.414 155.07C225.549 154.583 225.685 154.188 225.77 153.951C227.553 148.979 230.249 143.952 232.58 139.825C232.389 139.973 232.198 140.12 232.007 140.267C227.711 143.569 222.339 147.135 217.441 150.385C214.789 152.146 212.275 153.814 210.147 155.298C203.185 160.153 197.914 164.548 194.48 169.214C194.471 169.227 194.458 169.245 194.441 169.267C194.188 169.615 193.124 171.081 191.795 172.279C191.788 172.286 191.778 172.295 191.766 172.306C191.467 172.579 189.824 174.078 187.288 175.052C185.938 175.57 182.511 176.658 178.286 175.454C173.236 174.014 170.292 170.296 168.992 167.136C167.907 164.496 167.892 162.214 167.914 161.304C167.94 160.197 168.089 159.318 168.185 158.829C168.378 157.85 168.633 157.093 168.745 156.77C169.27 155.257 170.278 153.327 170.679 152.558C170.714 152.49 170.745 152.431 170.77 152.383C170.971 151.996 171.166 151.621 171.356 151.256C171.799 150.408 172.214 149.611 172.602 148.84C172.921 148.204 173.084 147.853 173.147 147.72C176.125 138.319 181.357 131.359 186.423 125.808C187.378 124.761 188.355 123.736 189.325 122.743C188.769 122.986 188.209 123.225 187.643 123.461C187.644 123.461 187.567 123.493 187.315 123.605C187.249 123.634 187.161 123.673 187.06 123.718C186.877 123.799 186.654 123.897 186.454 123.986C185.764 124.29 184.864 124.681 183.85 125.097C181.93 125.885 179.169 126.941 176.324 127.647C174.904 127.999 173.063 128.367 171.051 128.469C169.261 128.561 165.947 128.529 162.442 126.919C158.168 124.957 154.607 121.055 153.452 115.722C152.505 111.354 153.525 107.574 154.305 105.397C159.808 90.0444 168.384 77.0526 176.282 65.5101C177.008 64.449 177.727 63.4013 178.439 62.365ZM261.736 71.0701C260.656 72.5138 259.603 73.98 258.578 75.4642C260.745 73.3014 262.955 71.1366 265.214 68.987C264.041 69.6949 262.88 70.3885 261.736 71.0701ZM171.328 152.503C171.33 152.497 171.38 152.431 171.471 152.32C171.371 152.453 171.325 152.508 171.328 152.503ZM254.502 161.593C254.501 161.594 254.487 161.613 254.461 161.648C254.489 161.609 254.502 161.592 254.502 161.593ZM275.26 25.6644C275.263 25.6636 275.236 25.7163 275.167 25.8247C275.222 25.7194 275.256 25.6651 275.26 25.6644ZM181.143 115.034C181.136 115.053 181.129 115.073 181.122 115.092L181.124 115.085C181.128 115.075 181.134 115.058 181.143 115.034Z" fill="white"/>
        <path d="M32.648 68.536V69.176C32.648 69.3573 32.6267 69.5067 32.584 69.624C32.5467 69.7413 32.5093 69.84 32.472 69.92L27.72 79.496C27.6507 79.6347 27.5547 79.7547 27.432 79.856C27.3093 79.952 27.1467 80 26.944 80H25.92L30.736 70.544C30.8053 70.4107 30.8773 70.288 30.952 70.176C31.0267 70.064 31.1067 69.9573 31.192 69.856H25.208C25.1173 69.856 25.0373 69.8213 24.968 69.752C24.8987 69.6773 24.864 69.5947 24.864 69.504V68.536H32.648ZM42.7293 68.536V69.176C42.7293 69.3573 42.7079 69.5067 42.6653 69.624C42.6279 69.7413 42.5906 69.84 42.5533 69.92L37.8013 79.496C37.7319 79.6347 37.6359 79.7547 37.5133 79.856C37.3906 79.952 37.2279 80 37.0253 80H36.0013L40.8173 70.544C40.8866 70.4107 40.9586 70.288 41.0333 70.176C41.1079 70.064 41.1879 69.9573 41.2733 69.856H35.2893C35.1986 69.856 35.1186 69.8213 35.0493 69.752C34.9799 69.6773 34.9453 69.5947 34.9453 69.504V68.536H42.7293ZM50.0025 75.864V71.136C50.0025 70.9973 50.0078 70.8453 50.0185 70.68C50.0292 70.5147 50.0452 70.3467 50.0665 70.176L45.8905 75.864H50.0025ZM52.9865 75.864V76.68C52.9865 76.7653 52.9598 76.8373 52.9065 76.896C52.8585 76.9547 52.7812 76.984 52.6745 76.984H51.2505V80H50.0025V76.984H44.9145C44.8078 76.984 44.7145 76.9547 44.6345 76.896C44.5598 76.832 44.5118 76.7547 44.4905 76.664L44.3465 75.936L49.9225 68.536H51.2505V75.864H52.9865ZM62.3877 78.912V80H56.2437V78.912H58.6997V71.096C58.6997 70.8613 58.7077 70.624 58.7237 70.384L56.6837 72.136C56.6144 72.1947 56.5451 72.232 56.4757 72.248C56.4064 72.2587 56.3424 72.2587 56.2837 72.248C56.2251 72.2373 56.1691 72.216 56.1157 72.184C56.0677 72.152 56.0304 72.1173 56.0037 72.08L55.5557 71.464L58.9717 68.512H60.1318V78.912H62.3877ZM83.6302 78.944C84.0142 78.944 84.3609 78.8827 84.6702 78.76C84.9849 78.6373 85.2516 78.4667 85.4702 78.248C85.6942 78.0293 85.8649 77.7707 85.9822 77.472C86.1049 77.1733 86.1662 76.848 86.1662 76.496C86.1662 76.1227 86.1076 75.7867 85.9902 75.488C85.8729 75.184 85.7049 74.928 85.4862 74.72C85.2729 74.5067 85.0169 74.344 84.7182 74.232C84.4196 74.12 84.0916 74.064 83.7342 74.064C83.3502 74.064 83.0036 74.1307 82.6942 74.264C82.3849 74.392 82.1209 74.568 81.9022 74.792C81.6889 75.0107 81.5236 75.2667 81.4062 75.56C81.2942 75.848 81.2382 76.1493 81.2382 76.464C81.2382 76.832 81.2916 77.168 81.3982 77.472C81.5049 77.776 81.6596 78.0373 81.8622 78.256C82.0702 78.4747 82.3209 78.6453 82.6142 78.768C82.9129 78.8853 83.2516 78.944 83.6302 78.944ZM82.7982 72.832C82.6969 72.96 82.5982 73.0853 82.5022 73.208C82.4116 73.3253 82.3236 73.4427 82.2382 73.56C82.5102 73.3733 82.8089 73.2293 83.1342 73.128C83.4596 73.0267 83.8142 72.976 84.1982 72.976C84.6622 72.976 85.0996 73.0533 85.5102 73.208C85.9209 73.3573 86.2782 73.5787 86.5822 73.872C86.8916 74.16 87.1369 74.5173 87.3182 74.944C87.4996 75.3653 87.5902 75.848 87.5902 76.392C87.5902 76.92 87.4942 77.4107 87.3022 77.864C87.1102 78.3173 86.8409 78.712 86.4942 79.048C86.1529 79.384 85.7396 79.648 85.2542 79.84C84.7742 80.032 84.2436 80.128 83.6622 80.128C83.0862 80.128 82.5636 80.0373 82.0942 79.856C81.6249 79.6693 81.2249 79.408 80.8942 79.072C80.5689 78.7307 80.3156 78.32 80.1342 77.84C79.9582 77.3547 79.8702 76.8133 79.8702 76.216C79.8702 75.7147 79.9796 75.1813 80.1982 74.616C80.4222 74.0453 80.7769 73.4373 81.2622 72.792L84.1742 68.88C84.2489 68.784 84.3502 68.704 84.4782 68.64C84.6116 68.5707 84.7636 68.536 84.9342 68.536H86.1982L82.7982 72.832ZM91.9835 72.864C92.5808 72.736 93.1302 72.672 93.6315 72.672C94.2288 72.672 94.7568 72.76 95.2155 72.936C95.6742 73.112 96.0555 73.3547 96.3595 73.664C96.6688 73.9733 96.9008 74.3387 97.0555 74.76C97.2155 75.1813 97.2955 75.64 97.2955 76.136C97.2955 76.744 97.1888 77.2933 96.9755 77.784C96.7675 78.2747 96.4768 78.696 96.1035 79.048C95.7355 79.3947 95.3008 79.6613 94.7995 79.848C94.2982 80.0347 93.7568 80.128 93.1755 80.128C92.8395 80.128 92.5168 80.0933 92.2075 80.024C91.8982 79.96 91.6075 79.872 91.3355 79.76C91.0688 79.648 90.8208 79.52 90.5915 79.376C90.3622 79.232 90.1595 79.08 89.9835 78.92L90.4235 78.312C90.5195 78.1733 90.6448 78.104 90.7995 78.104C90.9062 78.104 91.0262 78.1467 91.1595 78.232C91.2928 78.312 91.4555 78.4027 91.6475 78.504C91.8395 78.6053 92.0635 78.6987 92.3195 78.784C92.5808 78.864 92.8902 78.904 93.2475 78.904C93.6475 78.904 94.0075 78.84 94.3275 78.712C94.6475 78.584 94.9222 78.4027 95.1515 78.168C95.3808 77.928 95.5568 77.6427 95.6795 77.312C95.8022 76.9813 95.8635 76.6107 95.8635 76.2C95.8635 75.8427 95.8102 75.52 95.7035 75.232C95.6022 74.944 95.4448 74.6987 95.2315 74.496C95.0235 74.2933 94.7622 74.136 94.4475 74.024C94.1328 73.912 93.7648 73.856 93.3435 73.856C93.0555 73.856 92.7542 73.88 92.4395 73.928C92.1302 73.976 91.8128 74.0533 91.4875 74.16L90.5915 73.896L91.5115 68.536H96.9435V69.16C96.9435 69.3627 96.8795 69.5307 96.7515 69.664C96.6288 69.792 96.4155 69.856 96.1115 69.856H92.5115L91.9835 72.864ZM103.809 78.992C104.182 78.992 104.515 78.9413 104.809 78.84C105.107 78.7333 105.358 78.5867 105.561 78.4C105.769 78.208 105.926 77.9813 106.033 77.72C106.145 77.4533 106.201 77.16 106.201 76.84C106.201 76.4453 106.134 76.1093 106.001 75.832C105.873 75.5493 105.697 75.32 105.473 75.144C105.254 74.968 105.001 74.84 104.713 74.76C104.425 74.6747 104.123 74.632 103.809 74.632C103.494 74.632 103.193 74.6747 102.905 74.76C102.617 74.84 102.361 74.968 102.137 75.144C101.918 75.32 101.742 75.5493 101.609 75.832C101.481 76.1093 101.417 76.4453 101.417 76.84C101.417 77.16 101.47 77.4533 101.577 77.72C101.689 77.9813 101.846 78.208 102.049 78.4C102.257 78.5867 102.507 78.7333 102.801 78.84C103.099 78.9413 103.435 78.992 103.809 78.992ZM103.809 69.512C103.467 69.512 103.166 69.5627 102.905 69.664C102.649 69.7653 102.433 69.904 102.257 70.08C102.086 70.256 101.955 70.4613 101.865 70.696C101.779 70.9307 101.737 71.1813 101.737 71.448C101.737 71.7093 101.774 71.9627 101.849 72.208C101.923 72.4533 102.043 72.672 102.209 72.864C102.374 73.0507 102.587 73.2027 102.849 73.32C103.115 73.432 103.435 73.488 103.809 73.488C104.182 73.488 104.499 73.432 104.761 73.32C105.027 73.2027 105.243 73.0507 105.409 72.864C105.574 72.672 105.694 72.4533 105.769 72.208C105.843 71.9627 105.881 71.7093 105.881 71.448C105.881 71.1813 105.835 70.9307 105.745 70.696C105.659 70.4613 105.529 70.256 105.353 70.08C105.182 69.904 104.966 69.7653 104.705 69.664C104.449 69.5627 104.15 69.512 103.809 69.512ZM105.449 74.024C106.163 74.2267 106.713 74.5653 107.097 75.04C107.481 75.5147 107.673 76.1227 107.673 76.864C107.673 77.3653 107.577 77.8187 107.385 78.224C107.198 78.624 106.934 78.9653 106.593 79.248C106.257 79.5307 105.851 79.7493 105.377 79.904C104.902 80.0533 104.379 80.128 103.809 80.128C103.238 80.128 102.715 80.0533 102.241 79.904C101.766 79.7493 101.358 79.5307 101.017 79.248C100.675 78.9653 100.411 78.624 100.225 78.224C100.038 77.8187 99.9447 77.3653 99.9447 76.864C99.9447 76.1227 100.137 75.5147 100.521 75.04C100.905 74.5653 101.454 74.2267 102.169 74.024C101.566 73.8 101.11 73.4667 100.801 73.024C100.497 72.576 100.345 72.0427 100.345 71.424C100.345 71.0027 100.427 70.608 100.593 70.24C100.758 69.872 100.993 69.552 101.297 69.28C101.601 69.008 101.963 68.7947 102.385 68.64C102.811 68.4853 103.286 68.408 103.809 68.408C104.326 68.408 104.798 68.4853 105.225 68.64C105.651 68.7947 106.017 69.008 106.321 69.28C106.625 69.552 106.859 69.872 107.025 70.24C107.19 70.608 107.273 71.0027 107.273 71.424C107.273 72.0427 107.118 72.576 106.809 73.024C106.505 73.4667 106.051 73.8 105.449 74.024ZM113.89 78.992C114.263 78.992 114.597 78.9413 114.89 78.84C115.189 78.7333 115.439 78.5867 115.642 78.4C115.85 78.208 116.007 77.9813 116.114 77.72C116.226 77.4533 116.282 77.16 116.282 76.84C116.282 76.4453 116.215 76.1093 116.082 75.832C115.954 75.5493 115.778 75.32 115.554 75.144C115.335 74.968 115.082 74.84 114.794 74.76C114.506 74.6747 114.205 74.632 113.89 74.632C113.575 74.632 113.274 74.6747 112.986 74.76C112.698 74.84 112.442 74.968 112.218 75.144C111.999 75.32 111.823 75.5493 111.69 75.832C111.562 76.1093 111.498 76.4453 111.498 76.84C111.498 77.16 111.551 77.4533 111.658 77.72C111.77 77.9813 111.927 78.208 112.13 78.4C112.338 78.5867 112.589 78.7333 112.882 78.84C113.181 78.9413 113.517 78.992 113.89 78.992ZM113.89 69.512C113.549 69.512 113.247 69.5627 112.986 69.664C112.73 69.7653 112.514 69.904 112.338 70.08C112.167 70.256 112.037 70.4613 111.946 70.696C111.861 70.9307 111.818 71.1813 111.818 71.448C111.818 71.7093 111.855 71.9627 111.93 72.208C112.005 72.4533 112.125 72.672 112.29 72.864C112.455 73.0507 112.669 73.2027 112.93 73.32C113.197 73.432 113.517 73.488 113.89 73.488C114.263 73.488 114.581 73.432 114.842 73.32C115.109 73.2027 115.325 73.0507 115.49 72.864C115.655 72.672 115.775 72.4533 115.85 72.208C115.925 71.9627 115.962 71.7093 115.962 71.448C115.962 71.1813 115.917 70.9307 115.826 70.696C115.741 70.4613 115.61 70.256 115.434 70.08C115.263 69.904 115.047 69.7653 114.786 69.664C114.53 69.5627 114.231 69.512 113.89 69.512ZM115.53 74.024C116.245 74.2267 116.794 74.5653 117.178 75.04C117.562 75.5147 117.754 76.1227 117.754 76.864C117.754 77.3653 117.658 77.8187 117.466 78.224C117.279 78.624 117.015 78.9653 116.674 79.248C116.338 79.5307 115.933 79.7493 115.458 79.904C114.983 80.0533 114.461 80.128 113.89 80.128C113.319 80.128 112.797 80.0533 112.322 79.904C111.847 79.7493 111.439 79.5307 111.098 79.248C110.757 78.9653 110.493 78.624 110.306 78.224C110.119 77.8187 110.026 77.3653 110.026 76.864C110.026 76.1227 110.218 75.5147 110.602 75.04C110.986 74.5653 111.535 74.2267 112.25 74.024C111.647 73.8 111.191 73.4667 110.882 73.024C110.578 72.576 110.426 72.0427 110.426 71.424C110.426 71.0027 110.509 70.608 110.674 70.24C110.839 69.872 111.074 69.552 111.378 69.28C111.682 69.008 112.045 68.7947 112.466 68.64C112.893 68.4853 113.367 68.408 113.89 68.408C114.407 68.408 114.879 68.4853 115.306 68.64C115.733 68.7947 116.098 69.008 116.402 69.28C116.706 69.552 116.941 69.872 117.106 70.24C117.271 70.608 117.354 71.0027 117.354 71.424C117.354 72.0427 117.199 72.576 116.89 73.024C116.586 73.4667 116.133 73.8 115.53 74.024ZM141.908 78.648C142.063 78.648 142.186 78.6933 142.276 78.784C142.367 78.8747 142.412 78.992 142.412 79.136V80H134.764V79.512C134.764 79.4107 134.786 79.3067 134.828 79.2C134.871 79.0933 134.938 78.9947 135.028 78.904L138.7 75.216C139.004 74.9067 139.282 74.6107 139.532 74.328C139.783 74.04 139.996 73.752 140.172 73.464C140.348 73.176 140.484 72.8853 140.58 72.592C140.676 72.2933 140.724 71.976 140.724 71.64C140.724 71.304 140.671 71.0107 140.564 70.76C140.458 70.504 140.311 70.2933 140.124 70.128C139.943 69.9627 139.727 69.84 139.476 69.76C139.226 69.6747 138.956 69.632 138.668 69.632C138.375 69.632 138.106 69.6747 137.86 69.76C137.615 69.8453 137.396 69.9653 137.204 70.12C137.018 70.2693 136.86 70.448 136.732 70.656C136.604 70.864 136.514 71.0933 136.46 71.344C136.396 71.5307 136.308 71.656 136.196 71.72C136.09 71.7787 135.938 71.7947 135.74 71.768L134.996 71.64C135.071 71.1173 135.215 70.656 135.428 70.256C135.647 69.8507 135.919 69.512 136.244 69.24C136.575 68.968 136.951 68.7627 137.372 68.624C137.794 68.48 138.25 68.408 138.74 68.408C139.226 68.408 139.679 68.48 140.1 68.624C140.522 68.768 140.887 68.9787 141.196 69.256C141.506 69.528 141.748 69.8613 141.924 70.256C142.1 70.6507 142.188 71.0987 142.188 71.6C142.188 72.0267 142.124 72.424 141.996 72.792C141.868 73.1547 141.695 73.5013 141.476 73.832C141.258 74.1627 141.004 74.4853 140.716 74.8C140.434 75.1147 140.132 75.432 139.812 75.752L136.788 78.84C137.002 78.7813 137.218 78.736 137.436 78.704C137.655 78.6667 137.866 78.648 138.068 78.648H141.908ZM152.238 78.912V80H146.094V78.912H148.55V71.096C148.55 70.8613 148.558 70.624 148.574 70.384L146.534 72.136C146.464 72.1947 146.395 72.232 146.326 72.248C146.256 72.2587 146.192 72.2587 146.134 72.248C146.075 72.2373 146.019 72.216 145.966 72.184C145.918 72.152 145.88 72.1173 145.854 72.08L145.406 71.464L148.822 68.512H149.982V78.912H152.238ZM162.071 78.648C162.226 78.648 162.348 78.6933 162.439 78.784C162.53 78.8747 162.575 78.992 162.575 79.136V80H154.927V79.512C154.927 79.4107 154.948 79.3067 154.991 79.2C155.034 79.0933 155.1 78.9947 155.191 78.904L158.863 75.216C159.167 74.9067 159.444 74.6107 159.695 74.328C159.946 74.04 160.159 73.752 160.335 73.464C160.511 73.176 160.647 72.8853 160.743 72.592C160.839 72.2933 160.887 71.976 160.887 71.64C160.887 71.304 160.834 71.0107 160.727 70.76C160.62 70.504 160.474 70.2933 160.287 70.128C160.106 69.9627 159.89 69.84 159.639 69.76C159.388 69.6747 159.119 69.632 158.831 69.632C158.538 69.632 158.268 69.6747 158.023 69.76C157.778 69.8453 157.559 69.9653 157.367 70.12C157.18 70.2693 157.023 70.448 156.895 70.656C156.767 70.864 156.676 71.0933 156.623 71.344C156.559 71.5307 156.471 71.656 156.359 71.72C156.252 71.7787 156.1 71.7947 155.903 71.768L155.159 71.64C155.234 71.1173 155.378 70.656 155.591 70.256C155.81 69.8507 156.082 69.512 156.407 69.24C156.738 68.968 157.114 68.7627 157.535 68.624C157.956 68.48 158.412 68.408 158.903 68.408C159.388 68.408 159.842 68.48 160.263 68.624C160.684 68.768 161.05 68.9787 161.359 69.256C161.668 69.528 161.911 69.8613 162.087 70.256C162.263 70.6507 162.351 71.0987 162.351 71.6C162.351 72.0267 162.287 72.424 162.159 72.792C162.031 73.1547 161.858 73.5013 161.639 73.832C161.42 74.1627 161.167 74.4853 160.879 74.8C160.596 75.1147 160.295 75.432 159.975 75.752L156.951 78.84C157.164 78.7813 157.38 78.736 157.599 78.704C157.818 78.6667 158.028 78.648 158.231 78.648H162.071ZM165.296 71.64C165.371 71.1173 165.515 70.656 165.728 70.256C165.942 69.8507 166.211 69.512 166.536 69.24C166.867 68.968 167.243 68.7627 167.664 68.624C168.091 68.48 168.55 68.408 169.04 68.408C169.526 68.408 169.974 68.4773 170.384 68.616C170.795 68.7547 171.147 68.952 171.44 69.208C171.739 69.464 171.971 69.7733 172.136 70.136C172.302 70.4987 172.384 70.9013 172.384 71.344C172.384 71.7067 172.336 72.032 172.24 72.32C172.15 72.6027 172.016 72.8507 171.84 73.064C171.67 73.2773 171.462 73.4587 171.216 73.608C170.971 73.7573 170.696 73.88 170.392 73.976C171.139 74.168 171.699 74.4987 172.072 74.968C172.451 75.432 172.64 76.0133 172.64 76.712C172.64 77.24 172.539 77.7147 172.336 78.136C172.139 78.5573 171.867 78.9173 171.52 79.216C171.174 79.5093 170.768 79.736 170.304 79.896C169.846 80.0507 169.352 80.128 168.824 80.128C168.216 80.128 167.696 80.0533 167.264 79.904C166.832 79.7493 166.467 79.5387 166.168 79.272C165.87 79.0053 165.624 78.6907 165.432 78.328C165.24 77.96 165.078 77.5627 164.944 77.136L165.56 76.88C165.72 76.8107 165.875 76.792 166.024 76.824C166.179 76.856 166.291 76.944 166.36 77.088C166.43 77.2373 166.515 77.416 166.616 77.624C166.723 77.832 166.867 78.032 167.048 78.224C167.23 78.416 167.459 78.5787 167.736 78.712C168.019 78.8453 168.376 78.912 168.808 78.912C169.208 78.912 169.558 78.848 169.856 78.72C170.16 78.5867 170.411 78.416 170.608 78.208C170.811 78 170.963 77.768 171.064 77.512C171.166 77.256 171.216 77.0027 171.216 76.752C171.216 76.4427 171.176 76.16 171.096 75.904C171.016 75.648 170.867 75.4267 170.648 75.24C170.43 75.0533 170.128 74.9067 169.744 74.8C169.366 74.6933 168.878 74.64 168.28 74.64V73.608C168.771 73.6027 169.187 73.5493 169.528 73.448C169.875 73.3467 170.155 73.208 170.368 73.032C170.587 72.856 170.744 72.6453 170.84 72.4C170.942 72.1547 170.992 71.8827 170.992 71.584C170.992 71.2533 170.939 70.9653 170.832 70.72C170.731 70.4747 170.59 70.272 170.408 70.112C170.227 69.952 170.011 69.832 169.76 69.752C169.515 69.672 169.248 69.632 168.96 69.632C168.672 69.632 168.403 69.6747 168.152 69.76C167.907 69.8453 167.688 69.9653 167.496 70.12C167.31 70.2693 167.152 70.448 167.024 70.656C166.896 70.864 166.806 71.0933 166.752 71.344C166.683 71.5307 166.595 71.656 166.488 71.72C166.387 71.7787 166.238 71.7947 166.04 71.768L165.296 71.64ZM193.643 78.944C194.027 78.944 194.373 78.8827 194.683 78.76C194.997 78.6373 195.264 78.4667 195.483 78.248C195.707 78.0293 195.877 77.7707 195.995 77.472C196.117 77.1733 196.179 76.848 196.179 76.496C196.179 76.1227 196.12 75.7867 196.003 75.488C195.885 75.184 195.717 74.928 195.499 74.72C195.285 74.5067 195.029 74.344 194.731 74.232C194.432 74.12 194.104 74.064 193.747 74.064C193.363 74.064 193.016 74.1307 192.707 74.264C192.397 74.392 192.133 74.568 191.915 74.792C191.701 75.0107 191.536 75.2667 191.419 75.56C191.307 75.848 191.251 76.1493 191.251 76.464C191.251 76.832 191.304 77.168 191.411 77.472C191.517 77.776 191.672 78.0373 191.875 78.256C192.083 78.4747 192.333 78.6453 192.627 78.768C192.925 78.8853 193.264 78.944 193.643 78.944ZM192.811 72.832C192.709 72.96 192.611 73.0853 192.515 73.208C192.424 73.3253 192.336 73.4427 192.251 73.56C192.523 73.3733 192.821 73.2293 193.147 73.128C193.472 73.0267 193.827 72.976 194.211 72.976C194.675 72.976 195.112 73.0533 195.523 73.208C195.933 73.3573 196.291 73.5787 196.595 73.872C196.904 74.16 197.149 74.5173 197.331 74.944C197.512 75.3653 197.603 75.848 197.603 76.392C197.603 76.92 197.507 77.4107 197.315 77.864C197.123 78.3173 196.853 78.712 196.507 79.048C196.165 79.384 195.752 79.648 195.267 79.84C194.787 80.032 194.256 80.128 193.675 80.128C193.099 80.128 192.576 80.0373 192.107 79.856C191.637 79.6693 191.237 79.408 190.907 79.072C190.581 78.7307 190.328 78.32 190.147 77.84C189.971 77.3547 189.883 76.8133 189.883 76.216C189.883 75.7147 189.992 75.1813 190.211 74.616C190.435 74.0453 190.789 73.4373 191.275 72.792L194.187 68.88C194.261 68.784 194.363 68.704 194.491 68.64C194.624 68.5707 194.776 68.536 194.947 68.536H196.211L192.811 72.832ZM203.724 78.944C204.108 78.944 204.455 78.8827 204.764 78.76C205.079 78.6373 205.345 78.4667 205.564 78.248C205.788 78.0293 205.959 77.7707 206.076 77.472C206.199 77.1733 206.26 76.848 206.26 76.496C206.26 76.1227 206.201 75.7867 206.084 75.488C205.967 75.184 205.799 74.928 205.58 74.72C205.367 74.5067 205.111 74.344 204.812 74.232C204.513 74.12 204.185 74.064 203.828 74.064C203.444 74.064 203.097 74.1307 202.788 74.264C202.479 74.392 202.215 74.568 201.996 74.792C201.783 75.0107 201.617 75.2667 201.5 75.56C201.388 75.848 201.332 76.1493 201.332 76.464C201.332 76.832 201.385 77.168 201.492 77.472C201.599 77.776 201.753 78.0373 201.956 78.256C202.164 78.4747 202.415 78.6453 202.708 78.768C203.007 78.8853 203.345 78.944 203.724 78.944ZM202.892 72.832C202.791 72.96 202.692 73.0853 202.596 73.208C202.505 73.3253 202.417 73.4427 202.332 73.56C202.604 73.3733 202.903 73.2293 203.228 73.128C203.553 73.0267 203.908 72.976 204.292 72.976C204.756 72.976 205.193 73.0533 205.604 73.208C206.015 73.3573 206.372 73.5787 206.676 73.872C206.985 74.16 207.231 74.5173 207.412 74.944C207.593 75.3653 207.684 75.848 207.684 76.392C207.684 76.92 207.588 77.4107 207.396 77.864C207.204 78.3173 206.935 78.712 206.588 79.048C206.247 79.384 205.833 79.648 205.348 79.84C204.868 80.032 204.337 80.128 203.756 80.128C203.18 80.128 202.657 80.0373 202.188 79.856C201.719 79.6693 201.319 79.408 200.988 79.072C200.663 78.7307 200.409 78.32 200.228 77.84C200.052 77.3547 199.964 76.8133 199.964 76.216C199.964 75.7147 200.073 75.1813 200.292 74.616C200.516 74.0453 200.871 73.4373 201.356 72.792L204.268 68.88C204.343 68.784 204.444 68.704 204.572 68.64C204.705 68.5707 204.857 68.536 205.028 68.536H206.292L202.892 72.832ZM215.021 75.864V71.136C215.021 70.9973 215.027 70.8453 215.037 70.68C215.048 70.5147 215.064 70.3467 215.085 70.176L210.909 75.864H215.021ZM218.005 75.864V76.68C218.005 76.7653 217.979 76.8373 217.925 76.896C217.877 76.9547 217.8 76.984 217.693 76.984H216.269V80H215.021V76.984H209.933C209.827 76.984 209.733 76.9547 209.653 76.896C209.579 76.832 209.531 76.7547 209.509 76.664L209.365 75.936L214.941 68.536H216.269V75.864H218.005ZM225.102 75.864V71.136C225.102 70.9973 225.108 70.8453 225.118 70.68C225.129 70.5147 225.145 70.3467 225.166 70.176L220.99 75.864H225.102ZM228.086 75.864V76.68C228.086 76.7653 228.06 76.8373 228.006 76.896C227.958 76.9547 227.881 76.984 227.774 76.984H226.35V80H225.102V76.984H220.014C219.908 76.984 219.814 76.9547 219.734 76.896C219.66 76.832 219.612 76.7547 219.59 76.664L219.446 75.936L225.022 68.536H226.35V75.864H228.086Z" fill="white"/>
        <path d="M25.88 129.975H26.245C26.3717 129.975 26.4733 129.96 26.55 129.93C26.6267 129.897 26.6967 129.842 26.76 129.765L29.145 127.065C29.2117 126.978 29.2817 126.918 29.355 126.885C29.4283 126.852 29.5183 126.835 29.625 126.835H30.445L27.715 129.92C27.6483 130 27.5833 130.067 27.52 130.12C27.46 130.17 27.395 130.212 27.325 130.245C27.415 130.275 27.4967 130.32 27.57 130.38C27.6433 130.437 27.715 130.512 27.785 130.605L30.635 134H29.795C29.7317 134 29.6767 133.997 29.63 133.99C29.5867 133.98 29.5483 133.967 29.515 133.95C29.4817 133.93 29.4517 133.908 29.425 133.885C29.4017 133.858 29.3783 133.828 29.355 133.795L26.885 130.95C26.8183 130.867 26.7467 130.808 26.67 130.775C26.5933 130.738 26.4767 130.72 26.32 130.72H25.88V134H24.915V126.835H25.88V129.975ZM34.0211 130.305C34.3011 130.305 34.5478 130.272 34.7611 130.205C34.9778 130.135 35.1578 130.038 35.3011 129.915C35.4478 129.788 35.5578 129.638 35.6311 129.465C35.7044 129.292 35.7411 129.1 35.7411 128.89C35.7411 128.463 35.6011 128.142 35.3211 127.925C35.0411 127.708 34.6211 127.6 34.0611 127.6H33.0011V130.305H34.0211ZM37.3311 134H36.4711C36.2944 134 36.1644 133.932 36.0811 133.795L34.2211 131.235C34.1644 131.155 34.1028 131.098 34.0361 131.065C33.9728 131.028 33.8728 131.01 33.7361 131.01H33.0011V134H32.0361V126.835H34.0611C34.5144 126.835 34.9061 126.882 35.2361 126.975C35.5661 127.065 35.8378 127.197 36.0511 127.37C36.2678 127.543 36.4278 127.753 36.5311 128C36.6344 128.243 36.6861 128.517 36.6861 128.82C36.6861 129.073 36.6461 129.31 36.5661 129.53C36.4861 129.75 36.3694 129.948 36.2161 130.125C36.0661 130.298 35.8811 130.447 35.6611 130.57C35.4444 130.693 35.1978 130.787 34.9211 130.85C35.0444 130.92 35.1511 131.022 35.2411 131.155L37.3311 134ZM39.7756 134H38.8056V126.835H39.7756V134ZM45.7734 127.955C45.7434 128.005 45.71 128.043 45.6734 128.07C45.64 128.093 45.5984 128.105 45.5484 128.105C45.4917 128.105 45.425 128.077 45.3484 128.02C45.2717 127.963 45.175 127.902 45.0584 127.835C44.945 127.765 44.8067 127.702 44.6434 127.645C44.4834 127.588 44.2884 127.56 44.0584 127.56C43.8417 127.56 43.65 127.59 43.4834 127.65C43.32 127.707 43.1817 127.785 43.0684 127.885C42.9584 127.985 42.875 128.103 42.8184 128.24C42.7617 128.373 42.7334 128.518 42.7334 128.675C42.7334 128.875 42.7817 129.042 42.8784 129.175C42.9784 129.305 43.1084 129.417 43.2684 129.51C43.4317 129.603 43.615 129.685 43.8184 129.755C44.025 129.822 44.235 129.892 44.4484 129.965C44.665 130.038 44.875 130.122 45.0784 130.215C45.285 130.305 45.4684 130.42 45.6284 130.56C45.7917 130.7 45.9217 130.872 46.0184 131.075C46.1184 131.278 46.1684 131.528 46.1684 131.825C46.1684 132.138 46.115 132.433 46.0084 132.71C45.9017 132.983 45.745 133.222 45.5384 133.425C45.335 133.628 45.0834 133.788 44.7834 133.905C44.4867 134.022 44.1484 134.08 43.7684 134.08C43.3017 134.08 42.8784 133.997 42.4984 133.83C42.1184 133.66 41.7934 133.432 41.5234 133.145L41.8034 132.685C41.83 132.648 41.8617 132.618 41.8984 132.595C41.9384 132.568 41.9817 132.555 42.0284 132.555C42.0717 132.555 42.12 132.573 42.1734 132.61C42.23 132.643 42.2934 132.687 42.3634 132.74C42.4334 132.793 42.5134 132.852 42.6034 132.915C42.6934 132.978 42.795 133.037 42.9084 133.09C43.025 133.143 43.1567 133.188 43.3034 133.225C43.45 133.258 43.615 133.275 43.7984 133.275C44.0284 133.275 44.2334 133.243 44.4134 133.18C44.5934 133.117 44.745 133.028 44.8684 132.915C44.995 132.798 45.0917 132.66 45.1584 132.5C45.225 132.34 45.2584 132.162 45.2584 131.965C45.2584 131.748 45.2084 131.572 45.1084 131.435C45.0117 131.295 44.8834 131.178 44.7234 131.085C44.5634 130.992 44.38 130.913 44.1734 130.85C43.9667 130.783 43.7567 130.717 43.5434 130.65C43.33 130.58 43.12 130.5 42.9134 130.41C42.7067 130.32 42.5234 130.203 42.3634 130.06C42.2034 129.917 42.0734 129.738 41.9734 129.525C41.8767 129.308 41.8284 129.042 41.8284 128.725C41.8284 128.472 41.8767 128.227 41.9734 127.99C42.0734 127.753 42.2167 127.543 42.4034 127.36C42.5934 127.177 42.825 127.03 43.0984 126.92C43.375 126.81 43.6917 126.755 44.0484 126.755C44.4484 126.755 44.8117 126.818 45.1384 126.945C45.4684 127.072 45.7584 127.255 46.0084 127.495L45.7734 127.955ZM52.883 127.65H50.563V134H49.598V127.65H47.273V126.835H52.883V127.65ZM55.4163 134H54.4463V126.835H55.4163V134ZM63.554 126.835V134H63.069C62.9923 134 62.9273 133.987 62.874 133.96C62.824 133.933 62.774 133.888 62.724 133.825L58.579 128.425C58.5857 128.508 58.5907 128.59 58.594 128.67C58.5973 128.75 58.599 128.825 58.599 128.895V134H57.749V126.835H58.249C58.2923 126.835 58.329 126.838 58.359 126.845C58.389 126.848 58.4157 126.857 58.439 126.87C58.4623 126.88 58.4857 126.897 58.509 126.92C58.5323 126.94 58.5573 126.967 58.584 127L62.729 132.395C62.7223 132.308 62.7157 132.225 62.709 132.145C62.7057 132.062 62.704 131.983 62.704 131.91V126.835H63.554ZM34.2 138.835L31.965 146H31.095L29.28 140.535C29.2633 140.482 29.2467 140.425 29.23 140.365C29.2167 140.305 29.2017 140.242 29.185 140.175C29.1683 140.242 29.1517 140.305 29.135 140.365C29.1183 140.425 29.1017 140.482 29.085 140.535L27.26 146H26.39L24.155 138.835H24.96C25.0467 138.835 25.1183 138.857 25.175 138.9C25.235 138.943 25.2733 138.998 25.29 139.065L26.77 144.045C26.7933 144.135 26.815 144.232 26.835 144.335C26.8583 144.438 26.88 144.548 26.9 144.665C26.9233 144.548 26.9467 144.438 26.97 144.335C26.9967 144.228 27.025 144.132 27.055 144.045L28.74 139.065C28.76 139.008 28.7983 138.957 28.855 138.91C28.915 138.86 28.9867 138.835 29.07 138.835H29.35C29.4367 138.835 29.5067 138.857 29.56 138.9C29.6133 138.943 29.6533 138.998 29.68 139.065L31.36 144.045C31.39 144.132 31.4167 144.225 31.44 144.325C31.4667 144.425 31.4917 144.53 31.515 144.64C31.5317 144.53 31.55 144.425 31.57 144.325C31.59 144.225 31.6117 144.132 31.635 144.045L33.12 139.065C33.1367 139.005 33.1733 138.952 33.23 138.905C33.29 138.858 33.3617 138.835 33.445 138.835H34.2ZM39.1419 143.34L38.0169 140.425C37.9835 140.338 37.9485 140.238 37.9119 140.125C37.8752 140.008 37.8402 139.885 37.8069 139.755C37.7369 140.025 37.6652 140.25 37.5919 140.43L36.4669 143.34H39.1419ZM41.1619 146H40.4119C40.3252 146 40.2552 145.978 40.2019 145.935C40.1485 145.892 40.1085 145.837 40.0819 145.77L39.4119 144.04H36.1969L35.5269 145.77C35.5069 145.83 35.4685 145.883 35.4119 145.93C35.3552 145.977 35.2852 146 35.2019 146H34.4519L37.3169 138.835H38.2969L41.1619 146ZM46.7463 139.65H44.4263V146H43.4613V139.65H41.1363V138.835H46.7463V139.65ZM51.9452 139.955C51.9152 140.005 51.8819 140.043 51.8452 140.07C51.8119 140.093 51.7702 140.105 51.7202 140.105C51.6636 140.105 51.5969 140.077 51.5202 140.02C51.4436 139.963 51.3469 139.902 51.2302 139.835C51.1169 139.765 50.9786 139.702 50.8152 139.645C50.6552 139.588 50.4602 139.56 50.2302 139.56C50.0136 139.56 49.8219 139.59 49.6552 139.65C49.4919 139.707 49.3536 139.785 49.2402 139.885C49.1302 139.985 49.0469 140.103 48.9902 140.24C48.9336 140.373 48.9052 140.518 48.9052 140.675C48.9052 140.875 48.9536 141.042 49.0502 141.175C49.1502 141.305 49.2802 141.417 49.4402 141.51C49.6036 141.603 49.7869 141.685 49.9902 141.755C50.1969 141.822 50.4069 141.892 50.6202 141.965C50.8369 142.038 51.0469 142.122 51.2502 142.215C51.4569 142.305 51.6402 142.42 51.8002 142.56C51.9636 142.7 52.0936 142.872 52.1902 143.075C52.2902 143.278 52.3402 143.528 52.3402 143.825C52.3402 144.138 52.2869 144.433 52.1802 144.71C52.0736 144.983 51.9169 145.222 51.7102 145.425C51.5069 145.628 51.2552 145.788 50.9552 145.905C50.6586 146.022 50.3202 146.08 49.9402 146.08C49.4736 146.08 49.0502 145.997 48.6702 145.83C48.2902 145.66 47.9652 145.432 47.6952 145.145L47.9752 144.685C48.0019 144.648 48.0336 144.618 48.0702 144.595C48.1102 144.568 48.1536 144.555 48.2002 144.555C48.2436 144.555 48.2919 144.573 48.3452 144.61C48.4019 144.643 48.4652 144.687 48.5352 144.74C48.6052 144.793 48.6852 144.852 48.7752 144.915C48.8652 144.978 48.9669 145.037 49.0802 145.09C49.1969 145.143 49.3286 145.188 49.4752 145.225C49.6219 145.258 49.7869 145.275 49.9702 145.275C50.2002 145.275 50.4052 145.243 50.5852 145.18C50.7652 145.117 50.9169 145.028 51.0402 144.915C51.1669 144.798 51.2636 144.66 51.3302 144.5C51.3969 144.34 51.4302 144.162 51.4302 143.965C51.4302 143.748 51.3802 143.572 51.2802 143.435C51.1836 143.295 51.0552 143.178 50.8952 143.085C50.7352 142.992 50.5519 142.913 50.3452 142.85C50.1386 142.783 49.9286 142.717 49.7152 142.65C49.5019 142.58 49.2919 142.5 49.0852 142.41C48.8786 142.32 48.6952 142.203 48.5352 142.06C48.3752 141.917 48.2452 141.738 48.1452 141.525C48.0486 141.308 48.0002 141.042 48.0002 140.725C48.0002 140.472 48.0486 140.227 48.1452 139.99C48.2452 139.753 48.3886 139.543 48.5752 139.36C48.7652 139.177 48.9969 139.03 49.2702 138.92C49.5469 138.81 49.8636 138.755 50.2202 138.755C50.6202 138.755 50.9836 138.818 51.3102 138.945C51.6402 139.072 51.9302 139.255 52.1802 139.495L51.9452 139.955ZM60.8299 142.42C60.8299 142.957 60.7449 143.45 60.5749 143.9C60.4049 144.347 60.1649 144.732 59.8549 145.055C59.5449 145.378 59.1716 145.63 58.7349 145.81C58.3016 145.987 57.8216 146.075 57.2949 146.075C56.7683 146.075 56.2883 145.987 55.8549 145.81C55.4216 145.63 55.0499 145.378 54.7399 145.055C54.4299 144.732 54.1899 144.347 54.0199 143.9C53.8499 143.45 53.7649 142.957 53.7649 142.42C53.7649 141.883 53.8499 141.392 54.0199 140.945C54.1899 140.495 54.4299 140.108 54.7399 139.785C55.0499 139.458 55.4216 139.205 55.8549 139.025C56.2883 138.845 56.7683 138.755 57.2949 138.755C57.8216 138.755 58.3016 138.845 58.7349 139.025C59.1716 139.205 59.5449 139.458 59.8549 139.785C60.1649 140.108 60.4049 140.495 60.5749 140.945C60.7449 141.392 60.8299 141.883 60.8299 142.42ZM59.8349 142.42C59.8349 141.98 59.7749 141.585 59.6549 141.235C59.5349 140.885 59.3649 140.59 59.1449 140.35C58.9249 140.107 58.6583 139.92 58.3449 139.79C58.0316 139.66 57.6816 139.595 57.2949 139.595C56.9116 139.595 56.5633 139.66 56.2499 139.79C55.9366 139.92 55.6683 140.107 55.4449 140.35C55.2249 140.59 55.0549 140.885 54.9349 141.235C54.8149 141.585 54.7549 141.98 54.7549 142.42C54.7549 142.86 54.8149 143.255 54.9349 143.605C55.0549 143.952 55.2249 144.247 55.4449 144.49C55.6683 144.73 55.9366 144.915 56.2499 145.045C56.5633 145.172 56.9116 145.235 57.2949 145.235C57.6816 145.235 58.0316 145.172 58.3449 145.045C58.6583 144.915 58.9249 144.73 59.1449 144.49C59.3649 144.247 59.5349 143.952 59.6549 143.605C59.7749 143.255 59.8349 142.86 59.8349 142.42ZM68.5227 138.835V146H68.0377C67.9611 146 67.8961 145.987 67.8427 145.96C67.7927 145.933 67.7427 145.888 67.6927 145.825L63.5477 140.425C63.5544 140.508 63.5594 140.59 63.5627 140.67C63.5661 140.75 63.5677 140.825 63.5677 140.895V146H62.7177V138.835H63.2177C63.2611 138.835 63.2977 138.838 63.3277 138.845C63.3577 138.848 63.3844 138.857 63.4077 138.87C63.4311 138.88 63.4544 138.897 63.4777 138.92C63.5011 138.94 63.5261 138.967 63.5527 139L67.6977 144.395C67.6911 144.308 67.6844 144.225 67.6777 144.145C67.6744 144.062 67.6727 143.983 67.6727 143.91V138.835H68.5227Z" fill="white"/>
        <path d="M178.268 131.368L178.264 132H174.732V126.268H178.264V126.9H175.508V128.804H177.74V129.412H175.508V131.368H178.268ZM184.121 132H183.353C183.295 132 183.248 131.985 183.213 131.956C183.181 131.924 183.155 131.889 183.133 131.852L181.597 129.444C181.576 129.508 181.552 129.563 181.525 129.608L180.029 131.852C180.003 131.889 179.973 131.924 179.941 131.956C179.912 131.985 179.871 132 179.817 132H179.097L181.069 129.056L179.177 126.268H179.949C180.005 126.268 180.047 126.277 180.073 126.296C180.1 126.315 180.124 126.341 180.145 126.376L181.641 128.672C181.66 128.616 181.688 128.555 181.725 128.488L183.137 126.392C183.159 126.355 183.184 126.325 183.213 126.304C183.243 126.28 183.277 126.268 183.317 126.268H184.057L182.157 129.02L184.121 132ZM187.037 129.24C187.258 129.24 187.453 129.211 187.621 129.152C187.791 129.093 187.934 129.012 188.049 128.908C188.166 128.801 188.254 128.675 188.313 128.528C188.371 128.381 188.401 128.22 188.401 128.044C188.401 127.679 188.287 127.393 188.061 127.188C187.837 126.983 187.495 126.88 187.037 126.88H186.117V129.24H187.037ZM187.037 126.268C187.399 126.268 187.714 126.311 187.981 126.396C188.25 126.479 188.473 126.597 188.649 126.752C188.825 126.907 188.955 127.093 189.041 127.312C189.129 127.531 189.173 127.775 189.173 128.044C189.173 128.311 189.126 128.555 189.033 128.776C188.939 128.997 188.802 129.188 188.621 129.348C188.442 129.508 188.219 129.633 187.953 129.724C187.689 129.812 187.383 129.856 187.037 129.856H186.117V132H185.345V126.268H187.037ZM189.456 131.56C189.456 131.491 189.468 131.425 189.492 131.364C189.519 131.303 189.554 131.249 189.596 131.204C189.642 131.159 189.695 131.123 189.756 131.096C189.818 131.069 189.883 131.056 189.952 131.056C190.022 131.056 190.087 131.069 190.148 131.096C190.21 131.123 190.263 131.159 190.308 131.204C190.354 131.249 190.39 131.303 190.416 131.364C190.443 131.425 190.456 131.491 190.456 131.56C190.456 131.632 190.443 131.699 190.416 131.76C190.39 131.819 190.354 131.871 190.308 131.916C190.263 131.961 190.21 131.996 190.148 132.02C190.087 132.047 190.022 132.06 189.952 132.06C189.883 132.06 189.818 132.047 189.756 132.02C189.695 131.996 189.642 131.961 189.596 131.916C189.554 131.871 189.519 131.819 189.492 131.76C189.468 131.699 189.456 131.632 189.456 131.56ZM198.018 131.368L198.014 132H194.482V126.268H198.014V126.9H195.258V128.804H197.49V129.412H195.258V131.368H198.018ZM204.143 126.268V132H203.755C203.694 132 203.642 131.989 203.599 131.968C203.559 131.947 203.519 131.911 203.479 131.86L200.163 127.54C200.169 127.607 200.173 127.672 200.175 127.736C200.178 127.8 200.179 127.86 200.179 127.916V132H199.499V126.268H199.899C199.934 126.268 199.963 126.271 199.987 126.276C200.011 126.279 200.033 126.285 200.051 126.296C200.07 126.304 200.089 126.317 200.107 126.336C200.126 126.352 200.146 126.373 200.167 126.4L203.483 130.716C203.478 130.647 203.473 130.58 203.467 130.516C203.465 130.449 203.463 130.387 203.463 130.328V126.268H204.143ZM210.977 129.136C210.977 129.565 210.909 129.956 210.773 130.308C210.637 130.66 210.445 130.961 210.197 131.212C209.949 131.463 209.65 131.657 209.301 131.796C208.954 131.932 208.57 132 208.149 132H206.009V126.268H208.149C208.57 126.268 208.954 126.337 209.301 126.476C209.65 126.612 209.949 126.807 210.197 127.06C210.445 127.311 210.637 127.612 210.773 127.964C210.909 128.316 210.977 128.707 210.977 129.136ZM210.181 129.136C210.181 128.784 210.133 128.469 210.037 128.192C209.941 127.915 209.805 127.68 209.629 127.488C209.453 127.296 209.239 127.149 208.989 127.048C208.738 126.947 208.458 126.896 208.149 126.896H206.785V131.372H208.149C208.458 131.372 208.738 131.321 208.989 131.22C209.239 131.119 209.453 130.973 209.629 130.784C209.805 130.592 209.941 130.357 210.037 130.08C210.133 129.803 210.181 129.488 210.181 129.136ZM179.09 143.32V144H175.25V143.32H176.785V138.435C176.785 138.288 176.79 138.14 176.8 137.99L175.525 139.085C175.482 139.122 175.438 139.145 175.395 139.155C175.352 139.162 175.312 139.162 175.275 139.155C175.238 139.148 175.203 139.135 175.17 139.115C175.14 139.095 175.117 139.073 175.1 139.05L174.82 138.665L176.955 136.82H177.68V143.32H179.09ZM185.236 143.155C185.332 143.155 185.409 143.183 185.466 143.24C185.522 143.297 185.551 143.37 185.551 143.46V144H180.771V143.695C180.771 143.632 180.784 143.567 180.811 143.5C180.837 143.433 180.879 143.372 180.936 143.315L183.231 141.01C183.421 140.817 183.594 140.632 183.751 140.455C183.907 140.275 184.041 140.095 184.151 139.915C184.261 139.735 184.346 139.553 184.406 139.37C184.466 139.183 184.496 138.985 184.496 138.775C184.496 138.565 184.462 138.382 184.396 138.225C184.329 138.065 184.237 137.933 184.121 137.83C184.007 137.727 183.872 137.65 183.716 137.6C183.559 137.547 183.391 137.52 183.211 137.52C183.027 137.52 182.859 137.547 182.706 137.6C182.552 137.653 182.416 137.728 182.296 137.825C182.179 137.918 182.081 138.03 182.001 138.16C181.921 138.29 181.864 138.433 181.831 138.59C181.791 138.707 181.736 138.785 181.666 138.825C181.599 138.862 181.504 138.872 181.381 138.855L180.916 138.775C180.962 138.448 181.052 138.16 181.186 137.91C181.322 137.657 181.492 137.445 181.696 137.275C181.902 137.105 182.137 136.977 182.401 136.89C182.664 136.8 182.949 136.755 183.256 136.755C183.559 136.755 183.842 136.8 184.106 136.89C184.369 136.98 184.597 137.112 184.791 137.285C184.984 137.455 185.136 137.663 185.246 137.91C185.356 138.157 185.411 138.437 185.411 138.75C185.411 139.017 185.371 139.265 185.291 139.495C185.211 139.722 185.102 139.938 184.966 140.145C184.829 140.352 184.671 140.553 184.491 140.75C184.314 140.947 184.126 141.145 183.926 141.345L182.036 143.275C182.169 143.238 182.304 143.21 182.441 143.19C182.577 143.167 182.709 143.155 182.836 143.155H185.236ZM187.797 144.105C187.753 144.222 187.685 144.308 187.592 144.365C187.502 144.422 187.408 144.45 187.312 144.45H186.937L189.942 136.965C189.982 136.858 190.042 136.777 190.122 136.72C190.205 136.663 190.3 136.635 190.407 136.635H190.787L187.797 144.105ZM196.558 143.155C196.655 143.155 196.731 143.183 196.788 143.24C196.845 143.297 196.873 143.37 196.873 143.46V144H192.093V143.695C192.093 143.632 192.106 143.567 192.133 143.5C192.16 143.433 192.201 143.372 192.258 143.315L194.553 141.01C194.743 140.817 194.916 140.632 195.073 140.455C195.23 140.275 195.363 140.095 195.473 139.915C195.583 139.735 195.668 139.553 195.728 139.37C195.788 139.183 195.818 138.985 195.818 138.775C195.818 138.565 195.785 138.382 195.718 138.225C195.651 138.065 195.56 137.933 195.443 137.83C195.33 137.727 195.195 137.65 195.038 137.6C194.881 137.547 194.713 137.52 194.533 137.52C194.35 137.52 194.181 137.547 194.028 137.6C193.875 137.653 193.738 137.728 193.618 137.825C193.501 137.918 193.403 138.03 193.323 138.16C193.243 138.29 193.186 138.433 193.153 138.59C193.113 138.707 193.058 138.785 192.988 138.825C192.921 138.862 192.826 138.872 192.703 138.855L192.238 138.775C192.285 138.448 192.375 138.16 192.508 137.91C192.645 137.657 192.815 137.445 193.018 137.275C193.225 137.105 193.46 136.977 193.723 136.89C193.986 136.8 194.271 136.755 194.578 136.755C194.881 136.755 195.165 136.8 195.428 136.89C195.691 136.98 195.92 137.112 196.113 137.285C196.306 137.455 196.458 137.663 196.568 137.91C196.678 138.157 196.733 138.437 196.733 138.75C196.733 139.017 196.693 139.265 196.613 139.495C196.533 139.722 196.425 139.938 196.288 140.145C196.151 140.352 195.993 140.553 195.813 140.75C195.636 140.947 195.448 141.145 195.248 141.345L193.358 143.275C193.491 143.238 193.626 143.21 193.763 143.19C193.9 143.167 194.031 143.155 194.158 143.155H196.558ZM201.574 141.415V138.46C201.574 138.373 201.577 138.278 201.584 138.175C201.59 138.072 201.6 137.967 201.614 137.86L199.004 141.415H201.574ZM203.439 141.415V141.925C203.439 141.978 203.422 142.023 203.389 142.06C203.359 142.097 203.31 142.115 203.244 142.115H202.354V144H201.574V142.115H198.394C198.327 142.115 198.269 142.097 198.219 142.06C198.172 142.02 198.142 141.972 198.129 141.915L198.039 141.46L201.524 136.835H202.354V141.415H203.439Z" fill="white"/>
    </g>
    <defs>
        <clipPath id="clip0_37_2170">
            <rect width="279" height="170" rx="10" fill="white"/>
        </clipPath>
    </defs>
</svg>
