<svg width="22" height="22" viewBox="0 0 22 22" fill="none" xmlns="http://www.w3.org/2000/svg">
    <g clip-path="url(#clip0_590_1385)">
        <path d="M3.89198 19.7852C3.97105 20.0619 4.22396 20.2527 4.51172 20.2527H17.4883C17.776 20.2527 18.029 20.0619 18.108 19.7852L20.5526 11.2292H1.44745L3.89198 19.7852ZM13.9521 16.9241L14.5967 13.0569C14.6552 12.7058 14.9872 12.4684 15.3384 12.5271C15.6895 12.5856 15.9267 12.9177 15.8682 13.2688L15.2237 17.136C15.1711 17.4513 14.898 17.6747 14.5887 17.6747C14.5535 17.6747 14.5178 17.6719 14.4819 17.6658C14.1308 17.6073 13.8936 17.2752 13.9521 16.9241ZM10.3555 13.1628C10.3555 12.8069 10.644 12.5183 11 12.5183C11.356 12.5183 11.6445 12.8069 11.6445 13.1628V17.03C11.6445 17.386 11.356 17.6746 11 17.6746C10.644 17.6746 10.3555 17.386 10.3555 17.03V13.1628ZM6.70459 12.5271C7.05577 12.4686 7.38779 12.7058 7.44631 13.0569L8.09085 16.9241C8.14937 17.2752 7.91218 17.6073 7.56104 17.6658C7.52521 17.6718 7.4895 17.6747 7.45431 17.6747C7.14489 17.6747 6.87186 17.4513 6.81931 17.136L6.17478 13.2688C6.11626 12.9177 6.35345 12.5856 6.70459 12.5271Z" fill="#222222"/>
        <path d="M21.3555 7.36206H19.0871L14.1244 1.15865C13.9021 0.880776 13.4965 0.835615 13.2185 1.05802C12.9405 1.28039 12.8954 1.68597 13.1178 1.96393L17.4363 7.36206H4.56367L8.8822 1.96393C9.10456 1.68597 9.05949 1.28034 8.78157 1.05802C8.50356 0.835615 8.09798 0.880733 7.87566 1.15865L2.91289 7.36206H0.644531C0.288578 7.36206 0 7.65064 0 8.00659V9.29565C0 9.65161 0.288578 9.94018 0.644531 9.94018H21.3555C21.7114 9.94018 22 9.65161 22 9.29565V8.00659C22 7.65064 21.7114 7.36206 21.3555 7.36206Z" fill="#222222"/>
    </g>
    <defs>
        <clipPath id="clip0_590_1385">
            <rect width="22" height="22" fill="white"/>
        </clipPath>
    </defs>
</svg>
