<svg width="22" height="22" viewBox="0 0 22 22" fill="none" xmlns="http://www.w3.org/2000/svg">
    <g clip-path="url(#clip0_590_1332)">
        <path d="M21.4499 9.52599C21.4493 9.52549 21.4488 9.52481 21.4483 9.52431L12.474 0.55037C12.0915 0.167679 11.5829 -0.0429688 11.0419 -0.0429688C10.5009 -0.0429688 9.99237 0.167679 9.60968 0.55037L0.640099 9.51978C0.637078 9.5228 0.633889 9.52599 0.631036 9.52901C-0.154488 10.3191 -0.153146 11.6009 0.634896 12.389C0.994928 12.7492 1.47027 12.9576 1.97868 12.9796C1.99949 12.9816 2.02031 12.9826 2.04129 12.9826H2.3988V19.5867C2.3988 20.8938 3.46228 21.9571 4.7693 21.9571H8.28033C8.63633 21.9571 8.92486 21.6684 8.92486 21.3125V16.1348C8.92486 15.5384 9.41011 15.0534 10.0065 15.0534H12.0774C12.6737 15.0534 13.1588 15.5384 13.1588 16.1348V21.3125C13.1588 21.6684 13.4473 21.9571 13.8033 21.9571H17.3144C18.6215 21.9571 19.6849 20.8938 19.6849 19.5867V12.9826H20.0165C20.5573 12.9826 21.0659 12.772 21.4488 12.3891C22.2376 11.5999 22.238 10.3157 21.4499 9.52599ZM20.5372 11.4777C20.398 11.6169 20.2131 11.6936 20.0165 11.6936H19.0403C18.6843 11.6936 18.3958 11.9821 18.3958 12.3381V19.5867C18.3958 20.1829 17.9107 20.668 17.3144 20.668H14.4479V16.1348C14.4479 14.8278 13.3846 13.7643 12.0774 13.7643H10.0065C8.69927 13.7643 7.6358 14.8278 7.6358 16.1348V20.668H4.7693C4.17311 20.668 3.68787 20.1829 3.68787 19.5867V12.3381C3.68787 11.9821 3.39934 11.6936 3.04333 11.6936H2.08392C2.07385 11.6929 2.06395 11.6924 2.05371 11.6922C1.86169 11.6889 1.68159 11.6127 1.54664 11.4775C1.25962 11.1905 1.25962 10.7234 1.54664 10.4362C1.54681 10.4362 1.54681 10.4361 1.54698 10.4359L1.54748 10.4354L10.5214 1.46178C10.6604 1.32263 10.8452 1.2461 11.0419 1.2461C11.2385 1.2461 11.4233 1.32263 11.5624 1.46178L20.5343 10.4335C20.5357 10.4349 20.5372 10.4362 20.5385 10.4376C20.824 10.7251 20.8235 11.1912 20.5372 11.4777Z" fill="#222222"/>
    </g>
    <defs>
        <clipPath id="clip0_590_1332">
            <rect width="22" height="22" fill="white"/>
        </clipPath>
    </defs>
</svg>
