<svg width="30" height="26" viewBox="0 0 30 26" fill="none" xmlns="http://www.w3.org/2000/svg">
    <path opacity="0.3" fill-rule="evenodd" clip-rule="evenodd" d="M5.63409 9.62096C4.84433 10.2155 4.07066 10.8077 3.31147 11.4205C2.43517 12.1278 1.1537 11.9879 0.449226 11.1081C-0.255249 10.2283 -0.115959 8.94171 0.76034 8.23442C1.92559 7.29389 3.13473 6.39046 4.30795 5.51387C4.60993 5.28824 4.90953 5.06439 5.20539 4.84214C6.67051 3.74154 8.06994 2.66147 9.3696 1.5016C9.84561 1.07678 10.3899 0.665203 10.9216 0.323556L10.9239 0.32209C11.0327 0.252131 11.6477 -0.143273 12.487 0.0551667C13.5643 0.309862 13.9111 1.21675 13.9932 1.53813C14.0775 1.86859 14.0565 2.13802 14.0501 2.21594C14.0407 2.3302 14.0236 2.42036 14.0135 2.46872C13.9816 2.6225 13.9362 2.74701 13.9277 2.77049C13.9273 2.77159 13.9269 2.77246 13.9267 2.77311C13.8976 2.85391 13.8639 2.93441 13.842 2.98602C13.7916 3.10469 13.7215 3.26149 13.644 3.4323C13.4862 3.77983 13.2693 4.24703 13.046 4.72452C12.8152 5.21836 12.5801 5.71823 12.3885 6.12538C12.202 6.52189 12.0569 6.83047 11.9973 6.95993C11.1544 8.79207 10.0311 10.424 9.02564 11.8847C8.90922 12.0539 8.79438 12.2207 8.68174 12.3853C8.61359 12.4849 8.54609 12.5838 8.47928 12.6822C8.99663 12.2538 9.50308 11.7762 10.0205 11.2449C11.4917 9.73424 13.2498 8.66106 14.7976 7.7399C16.1378 6.07532 17.7331 4.56339 19.5339 3.47397C19.7442 3.34672 19.9685 3.22468 20.1979 3.12859C20.3904 3.04796 20.7598 2.90957 21.2113 2.90673C21.7352 2.90344 22.6452 3.11519 23.1361 4.05029C23.5079 4.75841 23.3659 5.42377 23.3177 5.62423C23.1994 6.11621 22.9391 6.52576 22.7995 6.73121C22.7304 6.8328 22.6555 6.935 22.5764 7.03519C22.678 7.01064 22.8226 6.98408 22.9922 6.97861C23.1342 6.97404 24.243 6.9493 24.8401 8.03191C25.3432 8.94393 24.9573 9.77315 24.9132 9.86804C24.9121 9.87042 24.9112 9.87234 24.9105 9.87379C24.8128 10.0884 24.6999 10.2357 24.6623 10.2841C24.6105 10.3509 24.5645 10.4016 24.5375 10.4305C24.4501 10.524 24.3661 10.5959 24.3434 10.6153L24.3413 10.6171C24.2264 10.7155 24.0486 10.8518 23.9094 10.9577C23.758 11.0729 23.6038 11.1889 23.4619 11.2957C23.4403 11.3119 23.419 11.3279 23.398 11.3437C23.0626 11.7054 22.7355 12.1844 22.3 12.822C22.1926 12.9793 22.0786 13.1463 21.9562 13.3236C21.4076 14.1182 20.9105 14.9658 20.4305 15.8606C21.3132 15.2987 22.1605 14.7552 23.0194 14.15C23.5253 13.7936 24.0857 13.4576 24.5664 13.1693C24.6548 13.1164 24.7404 13.065 24.8225 13.0155C25.1608 12.7156 25.5096 12.4179 25.8704 12.1215C26.0475 11.9761 26.4578 11.7006 26.715 11.5471C26.7852 11.5052 26.8969 11.4403 27.0191 11.382C27.0709 11.3573 27.1975 11.2981 27.3599 11.2498C27.4366 11.227 27.6032 11.1813 27.8188 11.167C27.9699 11.157 28.5337 11.129 29.1022 11.5148C29.8624 12.0308 30.035 12.8405 29.9945 13.371C29.9623 13.7924 29.8076 14.0928 29.7569 14.1883C29.6373 14.4134 29.4988 14.5714 29.4591 14.6167L29.4579 14.6181C29.3471 14.7445 29.2228 14.861 29.1299 14.9455C28.5178 15.5025 27.8504 15.9462 27.2563 16.3139C25.33 18.0602 23.7672 19.9172 22.1508 22.1893C21.4972 23.1079 20.2258 23.3207 19.3108 22.6645C19.0389 22.4695 18.8291 22.2198 18.6857 21.9409C17.8787 22.5446 17.1317 23.1719 16.4575 23.855C16.4543 23.8599 16.4508 23.8652 16.4472 23.8707C16.3923 23.9547 16.3272 24.0589 16.2527 24.1784L16.2415 24.1964C16.1823 24.2915 16.0969 24.4285 16.029 24.5276C16.0092 24.5566 15.974 24.6071 15.9305 24.6631C15.909 24.6908 15.8713 24.7382 15.8217 24.7929L15.8211 24.7936C15.7891 24.8289 15.6708 24.9596 15.4904 25.0887C15.4058 25.1493 15.1963 25.2915 14.8911 25.3834C14.5789 25.4774 13.9198 25.5836 13.2454 25.1711C12.5944 24.7729 12.3869 24.1678 12.3225 23.8945C12.2554 23.6094 12.2658 23.3771 12.2727 23.2781C12.2874 23.0678 12.3321 22.9066 12.3448 22.861C12.3641 22.7914 12.3836 22.735 12.3957 22.7011C12.6504 21.991 13.0355 21.273 13.3685 20.6837C13.3413 20.7048 13.314 20.7258 13.2867 20.7468C12.6731 21.2185 11.9056 21.7277 11.2059 22.1919C10.8269 22.4433 10.4679 22.6815 10.1639 22.8935C9.1693 23.5869 8.41631 24.2145 7.92571 24.8809C7.92436 24.8828 7.9225 24.8853 7.92015 24.8886C7.88403 24.9383 7.73204 25.1476 7.54218 25.3187C7.54109 25.3197 7.53971 25.321 7.53803 25.3225C7.49529 25.3615 7.26053 25.5757 6.89828 25.7147C6.7054 25.7887 6.21586 25.9442 5.61225 25.7721C4.89083 25.5665 4.47023 25.0355 4.2846 24.5842C4.12956 24.2072 4.12745 23.8813 4.13054 23.7513C4.1343 23.5932 4.15559 23.4677 4.16934 23.3979C4.19687 23.258 4.23326 23.1498 4.24925 23.1037C4.32425 22.8877 4.46823 22.612 4.52559 22.5021C4.53064 22.4925 4.53501 22.4841 4.53861 22.4771C4.56723 22.4219 4.59515 22.3684 4.62235 22.3162C4.68552 22.1951 4.74483 22.0813 4.80023 21.9712C4.84589 21.8804 4.86913 21.8302 4.87809 21.8112C5.30358 20.4686 6.05095 19.4746 6.77466 18.6818C6.91118 18.5323 7.05072 18.3859 7.1893 18.2441C7.10989 18.2787 7.0298 18.3129 6.94903 18.3466C6.9491 18.3466 6.93819 18.3512 6.9021 18.3671C6.89275 18.3713 6.88011 18.3769 6.86572 18.3832C6.83962 18.3948 6.80773 18.4089 6.77912 18.4215C6.68056 18.465 6.55194 18.5209 6.4072 18.5803C6.13291 18.6927 5.73847 18.8436 5.332 18.9444C5.12917 18.9947 4.86608 19.0473 4.57873 19.0619C4.323 19.0749 3.84957 19.0704 3.34886 18.8405C2.73833 18.5602 2.22961 18.0029 2.06453 17.2414C1.9293 16.6175 2.07494 16.0776 2.18641 15.7667C2.97261 13.5741 4.19773 11.7186 5.32594 10.0702C5.42967 9.9186 5.53242 9.76897 5.63409 9.62096ZM17.5337 10.8642C17.3794 11.0704 17.229 11.2798 17.0826 11.4918C17.3921 11.1829 17.7078 10.8737 18.0305 10.5667C17.863 10.6678 17.6972 10.7669 17.5337 10.8642ZM4.61824 22.4943C4.61857 22.4935 4.6257 22.484 4.63866 22.4682C4.62439 22.4872 4.61791 22.4951 4.61824 22.4943ZM16.5002 23.7925C16.5002 23.7927 16.4982 23.7955 16.4944 23.8005C16.4984 23.7949 16.5003 23.7923 16.5002 23.7925ZM19.4657 4.37944C19.4662 4.37933 19.4623 4.38685 19.4525 4.40234C19.4603 4.3873 19.4652 4.37955 19.4657 4.37944ZM6.0204 17.143C6.0194 17.1458 6.0184 17.1486 6.01739 17.1514L6.01778 17.1503C6.01831 17.1489 6.0192 17.1464 6.0204 17.143Z" fill="#D05278"/>
    <g clip-path="url(#clip0_0_1)">
        <path d="M25.45 9.52599C25.4493 9.52549 25.4488 9.52481 25.4483 9.52431L16.474 0.55037C16.0915 0.167679 15.5829 -0.0429688 15.0419 -0.0429688C14.501 -0.0429688 13.9924 0.167679 13.6097 0.55037L4.64013 9.51978C4.63711 9.5228 4.63392 9.52599 4.63107 9.52901C3.84554 10.3191 3.84688 11.6009 4.63493 12.389C4.99496 12.7492 5.4703 12.9576 5.97871 12.9796C5.99952 12.9816 6.02034 12.9826 6.04132 12.9826H6.39883V19.5867C6.39883 20.8938 7.46231 21.9571 8.76933 21.9571H12.2804C12.6364 21.9571 12.9249 21.6684 12.9249 21.3125V16.1348C12.9249 15.5384 13.4101 15.0534 14.0065 15.0534H16.0774C16.6738 15.0534 17.1588 15.5384 17.1588 16.1348V21.3125C17.1588 21.6684 17.4474 21.9571 17.8034 21.9571H21.3144C22.6216 21.9571 23.6849 20.8938 23.6849 19.5867V12.9826H24.0166C24.5574 12.9826 25.0659 12.772 25.4488 12.3891C26.2377 11.5999 26.238 10.3157 25.45 9.52599ZM24.5372 11.4777C24.3981 11.6169 24.2131 11.6936 24.0166 11.6936H23.0404C22.6844 11.6936 22.3958 11.9821 22.3958 12.3381V19.5867C22.3958 20.1829 21.9107 20.668 21.3144 20.668H18.4479V16.1348C18.4479 14.8278 17.3846 13.7643 16.0774 13.7643H14.0065C12.6993 13.7643 11.6358 14.8278 11.6358 16.1348V20.668H8.76933C8.17314 20.668 7.6879 20.1829 7.6879 19.5867V12.3381C7.6879 11.9821 7.39937 11.6936 7.04336 11.6936H6.08395C6.07388 11.6929 6.06398 11.6924 6.05374 11.6922C5.86172 11.6889 5.68162 11.6127 5.54667 11.4775C5.25965 11.1905 5.25965 10.7234 5.54667 10.4362C5.54684 10.4362 5.54684 10.4361 5.54701 10.4359L5.54751 10.4354L14.5215 1.46178C14.6604 1.32263 14.8452 1.2461 15.0419 1.2461C15.2385 1.2461 15.4233 1.32263 15.5624 1.46178L24.5344 10.4335C24.5357 10.4349 24.5372 10.4362 24.5386 10.4376C24.8241 10.7251 24.8236 11.1912 24.5372 11.4777Z" fill="#222222"/>
    </g>
    <defs>
        <clipPath id="clip0_0_1">
            <rect width="22" height="22" fill="white" transform="translate(4)"/>
        </clipPath>
    </defs>
</svg>
