<svg width="14" height="13" viewBox="0 0 14 13" fill="none" xmlns="http://www.w3.org/2000/svg">
    <g clip-path="url(#clip0_597_1236)">
        <path d="M12.1717 2.04903C11.8785 1.75568 11.5304 1.52297 11.1472 1.3642C10.764 1.20544 10.3533 1.12372 9.93857 1.12372C9.52381 1.12372 9.11311 1.20544 8.72994 1.3642C8.34676 1.52297 7.99863 1.75568 7.70541 2.04903L7.09689 2.65755L6.48837 2.04903C5.8961 1.45676 5.09281 1.12403 4.25521 1.12403C3.41761 1.12403 2.61432 1.45676 2.02205 2.04903C1.42978 2.6413 1.09705 3.44459 1.09705 4.28219C1.09705 5.11979 1.42978 5.92308 2.02205 6.51535L2.63057 7.12387L7.09689 11.5902L11.5632 7.12387L12.1717 6.51535C12.4651 6.22214 12.6978 5.874 12.8566 5.49082C13.0153 5.10765 13.097 4.69695 13.097 4.28219C13.097 3.86743 13.0153 3.45673 12.8566 3.07355C12.6978 2.69038 12.4651 2.34224 12.1717 2.04903Z" fill="#D05278" stroke="#D05278" stroke-width="1.2" stroke-linecap="round" stroke-linejoin="round"/>
    </g>
    <defs>
        <clipPath id="clip0_597_1236">
            <rect width="14" height="13" fill="white"/>
        </clipPath>
    </defs>
</svg>
