<svg width="120" height="120" viewBox="0 0 120 120" fill="none" xmlns="http://www.w3.org/2000/svg">
    <g filter="url(#filter0_d_311_2327)">
        <rect x="10" y="6" width="100" height="100" rx="50" fill="#D05278" fill-opacity="0.5"/>
        <path d="M91.9418 48.5169L78.1 34.4405H75.6774C74.1806 25.8289 63.2175 22.9702 57.8545 29.8212C50.8355 28.9605 44.4907 34.7022 44.5379 41.8984C44.5043 48.9535 50.5649 54.6225 57.4728 54.0136V84.2383H55.5094V55.9921H53.7771V71.0842H46.3857V76.6042H53.7771V78.6008H46.3857V84.1208H53.7771V86H59.2051V53.7382C63.0468 52.8277 66.1829 50.028 67.6111 46.3585C68.0447 46.2751 68.4702 46.1633 68.8853 46.0245C71.663 49.0467 76.7656 47.0229 76.7596 42.8379C76.7364 38.1927 70.7634 36.4854 68.348 40.3515C67.741 35.5133 64.3264 31.5545 59.8232 30.2232C64.3785 25.4745 72.6441 27.9697 73.9128 34.4405H68.502V36.2022H77.3825C77.3995 36.244 90.7494 49.749 90.7338 49.8042C90.7777 49.8466 79.0852 61.6388 79.0888 61.6711C78.9754 61.8066 67.814 50.1991 67.7286 50.2015L66.5037 51.4471L77.7822 62.9167C78.1311 63.2717 78.5896 63.4491 79.0479 63.4491C79.5063 63.4491 79.9647 63.2717 80.3137 62.9167L91.9418 51.0915C92.6359 50.4142 92.6366 49.1944 91.9418 48.5169ZM48.1179 74.8425V72.8459H53.777V74.8425H48.1179ZM48.1179 82.3591V80.3625H53.777V82.3591H48.1179ZM72.1976 45.7155C71.6241 45.7155 71.09 45.5411 70.6436 45.2417C72.2664 44.3236 73.6336 42.9553 74.5621 41.2591C75.8043 43.1112 74.4175 45.7481 72.1976 45.7155ZM72.1976 39.9605C72.5449 39.9605 72.8778 40.0245 73.1854 40.1415C72.3712 41.7581 71.0859 43.0392 69.5454 43.8411C68.8414 42.0202 70.2643 39.9214 72.1976 39.9605ZM66.7119 41.8984C66.7119 42.8886 66.575 43.8469 66.3194 44.7547C65.6466 44.8037 64.9469 44.7667 64.293 44.6503C66.1999 39.3556 62.0618 33.3945 56.4907 33.501C51.9375 33.5009 48.2333 37.268 48.2333 41.8984C48.2814 50.3755 59.2202 53.4096 63.5261 46.2914C64.2064 46.4459 64.9124 46.5304 65.6363 46.5371C60.8383 56.2073 46.3701 52.8835 46.27 41.8983C46.7837 28.1284 66.2001 28.1317 66.7119 41.8984ZM61.813 45.734C58.1928 50.9458 49.9859 48.3643 49.9659 41.8983C49.9659 38.5231 52.4568 35.7283 55.6673 35.3152C55.2291 39.8337 57.8973 44.089 61.813 45.734ZM57.3572 36.2609C57.3572 35.9489 57.3739 35.6369 57.4069 35.3278C61.3851 35.8056 64.0906 40.3131 62.623 44.1681C59.54 42.9107 57.3572 39.8401 57.3572 36.2609Z" fill="white"/>
        <path d="M77.5508 54.9341L78.8572 53.6055L80.082 54.8511L78.7756 56.1796L77.5508 54.9341Z" fill="white"/>
        <path d="M80.1641 52.2771L81.4705 50.9486L82.6953 52.1941L81.3888 53.5227L80.1641 52.2771Z" fill="white"/>
        <path d="M82.7773 49.6202L84.0838 48.2916L85.3085 49.5372L84.0021 50.8657L82.7773 49.6202Z" fill="white"/>
    </g>
    <defs>
        <filter id="filter0_d_311_2327" x="0" y="0" width="120" height="120" filterUnits="userSpaceOnUse" color-interpolation-filters="sRGB">
            <feFlood flood-opacity="0" result="BackgroundImageFix"/>
            <feColorMatrix in="SourceAlpha" type="matrix" values="0 0 0 0 0 0 0 0 0 0 0 0 0 0 0 0 0 0 127 0" result="hardAlpha"/>
            <feOffset dy="4"/>
            <feGaussianBlur stdDeviation="5"/>
            <feColorMatrix type="matrix" values="0 0 0 0 0.133333 0 0 0 0 0.133333 0 0 0 0 0.133333 0 0 0 0.15 0"/>
            <feBlend mode="normal" in2="BackgroundImageFix" result="effect1_dropShadow_311_2327"/>
            <feBlend mode="normal" in="SourceGraphic" in2="effect1_dropShadow_311_2327" result="shape"/>
        </filter>
    </defs>
</svg>
