<svg width="17" height="17" viewBox="0 0 17 17" fill="none" xmlns="http://www.w3.org/2000/svg">
    <path d="M0.833313 8.3335C0.833313 9.31841 1.02731 10.2937 1.40422 11.2036C1.78113 12.1136 2.33357 12.9404 3.03001 13.6368C3.72645 14.3332 4.55325 14.8857 5.46319 15.2626C6.37313 15.6395 7.3484 15.8335 8.33331 15.8335C9.31823 15.8335 10.2935 15.6395 11.2034 15.2626C12.1134 14.8857 12.9402 14.3332 13.6366 13.6368C14.3331 12.9404 14.8855 12.1136 15.2624 11.2036C15.6393 10.2937 15.8333 9.31841 15.8333 8.3335C15.8333 7.34858 15.6393 6.37331 15.2624 5.46337C14.8855 4.55343 14.3331 3.72663 13.6366 3.0302C12.9402 2.33376 12.1134 1.78131 11.2034 1.4044C10.2935 1.02749 9.31823 0.833496 8.33331 0.833496C7.3484 0.833496 6.37313 1.02749 5.46319 1.4044C4.55325 1.78131 3.72645 2.33376 3.03001 3.0302C2.33357 3.72663 1.78113 4.55343 1.40422 5.46337C1.02731 6.37331 0.833313 7.34858 0.833313 8.3335Z" stroke="black" stroke-width="1.66667" stroke-linecap="round" stroke-linejoin="round"/>
</svg>
