<svg width="20" height="20" viewBox="0 0 20 20" fill="none" xmlns="http://www.w3.org/2000/svg">
    <g clip-path="url(#clip0_30_1547)">
        <path d="M16.6667 10V18.3333H3.33337V10" stroke="#222222" stroke-width="1.5" stroke-linecap="round" stroke-linejoin="round"/>
        <path d="M18.3333 5.8335H1.66663V10.0002H18.3333V5.8335Z" stroke="#222222" stroke-width="1.5" stroke-linecap="round" stroke-linejoin="round"/>
        <path d="M10 18.3335V5.8335" stroke="#222222" stroke-width="1.5" stroke-linecap="round" stroke-linejoin="round"/>
        <path d="M9.99996 5.83317H6.24996C5.69743 5.83317 5.16752 5.61368 4.77682 5.22298C4.38612 4.83228 4.16663 4.30237 4.16663 3.74984C4.16663 3.1973 4.38612 2.6674 4.77682 2.2767C5.16752 1.886 5.69743 1.6665 6.24996 1.6665C9.16663 1.6665 9.99996 5.83317 9.99996 5.83317Z" stroke="#222222" stroke-width="1.5" stroke-linecap="round" stroke-linejoin="round"/>
        <path d="M10 5.83317H13.75C14.3025 5.83317 14.8324 5.61368 15.2231 5.22298C15.6138 4.83228 15.8333 4.30237 15.8333 3.74984C15.8333 3.1973 15.6138 2.6674 15.2231 2.2767C14.8324 1.886 14.3025 1.6665 13.75 1.6665C10.8333 1.6665 10 5.83317 10 5.83317Z" stroke="#222222" stroke-width="1.5" stroke-linecap="round" stroke-linejoin="round"/>
    </g>
    <defs>
        <clipPath id="clip0_30_1547">
            <rect width="20" height="20" fill="white"/>
        </clipPath>
    </defs>
</svg>
