<svg width="160" height="201" viewBox="0 0 160 201" fill="none" xmlns="http://www.w3.org/2000/svg">
<rect x="0.5" y="0.5" width="159" height="200" stroke="#EEEEEE"/>
<path opacity="0.1" fill-rule="evenodd" clip-rule="evenodd" d="M19.3902 29.0349C18.0739 30.0258 16.7844 31.0129 15.5191 32.0341C14.0586 33.213 11.9228 32.9799 10.7487 31.5135C9.57458 30.0472 9.80674 27.9029 11.2672 26.724C13.2093 25.1565 15.2246 23.6508 17.1799 22.1898C17.6832 21.8137 18.1825 21.4406 18.6756 21.0702C21.1175 19.2359 23.4499 17.4358 25.616 15.5027C26.4094 14.7946 27.3165 14.1087 28.2027 13.5393L28.2065 13.5368C28.3878 13.4202 29.4128 12.7612 30.8117 13.0919C32.6072 13.5164 33.1852 15.0279 33.322 15.5636C33.4626 16.1143 33.4275 16.5634 33.4168 16.6932C33.4012 16.8837 33.3727 17.0339 33.3559 17.1145C33.3027 17.3708 33.227 17.5784 33.2128 17.6175C33.2121 17.6193 33.2116 17.6208 33.2112 17.6219C33.1626 17.7565 33.1065 17.8907 33.0699 17.9767C32.9859 18.1745 32.8692 18.4358 32.74 18.7205C32.4771 19.2997 32.1154 20.0784 31.7434 20.8742C31.3587 21.6973 30.9668 22.5304 30.6475 23.209C30.3367 23.8698 30.0948 24.3841 29.9955 24.5999C28.5907 27.6534 26.7185 30.3733 25.0427 32.8079C24.8487 33.0898 24.6573 33.3678 24.4696 33.6421C24.356 33.8081 24.2435 33.973 24.1321 34.137C24.9944 33.423 25.8385 32.627 26.7009 31.7415C29.1529 29.2237 32.083 27.4351 34.6626 25.8998C36.8963 23.1255 39.5552 20.6056 42.5565 18.7899C42.9071 18.5779 43.2808 18.3745 43.6631 18.2143C43.984 18.0799 44.5997 17.8493 45.3522 17.8446C46.2253 17.8391 47.742 18.192 48.5602 19.7505C49.1798 20.9307 48.9431 22.0396 48.8628 22.3737C48.6657 23.1937 48.2318 23.8763 47.9991 24.2187C47.884 24.388 47.7591 24.5583 47.6273 24.7253C47.7966 24.6844 48.0376 24.6401 48.3203 24.631C48.5571 24.6234 50.4049 24.5822 51.4002 26.3865C52.2386 27.9066 51.5955 29.2886 51.5219 29.4467C51.5201 29.4507 51.5186 29.4539 51.5175 29.4563C51.3547 29.8139 51.1665 30.0596 51.1039 30.1402C51.0174 30.2516 50.9408 30.336 50.8959 30.3841C50.7502 30.54 50.6102 30.6598 50.5723 30.6922L50.5688 30.6952C50.3774 30.8592 50.0809 31.0863 49.8491 31.2628C49.5967 31.4549 49.3397 31.6481 49.1031 31.8261C49.0671 31.8532 49.0316 31.8799 48.9967 31.9062C48.4376 32.5091 47.8924 33.3074 47.1667 34.3701C46.9876 34.6322 46.7976 34.9105 46.5936 35.2059C45.6793 36.5303 44.8508 37.9431 44.0508 39.4343C45.5219 38.4978 46.9342 37.5919 48.3656 36.5834C49.2088 35.9893 50.1429 35.4293 50.9441 34.9489C51.0913 34.8606 51.2339 34.7751 51.3708 34.6925C51.9347 34.1927 52.516 33.6965 53.1174 33.2025C53.4124 32.9601 54.0963 32.5009 54.5249 32.2452C54.642 32.1754 54.8282 32.0672 55.0318 31.9701C55.1181 31.9289 55.3291 31.8302 55.5999 31.7497C55.7277 31.7117 56.0053 31.6356 56.3647 31.6117C56.6165 31.5951 57.5561 31.5483 58.5036 32.1913C59.7708 33.0514 60.0584 34.4008 59.9908 35.2851C59.9372 35.9873 59.6793 36.488 59.5948 36.6472C59.3955 37.0223 59.1647 37.2857 59.0986 37.3611L59.0965 37.3635C58.9119 37.5742 58.7047 37.7683 58.5499 37.9092C57.5296 38.8375 56.4174 39.577 55.4271 40.1899C52.2167 43.1003 49.612 46.1954 46.9179 49.9822C45.8287 51.5132 43.7096 51.8678 42.1847 50.7742C41.7316 50.4492 41.3819 50.0329 41.1428 49.5681C39.7979 50.5744 38.5528 51.6199 37.4292 52.7583C37.4238 52.7665 37.418 52.7753 37.4119 52.7846C37.3204 52.9244 37.212 53.0982 37.0879 53.2974L37.0692 53.3274C36.9705 53.4858 36.8281 53.7142 36.715 53.8794C36.682 53.9276 36.6234 54.0118 36.5508 54.1053C36.5151 54.1513 36.4522 54.2303 36.3696 54.3215L36.3686 54.3227C36.3152 54.3815 36.118 54.5993 35.8173 54.8145C35.6763 54.9154 35.3271 55.1526 34.8186 55.3057C34.2982 55.4624 33.1996 55.6393 32.0757 54.9518C30.9907 54.2881 30.6449 53.2797 30.5375 52.8242C30.4256 52.349 30.443 51.9618 30.4545 51.7969C30.479 51.4463 30.5535 51.1777 30.5747 51.1017C30.6069 50.9857 30.6393 50.8917 30.6596 50.8352C31.0839 49.6517 31.7259 48.4551 32.2809 47.4728C32.2355 47.508 32.19 47.5431 32.1445 47.5781C31.1218 48.3641 29.8426 49.2128 28.6765 49.9865C28.0449 50.4055 27.4465 50.8026 26.9399 51.1558C25.2822 52.3115 24.0272 53.3575 23.2095 54.4682C23.2073 54.4713 23.2042 54.4756 23.2003 54.4809C23.14 54.5638 22.8867 54.9126 22.5703 55.1979C22.5685 55.1995 22.5662 55.2016 22.5634 55.2042C22.4921 55.2692 22.1009 55.6261 21.4971 55.8578C21.1757 55.9812 20.3598 56.2403 19.3537 55.9536C18.1514 55.6109 17.4504 54.7258 17.141 53.9736C16.8826 53.3453 16.8791 52.8022 16.8842 52.5856C16.8905 52.322 16.926 52.1128 16.9489 51.9964C16.9948 51.7634 17.0554 51.583 17.0821 51.5062C17.2071 51.1462 17.447 50.6866 17.5427 50.5035C17.5511 50.4874 17.5584 50.4735 17.5644 50.4619C17.6121 50.3699 17.6586 50.2807 17.7039 50.1937C17.8092 49.9918 17.9081 49.8022 18.0004 49.6186C18.0765 49.4674 18.1152 49.3837 18.1301 49.352C18.8393 47.1143 20.0849 45.4577 21.2911 44.1364C21.5186 43.8872 21.7512 43.6432 21.9822 43.4068C21.8498 43.4646 21.7163 43.5215 21.5817 43.5777C21.5818 43.5776 21.5636 43.5854 21.5035 43.6119C21.4879 43.6188 21.4669 43.6281 21.4429 43.6388C21.3994 43.658 21.3462 43.6816 21.2985 43.7026C21.1343 43.7749 20.9199 43.8682 20.6787 43.9671C20.2215 44.1545 19.5641 44.4059 18.8867 44.574C18.5486 44.6579 18.1101 44.7455 17.6312 44.7698C17.205 44.7915 16.416 44.784 15.5814 44.4009C14.5639 43.9337 13.716 43.0049 13.4409 41.7356C13.2155 40.6958 13.4582 39.796 13.644 39.2779C14.9543 35.6235 16.9962 32.5311 18.8766 29.7836C19.0494 29.531 19.2207 29.2816 19.3902 29.0349ZM39.2228 31.107C38.9657 31.4507 38.715 31.7997 38.4709 32.153C38.9869 31.6381 39.513 31.1229 40.0509 30.6112C39.7717 30.7797 39.4953 30.9448 39.2228 31.107ZM17.6971 50.4905C17.6976 50.4892 17.7095 50.4733 17.7311 50.447C17.7073 50.4787 17.6965 50.4919 17.6971 50.4905ZM37.5004 52.6542C37.5003 52.6545 37.497 52.6591 37.4908 52.6675C37.4974 52.6581 37.5005 52.6539 37.5004 52.6542ZM42.4428 20.2991C42.4437 20.2989 42.4372 20.3114 42.4208 20.3372C42.4338 20.3122 42.442 20.2992 42.4428 20.2991ZM20.034 41.5717C20.0323 41.5763 20.0307 41.581 20.029 41.5857L20.0296 41.5839C20.0305 41.5815 20.032 41.5774 20.034 41.5717Z" fill="#D05278"/>
<path d="M45.7471 24.2577C44.9347 23.445 44.459 22.3556 44.4152 21.2073C44.3713 20.059 44.7626 18.9366 45.5107 18.0643C45.5726 17.9918 45.6048 17.8985 45.6008 17.8033C45.5968 17.708 45.557 17.6178 45.4893 17.5507L41.1797 13.2362C41.1084 13.165 41.0119 13.125 40.9111 13.125C40.8104 13.125 40.7138 13.165 40.6426 13.2362L33.7734 20.1053C33.52 20.3587 33.3291 20.6677 33.2158 21.0077C33.103 21.3485 32.9123 21.6583 32.6589 21.9126C32.4055 22.1668 32.0963 22.3586 31.7559 22.4725C31.4156 22.5859 31.1064 22.7768 30.8525 23.0301L13.2363 40.6425C13.1651 40.7137 13.1251 40.8103 13.1251 40.911C13.1251 41.0117 13.1651 41.1083 13.2363 41.1796L17.5459 45.4891C17.613 45.5569 17.7033 45.5967 17.7985 45.6007C17.8938 45.6047 17.987 45.5725 18.0596 45.5106C18.9316 44.7617 20.0543 44.3698 21.203 44.4133C22.3517 44.4569 23.4415 44.9327 24.2543 45.7455C25.0672 46.5584 25.543 47.6482 25.5865 48.7969C25.6301 49.9455 25.2382 51.0683 24.4893 51.9403C24.4274 52.0128 24.3952 52.1061 24.3992 52.2014C24.4032 52.2966 24.443 52.3869 24.5107 52.454L28.8203 56.7635C28.8915 56.8348 28.9881 56.8748 29.0889 56.8748C29.1896 56.8748 29.2862 56.8348 29.3574 56.7635L46.9746 39.1473C47.228 38.8935 47.4188 38.5843 47.5322 38.244C47.6451 37.9032 47.8357 37.5934 48.0892 37.3391C48.3426 37.0849 48.6518 36.8931 48.9922 36.7792C49.3322 36.6659 49.6412 36.475 49.8945 36.2216L56.7637 29.3524C56.8349 29.2812 56.8749 29.1846 56.8749 29.0839C56.8749 28.9831 56.8349 28.8865 56.7637 28.8153L52.4541 24.5057C52.387 24.438 52.2967 24.3982 52.2015 24.3942C52.1062 24.3902 52.013 24.4224 51.9404 24.4843C51.0694 25.2336 49.9476 25.6266 48.7994 25.5846C47.6511 25.5426 46.561 25.0687 45.7471 24.2577V24.2577Z" stroke="#D05278" stroke-width="2" stroke-miterlimit="10"/>
<path d="M26.96 34.1359C26.96 33.8692 27.0027 33.5866 27.088 33.2879C27.1733 32.9892 27.312 32.7172 27.504 32.4719C27.696 32.2266 27.936 32.0239 28.224 31.8639C28.5227 31.6932 28.88 31.6079 29.296 31.6079C29.712 31.6079 30.0693 31.6932 30.368 31.8639C30.6667 32.0239 30.912 32.2266 31.104 32.4719C31.296 32.7172 31.4347 32.9892 31.52 33.2879C31.6053 33.5866 31.648 33.8692 31.648 34.1359C31.648 34.4772 31.5893 34.8079 31.472 35.1279C31.3653 35.4372 31.2053 35.7092 30.992 35.9439C30.7893 36.1786 30.544 36.3652 30.256 36.5039C29.968 36.6426 29.648 36.7119 29.296 36.7119C28.944 36.7119 28.624 36.6426 28.336 36.5039C28.048 36.3652 27.8027 36.1786 27.6 35.9439C27.3973 35.7092 27.2373 35.4372 27.12 35.1279C27.0133 34.8079 26.96 34.4772 26.96 34.1359ZM28 34.1359C28 34.5199 28.0427 34.8452 28.128 35.1119C28.2133 35.3679 28.32 35.5759 28.448 35.7359C28.576 35.8959 28.7147 36.0132 28.864 36.0879C29.024 36.1519 29.168 36.1839 29.296 36.1839C29.4347 36.1839 29.5787 36.1519 29.728 36.0879C29.8773 36.0132 30.016 35.8959 30.144 35.7359C30.272 35.5759 30.3787 35.3679 30.464 35.1119C30.5493 34.8452 30.592 34.5199 30.592 34.1359C30.592 33.9119 30.5707 33.6826 30.528 33.4479C30.4853 33.2132 30.416 32.9999 30.32 32.8079C30.224 32.6159 30.0907 32.4612 29.92 32.3439C29.76 32.2159 29.552 32.1519 29.296 32.1519C29.0507 32.1519 28.8427 32.2159 28.672 32.3439C28.512 32.4612 28.3787 32.6159 28.272 32.8079C28.176 32.9999 28.1067 33.2132 28.064 33.4479C28.0213 33.6826 28 33.9119 28 34.1359ZM32.208 40.6639C32.208 40.3866 32.2507 40.0986 32.336 39.7999C32.4213 39.4906 32.56 39.2132 32.752 38.9679C32.944 38.7119 33.1893 38.5039 33.488 38.3439C33.7867 38.1839 34.144 38.1039 34.56 38.1039C34.976 38.1039 35.3333 38.1839 35.632 38.3439C35.9307 38.5039 36.176 38.7119 36.368 38.9679C36.56 39.2132 36.6987 39.4906 36.784 39.7999C36.8693 40.0986 36.912 40.3866 36.912 40.6639C36.912 40.9946 36.8533 41.3146 36.736 41.6239C36.6293 41.9226 36.4693 42.1892 36.256 42.4239C36.0533 42.6479 35.808 42.8292 35.52 42.9679C35.232 43.1066 34.912 43.1759 34.56 43.1759C34.208 43.1759 33.888 43.1066 33.6 42.9679C33.312 42.8292 33.0613 42.6479 32.848 42.4239C32.6453 42.1892 32.4853 41.9226 32.368 41.6239C32.2613 41.3146 32.208 40.9946 32.208 40.6639ZM33.264 40.6639C33.264 41.0479 33.3067 41.3679 33.392 41.6239C33.4773 41.8799 33.584 42.0879 33.712 42.2479C33.8507 42.4079 33.9947 42.5199 34.144 42.5839C34.2933 42.6479 34.432 42.6799 34.56 42.6799C34.688 42.6799 34.8267 42.6479 34.976 42.5839C35.136 42.5199 35.28 42.4079 35.408 42.2479C35.536 42.0879 35.6427 41.8799 35.728 41.6239C35.8133 41.3679 35.856 41.0479 35.856 40.6639C35.856 40.4292 35.8347 40.1892 35.792 39.9439C35.76 39.6986 35.6907 39.4799 35.584 39.2879C35.488 39.0959 35.3547 38.9412 35.184 38.8239C35.024 38.6959 34.816 38.6319 34.56 38.6319C34.3147 38.6319 34.1067 38.6959 33.936 38.8239C33.776 38.9412 33.6427 39.0959 33.536 39.2879C33.44 39.4799 33.3707 39.6986 33.328 39.9439C33.2853 40.1892 33.264 40.4292 33.264 40.6639ZM35.52 31.6079L29.328 43.1919H28.384L34.544 31.6079H35.52Z" fill="#D05278"/>
<path d="M34.4629 23.7148L32.8506 22.1025M38.7617 28.0137L37.6865 26.9395M43.0605 32.3135L41.9863 31.2383M47.8975 37.1494L46.2852 35.5371" stroke="#D05278" stroke-width="2" stroke-miterlimit="10" stroke-linecap="round"/>
<path d="M18.144 85.704L19.68 89H21.232L16.016 77.8H15.216L10.48 89H11.216L12.624 85.704H18.144ZM17.808 84.984H12.928L15.232 79.592H15.296L17.808 84.984ZM27.0148 88.36C26.6308 88.36 26.2574 88.3013 25.8948 88.184C25.5428 88.0667 25.2281 87.88 24.9508 87.624C24.6734 87.3573 24.4494 87.0107 24.2788 86.584C24.1188 86.1467 24.0388 85.6133 24.0388 84.984C24.0388 84.3333 24.1294 83.784 24.3108 83.336C24.4921 82.8773 24.7161 82.5147 24.9828 82.248C25.2601 81.9707 25.5641 81.7733 25.8948 81.656C26.2254 81.528 26.5401 81.464 26.8388 81.464C27.3294 81.464 27.7561 81.592 28.1188 81.848C28.4814 82.104 28.7214 82.4187 28.8388 82.792H29.9427C29.8361 82.408 29.6654 82.0933 29.4308 81.848C29.1961 81.592 28.9241 81.3893 28.6148 81.24C28.3161 81.08 27.9908 80.9733 27.6388 80.92C27.2974 80.856 26.9668 80.824 26.6468 80.824C25.9748 80.824 25.3828 80.936 24.8708 81.16C24.3588 81.3733 23.9268 81.6667 23.5748 82.04C23.2228 82.4133 22.9561 82.8507 22.7747 83.352C22.6041 83.8533 22.5188 84.3867 22.5188 84.952C22.5188 85.5493 22.6148 86.1093 22.8068 86.632C22.9988 87.144 23.2708 87.592 23.6228 87.976C23.9854 88.3493 24.4174 88.648 24.9188 88.872C25.4201 89.0853 25.9854 89.192 26.6148 89.192C27.3188 89.192 27.9321 89.0747 28.4548 88.84C28.9881 88.6053 29.4361 88.3493 29.7987 88.072L29.3348 87.464C28.9614 87.7733 28.5881 88.0027 28.2148 88.152C27.8521 88.2907 27.4521 88.36 27.0148 88.36ZM33.0619 89V84.44C33.0619 84.248 33.0779 83.9973 33.1099 83.688C33.1419 83.368 33.2219 83.0587 33.3499 82.76C33.4885 82.4507 33.6965 82.1893 33.9739 81.976C34.2512 81.752 34.6405 81.64 35.1419 81.64C35.5045 81.64 35.7819 81.72 35.9739 81.88C36.1765 82.04 36.3259 82.2373 36.4219 82.472C36.5179 82.7067 36.5712 82.952 36.5819 83.208C36.6032 83.464 36.6139 83.688 36.6139 83.88V89H37.9739V84.44C37.9739 84.2053 37.9952 83.928 38.0379 83.608C38.0805 83.2773 38.1712 82.968 38.3099 82.68C38.4485 82.392 38.6459 82.1467 38.9019 81.944C39.1685 81.7413 39.5259 81.64 39.9739 81.64C40.3045 81.64 40.5712 81.688 40.7739 81.784C40.9765 81.88 41.1312 82.024 41.2379 82.216C41.3552 82.408 41.4299 82.6427 41.4619 82.92C41.5045 83.1973 41.5259 83.5173 41.5259 83.88V89H42.8859V83.416C42.8859 83.1707 42.8592 82.8987 42.8059 82.6C42.7525 82.2907 42.6352 82.008 42.4539 81.752C42.2832 81.4853 42.0272 81.2667 41.6859 81.096C41.3552 80.9147 40.9125 80.824 40.3579 80.824C40.1979 80.824 40.0112 80.84 39.7979 80.872C39.5845 80.904 39.3605 80.9733 39.1259 81.08C38.8912 81.1867 38.6619 81.3413 38.4379 81.544C38.2245 81.7467 38.0379 82.0133 37.8779 82.344H37.7659C37.7019 82.1733 37.6112 82.0027 37.4939 81.832C37.3765 81.6507 37.2272 81.4853 37.0459 81.336C36.8645 81.1867 36.6459 81.064 36.3899 80.968C36.1445 80.872 35.8459 80.824 35.4939 80.824C35.3339 80.824 35.1419 80.8453 34.9179 80.888C34.6939 80.92 34.4699 80.9893 34.2459 81.096C34.0219 81.2027 33.8085 81.352 33.6059 81.544C33.4139 81.736 33.2539 81.9867 33.1259 82.296H33.0619V81H31.7019V89H33.0619ZM52.5559 85.352V85.016C52.5559 84.3013 52.4545 83.6827 52.2519 83.16C52.0492 82.6373 51.7719 82.2053 51.4199 81.864C51.0785 81.5227 50.6785 81.2667 50.2199 81.096C49.7612 80.9253 49.2759 80.84 48.7639 80.84C48.2199 80.84 47.7185 80.936 47.2599 81.128C46.8012 81.3093 46.4012 81.5813 46.0599 81.944C45.7185 82.296 45.4519 82.728 45.2599 83.24C45.0679 83.7413 44.9719 84.312 44.9719 84.952C44.9719 85.4853 45.0519 86.008 45.2119 86.52C45.3825 87.0213 45.6332 87.4747 45.9639 87.88C46.3052 88.2747 46.7319 88.5947 47.2439 88.84C47.7665 89.0747 48.3799 89.192 49.0839 89.192C49.7665 89.192 50.3959 89.0747 50.9719 88.84C51.5479 88.5947 52.0492 88.248 52.4759 87.8L51.9639 87.288C51.7399 87.48 51.5265 87.656 51.3239 87.816C51.1319 87.976 50.9345 88.1093 50.7319 88.216C50.5292 88.3227 50.3159 88.408 50.0919 88.472C49.8785 88.5253 49.6385 88.552 49.3719 88.552C49.0732 88.552 48.7532 88.5093 48.4119 88.424C48.0812 88.328 47.7719 88.1627 47.4839 87.928C47.1959 87.6933 46.9559 87.368 46.7639 86.952C46.5719 86.536 46.4759 86.0027 46.4759 85.352H52.5559ZM46.4759 84.712C46.4759 84.2853 46.5185 83.8747 46.6039 83.48C46.6999 83.0747 46.8385 82.7173 47.0199 82.408C47.2119 82.0987 47.4519 81.8533 47.7399 81.672C48.0279 81.48 48.3692 81.384 48.7639 81.384C49.5212 81.384 50.1079 81.6827 50.5239 82.28C50.9505 82.8667 51.1639 83.6773 51.1639 84.712H46.4759ZM70.2971 86.936C69.2091 87.96 67.9185 88.472 66.4251 88.472C65.5931 88.472 64.8571 88.328 64.2171 88.04C63.5771 87.752 63.0438 87.368 62.6171 86.888C62.1905 86.408 61.8651 85.8533 61.6411 85.224C61.4278 84.5947 61.3211 83.9387 61.3211 83.256C61.3211 82.5307 61.4331 81.8693 61.6571 81.272C61.8918 80.664 62.2171 80.1413 62.6331 79.704C63.0491 79.2667 63.5398 78.9253 64.1051 78.68C64.6811 78.4347 65.3051 78.312 65.9771 78.312C66.4358 78.312 66.8518 78.3653 67.2251 78.472C67.6091 78.5787 67.9451 78.7173 68.2331 78.888C68.5318 79.0587 68.7718 79.256 68.9531 79.48C69.1451 79.6933 69.2785 79.912 69.3531 80.136H70.5371C70.3771 79.7733 70.1691 79.4373 69.9131 79.128C69.6678 78.8187 69.3585 78.552 68.9851 78.328C68.6118 78.104 68.1745 77.928 67.6731 77.8C67.1718 77.672 66.6011 77.608 65.9611 77.608C65.0331 77.608 64.1851 77.7413 63.4171 78.008C62.6598 78.2747 62.0091 78.6587 61.4651 79.16C60.9211 79.6507 60.4998 80.248 60.2011 80.952C59.9025 81.6453 59.7531 82.424 59.7531 83.288C59.7531 84.0347 59.8705 84.7653 60.1051 85.48C60.3505 86.184 60.7238 86.8133 61.2251 87.368C61.7265 87.912 62.3665 88.3547 63.1451 88.696C63.9238 89.0267 64.8518 89.192 65.9291 89.192C66.6118 89.192 67.2198 89.128 67.7531 89C68.2971 88.872 68.7665 88.7173 69.1611 88.536C69.5665 88.344 69.9025 88.1413 70.1691 87.928C70.4358 87.7147 70.6385 87.528 70.7771 87.368L70.2971 86.936ZM80.1818 85.016C80.1818 85.5707 80.0858 86.104 79.8938 86.616C79.7018 87.1173 79.4244 87.56 79.0618 87.944C78.7098 88.328 78.2778 88.632 77.7658 88.856C77.2644 89.08 76.6991 89.192 76.0698 89.192C75.4298 89.192 74.8484 89.08 74.3258 88.856C73.8138 88.6213 73.3764 88.312 73.0138 87.928C72.6618 87.544 72.3844 87.1013 72.1818 86.6C71.9898 86.088 71.8938 85.56 71.8938 85.016C71.8938 84.4613 71.9898 83.9333 72.1818 83.432C72.3844 82.92 72.6618 82.472 73.0138 82.088C73.3764 81.704 73.8138 81.4 74.3258 81.176C74.8484 80.9413 75.4298 80.824 76.0698 80.824C76.6991 80.824 77.2644 80.9413 77.7658 81.176C78.2778 81.4 78.7098 81.704 79.0618 82.088C79.4244 82.472 79.7018 82.92 79.8938 83.432C80.0858 83.9333 80.1818 84.4613 80.1818 85.016ZM78.6618 85.016C78.6618 84.2693 78.5818 83.6667 78.4218 83.208C78.2618 82.7387 78.0538 82.376 77.7978 82.12C77.5418 81.864 77.2591 81.6933 76.9498 81.608C76.6404 81.512 76.3418 81.464 76.0538 81.464C75.7658 81.464 75.4671 81.512 75.1578 81.608C74.8484 81.6933 74.5604 81.864 74.2938 82.12C74.0378 82.376 73.8244 82.7387 73.6538 83.208C73.4938 83.6667 73.4138 84.2693 73.4138 85.016C73.4138 85.752 73.4938 86.3547 73.6538 86.824C73.8244 87.2827 74.0378 87.64 74.2938 87.896C74.5604 88.152 74.8484 88.328 75.1578 88.424C75.4671 88.5093 75.7658 88.552 76.0538 88.552C76.3418 88.552 76.6404 88.5093 76.9498 88.424C77.2591 88.328 77.5418 88.152 77.7978 87.896C78.0538 87.64 78.2618 87.2827 78.4218 86.824C78.5818 86.3547 78.6618 85.752 78.6618 85.016ZM82.2644 88.312C82.2644 88.0773 82.3497 87.8747 82.5204 87.704C82.691 87.5333 82.8937 87.448 83.1284 87.448C83.363 87.448 83.5657 87.5333 83.7364 87.704C83.907 87.8747 83.9924 88.0773 83.9924 88.312C83.9924 88.5467 83.907 88.7493 83.7364 88.92C83.5657 89.0907 83.363 89.176 83.1284 89.176C82.8937 89.176 82.691 89.0907 82.5204 88.92C82.3497 88.7493 82.2644 88.5467 82.2644 88.312Z" fill="#222222"/>
<path d="M12.896 107.864C13.4933 107.736 14.0427 107.672 14.544 107.672C15.1413 107.672 15.6693 107.76 16.128 107.936C16.5867 108.112 16.968 108.355 17.272 108.664C17.5813 108.973 17.8133 109.339 17.968 109.76C18.128 110.181 18.208 110.64 18.208 111.136C18.208 111.744 18.1013 112.293 17.888 112.784C17.68 113.275 17.3893 113.696 17.016 114.048C16.648 114.395 16.2133 114.661 15.712 114.848C15.2107 115.035 14.6693 115.128 14.088 115.128C13.752 115.128 13.4293 115.093 13.12 115.024C12.8107 114.96 12.52 114.872 12.248 114.76C11.9813 114.648 11.7333 114.52 11.504 114.376C11.2747 114.232 11.072 114.08 10.896 113.92L11.336 113.312C11.432 113.173 11.5573 113.104 11.712 113.104C11.8187 113.104 11.9387 113.147 12.072 113.232C12.2053 113.312 12.368 113.403 12.56 113.504C12.752 113.605 12.976 113.699 13.232 113.784C13.4933 113.864 13.8027 113.904 14.16 113.904C14.56 113.904 14.92 113.84 15.24 113.712C15.56 113.584 15.8347 113.403 16.064 113.168C16.2933 112.928 16.4693 112.643 16.592 112.312C16.7147 111.981 16.776 111.611 16.776 111.2C16.776 110.843 16.7227 110.52 16.616 110.232C16.5147 109.944 16.3573 109.699 16.144 109.496C15.936 109.293 15.6747 109.136 15.36 109.024C15.0453 108.912 14.6773 108.856 14.256 108.856C13.968 108.856 13.6667 108.88 13.352 108.928C13.0427 108.976 12.7253 109.053 12.4 109.16L11.504 108.896L12.424 103.536H17.856V104.16C17.856 104.363 17.792 104.531 17.664 104.664C17.5413 104.792 17.328 104.856 17.024 104.856H13.424L12.896 107.864ZM28.0813 109.272C28.0813 110.275 27.9719 111.144 27.7533 111.88C27.5399 112.611 27.2466 113.216 26.8733 113.696C26.4999 114.176 26.0573 114.533 25.5453 114.768C25.0386 115.003 24.4946 115.12 23.9133 115.12C23.3266 115.12 22.7799 115.003 22.2733 114.768C21.7719 114.533 21.3346 114.176 20.9613 113.696C20.5879 113.216 20.2946 112.611 20.0813 111.88C19.8679 111.144 19.7613 110.275 19.7613 109.272C19.7613 108.269 19.8679 107.4 20.0813 106.664C20.2946 105.928 20.5879 105.32 20.9613 104.84C21.3346 104.355 21.7719 103.995 22.2733 103.76C22.7799 103.525 23.3266 103.408 23.9133 103.408C24.4946 103.408 25.0386 103.525 25.5453 103.76C26.0573 103.995 26.4999 104.355 26.8733 104.84C27.2466 105.32 27.5399 105.928 27.7533 106.664C27.9719 107.4 28.0813 108.269 28.0813 109.272ZM26.6013 109.272C26.6013 108.397 26.5266 107.664 26.3773 107.072C26.2333 106.475 26.0359 105.995 25.7853 105.632C25.5399 105.269 25.2546 105.011 24.9293 104.856C24.6039 104.696 24.2653 104.616 23.9133 104.616C23.5613 104.616 23.2226 104.696 22.8973 104.856C22.5719 105.011 22.2866 105.269 22.0413 105.632C21.7959 105.995 21.5986 106.475 21.4493 107.072C21.3053 107.664 21.2333 108.397 21.2333 109.272C21.2333 110.147 21.3053 110.88 21.4493 111.472C21.5986 112.064 21.7959 112.541 22.0413 112.904C22.2866 113.267 22.5719 113.528 22.8973 113.688C23.2226 113.843 23.5613 113.92 23.9133 113.92C24.2653 113.92 24.6039 113.843 24.9293 113.688C25.2546 113.528 25.5399 113.267 25.7853 112.904C26.0359 112.541 26.2333 112.064 26.3773 111.472C26.5266 110.88 26.6013 110.147 26.6013 109.272ZM34.3385 106.304C34.3385 106.752 34.2692 107.155 34.1305 107.512C33.9918 107.864 33.8052 108.163 33.5705 108.408C33.3412 108.648 33.0718 108.832 32.7625 108.96C32.4585 109.088 32.1358 109.152 31.7945 109.152C31.4372 109.152 31.1038 109.088 30.7945 108.96C30.4852 108.832 30.2158 108.648 29.9865 108.408C29.7625 108.163 29.5865 107.864 29.4585 107.512C29.3305 107.155 29.2665 106.752 29.2665 106.304C29.2665 105.845 29.3305 105.437 29.4585 105.08C29.5865 104.723 29.7625 104.421 29.9865 104.176C30.2158 103.931 30.4852 103.744 30.7945 103.616C31.1038 103.488 31.4372 103.424 31.7945 103.424C32.1572 103.424 32.4932 103.488 32.8025 103.616C33.1118 103.744 33.3812 103.931 33.6105 104.176C33.8398 104.421 34.0185 104.723 34.1465 105.08C34.2745 105.437 34.3385 105.845 34.3385 106.304ZM33.2345 106.304C33.2345 105.952 33.1972 105.653 33.1225 105.408C33.0478 105.163 32.9438 104.963 32.8105 104.808C32.6825 104.648 32.5305 104.533 32.3545 104.464C32.1785 104.395 31.9918 104.36 31.7945 104.36C31.5972 104.36 31.4132 104.395 31.2425 104.464C31.0718 104.533 30.9225 104.648 30.7945 104.808C30.6665 104.963 30.5652 105.163 30.4905 105.408C30.4158 105.653 30.3785 105.952 30.3785 106.304C30.3785 106.651 30.4158 106.947 30.4905 107.192C30.5652 107.432 30.6665 107.629 30.7945 107.784C30.9225 107.933 31.0718 108.043 31.2425 108.112C31.4132 108.176 31.5972 108.208 31.7945 108.208C31.9918 108.208 32.1785 108.176 32.3545 108.112C32.5305 108.043 32.6825 107.933 32.8105 107.784C32.9438 107.629 33.0478 107.432 33.1225 107.192C33.1972 106.947 33.2345 106.651 33.2345 106.304ZM38.3945 103.776C38.4478 103.712 38.5092 103.656 38.5785 103.608C38.6532 103.56 38.7518 103.536 38.8745 103.536H39.9065L31.5225 114.768C31.4745 114.837 31.4132 114.893 31.3385 114.936C31.2638 114.979 31.1732 115 31.0665 115H30.0185L38.3945 103.776ZM40.6825 112.296C40.6825 112.744 40.6132 113.144 40.4745 113.496C40.3358 113.848 40.1492 114.147 39.9145 114.392C39.6852 114.632 39.4158 114.816 39.1065 114.944C38.8025 115.072 38.4798 115.136 38.1385 115.136C37.7758 115.136 37.4398 115.072 37.1305 114.944C36.8265 114.816 36.5598 114.632 36.3305 114.392C36.1065 114.147 35.9305 113.848 35.8025 113.496C35.6745 113.144 35.6105 112.744 35.6105 112.296C35.6105 111.837 35.6745 111.429 35.8025 111.072C35.9305 110.709 36.1065 110.405 36.3305 110.16C36.5598 109.915 36.8265 109.728 37.1305 109.6C37.4398 109.472 37.7758 109.408 38.1385 109.408C38.4958 109.408 38.8292 109.472 39.1385 109.6C39.4532 109.728 39.7225 109.915 39.9465 110.16C40.1758 110.405 40.3545 110.709 40.4825 111.072C40.6158 111.429 40.6825 111.837 40.6825 112.296ZM39.5785 112.296C39.5785 111.944 39.5412 111.645 39.4665 111.4C39.3918 111.149 39.2878 110.947 39.1545 110.792C39.0265 110.637 38.8745 110.525 38.6985 110.456C38.5225 110.387 38.3358 110.352 38.1385 110.352C37.9412 110.352 37.7545 110.387 37.5785 110.456C37.4078 110.525 37.2585 110.637 37.1305 110.792C37.0025 110.947 36.9012 111.149 36.8265 111.4C36.7572 111.645 36.7225 111.944 36.7225 112.296C36.7225 112.643 36.7572 112.936 36.8265 113.176C36.9012 113.416 37.0025 113.613 37.1305 113.768C37.2585 113.917 37.4078 114.027 37.5785 114.096C37.7545 114.16 37.9412 114.192 38.1385 114.192C38.3358 114.192 38.5225 114.16 38.6985 114.096C38.8745 114.027 39.0265 113.917 39.1545 113.768C39.2878 113.613 39.3918 113.416 39.4665 113.176C39.5412 112.936 39.5785 112.643 39.5785 112.296ZM50.0284 106.768C50.6204 106.768 51.1537 106.867 51.6284 107.064C52.103 107.261 52.5084 107.541 52.8444 107.904C53.1804 108.267 53.4364 108.707 53.6124 109.224C53.7937 109.736 53.8844 110.309 53.8844 110.944C53.8844 111.584 53.7937 112.16 53.6124 112.672C53.4364 113.184 53.1804 113.621 52.8444 113.984C52.5084 114.347 52.103 114.627 51.6284 114.824C51.1537 115.016 50.6204 115.112 50.0284 115.112C49.431 115.112 48.8924 115.016 48.4124 114.824C47.9377 114.627 47.5324 114.347 47.1964 113.984C46.8604 113.621 46.6017 113.184 46.4204 112.672C46.2444 112.16 46.1564 111.584 46.1564 110.944C46.1564 110.309 46.2444 109.736 46.4204 109.224C46.6017 108.707 46.8604 108.267 47.1964 107.904C47.5324 107.541 47.9377 107.261 48.4124 107.064C48.8924 106.867 49.431 106.768 50.0284 106.768ZM50.0284 114C50.8284 114 51.4257 113.733 51.8204 113.2C52.215 112.661 52.4124 111.912 52.4124 110.952C52.4124 109.987 52.215 109.235 51.8204 108.696C51.4257 108.157 50.8284 107.888 50.0284 107.888C49.623 107.888 49.2684 107.957 48.9644 108.096C48.6657 108.235 48.415 108.435 48.2124 108.696C48.015 108.957 47.8657 109.28 47.7644 109.664C47.6684 110.043 47.6204 110.472 47.6204 110.952C47.6204 111.912 47.8177 112.661 48.2124 113.2C48.6124 113.733 49.2177 114 50.0284 114ZM56.0466 115V108.112L55.1506 108.008C55.0386 107.981 54.9453 107.941 54.8706 107.888C54.8013 107.829 54.7666 107.747 54.7666 107.64V107.056H56.0466V106.392C56.0466 105.928 56.1106 105.517 56.2386 105.16C56.372 104.797 56.5586 104.493 56.7986 104.248C57.044 103.997 57.3373 103.808 57.6786 103.68C58.02 103.552 58.404 103.488 58.8306 103.488C59.1933 103.488 59.5266 103.541 59.8306 103.648L59.7986 104.368C59.788 104.496 59.716 104.565 59.5826 104.576C59.4546 104.587 59.2813 104.592 59.0626 104.592C58.8173 104.592 58.5933 104.624 58.3906 104.688C58.1933 104.747 58.0226 104.848 57.8786 104.992C57.7346 105.136 57.6226 105.328 57.5426 105.568C57.468 105.803 57.4306 106.093 57.4306 106.44V107.056H61.0866V106.184C61.0866 105.72 61.1506 105.309 61.2786 104.952C61.412 104.589 61.5986 104.285 61.8386 104.04C62.084 103.789 62.3773 103.6 62.7186 103.472C63.06 103.344 63.444 103.28 63.8706 103.28C64.228 103.28 64.5613 103.333 64.8706 103.44L64.8386 104.152C64.828 104.28 64.756 104.349 64.6226 104.36C64.4946 104.371 64.3213 104.376 64.1026 104.376C63.8573 104.376 63.6333 104.408 63.4306 104.472C63.2333 104.536 63.0626 104.64 62.9186 104.784C62.7746 104.928 62.6626 105.117 62.5826 105.352C62.508 105.587 62.4706 105.877 62.4706 106.224V107.056H64.8066V108.088H62.5186V115H61.0866V108.088H57.4786V115H56.0466Z" fill="#D05278"/>
<path d="M18.088 129.402L14.584 138H13.54L10.036 129.402H10.966C11.07 129.402 11.154 129.428 11.218 129.48C11.282 129.532 11.33 129.598 11.362 129.678L13.786 135.744C13.838 135.88 13.888 136.028 13.936 136.188C13.988 136.348 14.034 136.516 14.074 136.692C14.114 136.516 14.156 136.348 14.2 136.188C14.244 136.028 14.292 135.88 14.344 135.744L16.762 129.678C16.786 129.61 16.832 129.548 16.9 129.492C16.972 129.432 17.058 129.402 17.158 129.402H18.088ZM21.3822 135.264C20.8902 135.28 20.4702 135.32 20.1222 135.384C19.7782 135.444 19.4962 135.524 19.2762 135.624C19.0602 135.724 18.9022 135.842 18.8022 135.978C18.7062 136.114 18.6582 136.266 18.6582 136.434C18.6582 136.594 18.6842 136.732 18.7362 136.848C18.7882 136.964 18.8582 137.06 18.9462 137.136C19.0382 137.208 19.1442 137.262 19.2642 137.298C19.3882 137.33 19.5202 137.346 19.6602 137.346C19.8482 137.346 20.0202 137.328 20.1762 137.292C20.3322 137.252 20.4782 137.196 20.6142 137.124C20.7542 137.052 20.8862 136.966 21.0102 136.866C21.1382 136.766 21.2622 136.652 21.3822 136.524V135.264ZM17.9322 132.78C18.2682 132.456 18.6302 132.214 19.0182 132.054C19.4062 131.894 19.8362 131.814 20.3082 131.814C20.6482 131.814 20.9502 131.87 21.2142 131.982C21.4782 132.094 21.7002 132.25 21.8802 132.45C22.0602 132.65 22.1962 132.892 22.2882 133.176C22.3802 133.46 22.4262 133.772 22.4262 134.112V138H21.9522C21.8482 138 21.7682 137.984 21.7122 137.952C21.6562 137.916 21.6122 137.848 21.5802 137.748L21.4602 137.172C21.3002 137.32 21.1442 137.452 20.9922 137.568C20.8402 137.68 20.6802 137.776 20.5122 137.856C20.3442 137.932 20.1642 137.99 19.9722 138.03C19.7842 138.074 19.5742 138.096 19.3422 138.096C19.1062 138.096 18.8842 138.064 18.6762 138C18.4682 137.932 18.2862 137.832 18.1302 137.7C17.9782 137.568 17.8562 137.402 17.7642 137.202C17.6762 136.998 17.6322 136.758 17.6322 136.482C17.6322 136.242 17.6982 136.012 17.8302 135.792C17.9622 135.568 18.1762 135.37 18.4722 135.198C18.7682 135.026 19.1542 134.886 19.6302 134.778C20.1062 134.666 20.6902 134.602 21.3822 134.586V134.112C21.3822 133.64 21.2802 133.284 21.0762 133.044C20.8722 132.8 20.5742 132.678 20.1822 132.678C19.9182 132.678 19.6962 132.712 19.5162 132.78C19.3402 132.844 19.1862 132.918 19.0542 133.002C18.9262 133.082 18.8142 133.156 18.7182 133.224C18.6262 133.288 18.5342 133.32 18.4422 133.32C18.3702 133.32 18.3082 133.302 18.2562 133.266C18.2042 133.226 18.1602 133.178 18.1242 133.122L17.9322 132.78ZM25.157 129.162V138H24.089V129.162H25.157ZM28.017 131.922V138H26.949V131.922H28.017ZM28.245 130.014C28.245 130.118 28.223 130.216 28.179 130.308C28.139 130.396 28.083 130.476 28.011 130.548C27.943 130.616 27.861 130.67 27.765 130.71C27.673 130.75 27.575 130.77 27.471 130.77C27.367 130.77 27.269 130.75 27.177 130.71C27.089 130.67 27.011 130.616 26.943 130.548C26.875 130.476 26.821 130.396 26.781 130.308C26.741 130.216 26.721 130.118 26.721 130.014C26.721 129.91 26.741 129.812 26.781 129.72C26.821 129.624 26.875 129.542 26.943 129.474C27.011 129.402 27.089 129.346 27.177 129.306C27.269 129.266 27.367 129.246 27.471 129.246C27.575 129.246 27.673 129.266 27.765 129.306C27.861 129.346 27.943 129.402 28.011 129.474C28.083 129.542 28.139 129.624 28.179 129.72C28.223 129.812 28.245 129.91 28.245 130.014ZM33.7318 133.368C33.5318 133.1 33.3158 132.914 33.0838 132.81C32.8518 132.702 32.5918 132.648 32.3038 132.648C31.7398 132.648 31.3058 132.85 31.0018 133.254C30.6978 133.658 30.5458 134.234 30.5458 134.982C30.5458 135.378 30.5798 135.718 30.6478 136.002C30.7158 136.282 30.8158 136.514 30.9478 136.698C31.0798 136.878 31.2418 137.01 31.4338 137.094C31.6258 137.178 31.8438 137.22 32.0878 137.22C32.4398 137.22 32.7458 137.14 33.0058 136.98C33.2698 136.82 33.5118 136.594 33.7318 136.302V133.368ZM34.7998 129.162V138H34.1638C34.0118 138 33.9158 137.926 33.8758 137.778L33.7798 137.04C33.5198 137.352 33.2238 137.604 32.8918 137.796C32.5598 137.988 32.1758 138.084 31.7398 138.084C31.3918 138.084 31.0758 138.018 30.7918 137.886C30.5078 137.75 30.2658 137.552 30.0658 137.292C29.8658 137.032 29.7118 136.708 29.6038 136.32C29.4958 135.932 29.4418 135.486 29.4418 134.982C29.4418 134.534 29.5018 134.118 29.6218 133.734C29.7418 133.346 29.9138 133.01 30.1378 132.726C30.3618 132.442 30.6358 132.22 30.9598 132.06C31.2878 131.896 31.6558 131.814 32.0638 131.814C32.4358 131.814 32.7538 131.878 33.0178 132.006C33.2858 132.13 33.5238 132.304 33.7318 132.528V129.162H34.7998ZM44.5549 131.922V138H43.9189C43.7669 138 43.6709 137.926 43.6309 137.778L43.5469 137.124C43.2829 137.416 42.9869 137.652 42.6589 137.832C42.3309 138.008 41.9549 138.096 41.5309 138.096C41.1989 138.096 40.9049 138.042 40.6489 137.934C40.3969 137.822 40.1849 137.666 40.0129 137.466C39.8409 137.266 39.7109 137.024 39.6229 136.74C39.5389 136.456 39.4969 136.142 39.4969 135.798V131.922H40.5649V135.798C40.5649 136.258 40.6689 136.614 40.8769 136.866C41.0889 137.118 41.4109 137.244 41.8429 137.244C42.1589 137.244 42.4529 137.17 42.7249 137.022C43.0009 136.87 43.2549 136.662 43.4869 136.398V131.922H44.5549ZM47.2563 132.804C47.3883 132.656 47.5283 132.522 47.6763 132.402C47.8243 132.282 47.9803 132.18 48.1443 132.096C48.3123 132.008 48.4883 131.942 48.6723 131.898C48.8603 131.85 49.0623 131.826 49.2783 131.826C49.6103 131.826 49.9023 131.882 50.1543 131.994C50.4103 132.102 50.6223 132.258 50.7903 132.462C50.9623 132.662 51.0923 132.904 51.1803 133.188C51.2683 133.472 51.3123 133.786 51.3123 134.13V138H50.2383V134.13C50.2383 133.67 50.1323 133.314 49.9203 133.062C49.7123 132.806 49.3943 132.678 48.9663 132.678C48.6503 132.678 48.3543 132.754 48.0783 132.906C47.8063 133.058 47.5543 133.264 47.3223 133.524V138H46.2483V131.922H46.8903C47.0423 131.922 47.1363 131.996 47.1723 132.144L47.2563 132.804ZM58.4977 138H57.4297V132.816H54.2977V136.464C54.2977 136.72 54.3597 136.91 54.4837 137.034C54.6077 137.158 54.7677 137.22 54.9637 137.22C55.0757 137.22 55.1717 137.206 55.2517 137.178C55.3357 137.146 55.4077 137.112 55.4677 137.076C55.5277 137.04 55.5777 137.008 55.6177 136.98C55.6617 136.948 55.6997 136.932 55.7317 136.932C55.7877 136.932 55.8377 136.966 55.8817 137.034L56.1937 137.544C56.0097 137.716 55.7877 137.852 55.5277 137.952C55.2677 138.048 54.9997 138.096 54.7237 138.096C54.2437 138.096 53.8737 137.962 53.6137 137.694C53.3577 137.426 53.2297 137.04 53.2297 136.536V132.816H52.4977C52.4337 132.816 52.3797 132.798 52.3357 132.762C52.2917 132.722 52.2697 132.662 52.2697 132.582V132.156L53.2657 132.024L53.5117 130.152C53.5237 130.092 53.5497 130.044 53.5897 130.008C53.6337 129.968 53.6897 129.948 53.7577 129.948H54.2977V132.042H58.4977V138ZM58.7617 129.972C58.7617 130.076 58.7397 130.174 58.6957 130.266C58.6557 130.354 58.5997 130.432 58.5277 130.5C58.4597 130.568 58.3797 130.622 58.2877 130.662C58.1957 130.702 58.0977 130.722 57.9937 130.722C57.8897 130.722 57.7917 130.702 57.6997 130.662C57.6117 130.622 57.5337 130.568 57.4657 130.5C57.3977 130.432 57.3437 130.354 57.3037 130.266C57.2637 130.174 57.2437 130.076 57.2437 129.972C57.2437 129.868 57.2637 129.77 57.3037 129.678C57.3437 129.582 57.3977 129.5 57.4657 129.432C57.5337 129.36 57.6117 129.304 57.6997 129.264C57.7917 129.224 57.8897 129.204 57.9937 129.204C58.0977 129.204 58.1957 129.224 58.2877 129.264C58.3797 129.304 58.4597 129.36 58.5277 129.432C58.5997 129.5 58.6557 129.582 58.6957 129.678C58.7397 129.77 58.7617 129.868 58.7617 129.972ZM61.3563 129.162V138H60.2882V129.162H61.3563ZM69.0229 135.03C69.0229 135.51 68.9629 135.94 68.8429 136.32C68.7269 136.7 68.5529 137.022 68.3209 137.286C68.0929 137.546 67.8109 137.746 67.4749 137.886C67.1389 138.026 66.7529 138.096 66.3169 138.096C65.9209 138.096 65.5169 138.04 65.1049 137.928C65.1129 137.812 65.1229 137.698 65.1349 137.586C65.1469 137.47 65.1569 137.356 65.1649 137.244C65.1729 137.176 65.1969 137.122 65.2369 137.082C65.2809 137.038 65.3469 137.016 65.4349 137.016C65.5069 137.016 65.6009 137.034 65.7169 137.07C65.8369 137.106 65.9969 137.124 66.1969 137.124C66.4609 137.124 66.6969 137.084 66.9049 137.004C67.1129 136.924 67.2869 136.8 67.4269 136.632C67.5669 136.464 67.6729 136.25 67.7449 135.99C67.8209 135.726 67.8589 135.414 67.8589 135.054V129.402H69.0229V135.03ZM73.9408 135.264C73.4488 135.28 73.0288 135.32 72.6808 135.384C72.3368 135.444 72.0548 135.524 71.8348 135.624C71.6188 135.724 71.4608 135.842 71.3608 135.978C71.2648 136.114 71.2168 136.266 71.2168 136.434C71.2168 136.594 71.2428 136.732 71.2948 136.848C71.3468 136.964 71.4168 137.06 71.5048 137.136C71.5968 137.208 71.7028 137.262 71.8228 137.298C71.9468 137.33 72.0788 137.346 72.2188 137.346C72.4068 137.346 72.5788 137.328 72.7348 137.292C72.8908 137.252 73.0368 137.196 73.1728 137.124C73.3128 137.052 73.4448 136.966 73.5688 136.866C73.6968 136.766 73.8208 136.652 73.9408 136.524V135.264ZM70.4908 132.78C70.8268 132.456 71.1888 132.214 71.5768 132.054C71.9648 131.894 72.3948 131.814 72.8668 131.814C73.2068 131.814 73.5088 131.87 73.7728 131.982C74.0368 132.094 74.2588 132.25 74.4388 132.45C74.6188 132.65 74.7548 132.892 74.8468 133.176C74.9388 133.46 74.9848 133.772 74.9848 134.112V138H74.5108C74.4068 138 74.3268 137.984 74.2708 137.952C74.2148 137.916 74.1708 137.848 74.1388 137.748L74.0188 137.172C73.8588 137.32 73.7028 137.452 73.5508 137.568C73.3988 137.68 73.2388 137.776 73.0708 137.856C72.9028 137.932 72.7228 137.99 72.5308 138.03C72.3428 138.074 72.1328 138.096 71.9008 138.096C71.6648 138.096 71.4428 138.064 71.2348 138C71.0268 137.932 70.8448 137.832 70.6888 137.7C70.5368 137.568 70.4148 137.402 70.3228 137.202C70.2348 136.998 70.1908 136.758 70.1908 136.482C70.1908 136.242 70.2568 136.012 70.3888 135.792C70.5208 135.568 70.7348 135.37 71.0308 135.198C71.3268 135.026 71.7128 134.886 72.1888 134.778C72.6648 134.666 73.2488 134.602 73.9408 134.586V134.112C73.9408 133.64 73.8388 133.284 73.6348 133.044C73.4308 132.8 73.1328 132.678 72.7408 132.678C72.4768 132.678 72.2548 132.712 72.0748 132.78C71.8988 132.844 71.7448 132.918 71.6128 133.002C71.4848 133.082 71.3728 133.156 71.2768 133.224C71.1848 133.288 71.0928 133.32 71.0008 133.32C70.9288 133.32 70.8668 133.302 70.8148 133.266C70.7628 133.226 70.7188 133.178 70.6828 133.122L70.4908 132.78ZM77.6196 132.804C77.7516 132.656 77.8916 132.522 78.0396 132.402C78.1876 132.282 78.3436 132.18 78.5076 132.096C78.6756 132.008 78.8516 131.942 79.0356 131.898C79.2236 131.85 79.4256 131.826 79.6416 131.826C79.9736 131.826 80.2656 131.882 80.5176 131.994C80.7736 132.102 80.9856 132.258 81.1536 132.462C81.3256 132.662 81.4556 132.904 81.5436 133.188C81.6316 133.472 81.6756 133.786 81.6756 134.13V138H80.6016V134.13C80.6016 133.67 80.4956 133.314 80.2836 133.062C80.0756 132.806 79.7576 132.678 79.3296 132.678C79.0136 132.678 78.7176 132.754 78.4416 132.906C78.1696 133.058 77.9176 133.264 77.6856 133.524V138H76.6116V131.922H77.2536C77.4056 131.922 77.4996 131.996 77.5356 132.144L77.6196 132.804ZM86.3073 131.73C86.3633 131.338 86.4713 130.992 86.6313 130.692C86.7913 130.388 86.9933 130.134 87.2373 129.93C87.4853 129.726 87.7673 129.572 88.0833 129.468C88.4033 129.36 88.7473 129.306 89.1153 129.306C89.4793 129.306 89.8153 129.358 90.1233 129.462C90.4313 129.566 90.6953 129.714 90.9153 129.906C91.1393 130.098 91.3133 130.33 91.4373 130.602C91.5613 130.874 91.6233 131.176 91.6233 131.508C91.6233 131.78 91.5873 132.024 91.5153 132.24C91.4473 132.452 91.3473 132.638 91.2153 132.798C91.0873 132.958 90.9313 133.094 90.7473 133.206C90.5633 133.318 90.3573 133.41 90.1293 133.482C90.6893 133.626 91.1093 133.874 91.3893 134.226C91.6733 134.574 91.8153 135.01 91.8153 135.534C91.8153 135.93 91.7393 136.286 91.5873 136.602C91.4393 136.918 91.2353 137.188 90.9753 137.412C90.7153 137.632 90.4113 137.802 90.0633 137.922C89.7193 138.038 89.3493 138.096 88.9533 138.096C88.4973 138.096 88.1073 138.04 87.7833 137.928C87.4593 137.812 87.1853 137.654 86.9613 137.454C86.7373 137.254 86.5533 137.018 86.4093 136.746C86.2653 136.47 86.1433 136.172 86.0433 135.852L86.5053 135.66C86.6253 135.608 86.7413 135.594 86.8533 135.618C86.9693 135.642 87.0533 135.708 87.1053 135.816C87.1573 135.928 87.2213 136.062 87.2973 136.218C87.3773 136.374 87.4853 136.524 87.6213 136.668C87.7573 136.812 87.9293 136.934 88.1373 137.034C88.3493 137.134 88.6173 137.184 88.9413 137.184C89.2413 137.184 89.5033 137.136 89.7273 137.04C89.9553 136.94 90.1433 136.812 90.2913 136.656C90.4433 136.5 90.5573 136.326 90.6333 136.134C90.7093 135.942 90.7473 135.752 90.7473 135.564C90.7473 135.332 90.7173 135.12 90.6573 134.928C90.5973 134.736 90.4853 134.57 90.3213 134.43C90.1573 134.29 89.9313 134.18 89.6433 134.1C89.3593 134.02 88.9933 133.98 88.5453 133.98V133.206C88.9133 133.202 89.2253 133.162 89.4813 133.086C89.7413 133.01 89.9513 132.906 90.1113 132.774C90.2753 132.642 90.3933 132.484 90.4653 132.3C90.5413 132.116 90.5793 131.912 90.5793 131.688C90.5793 131.44 90.5393 131.224 90.4593 131.04C90.3833 130.856 90.2773 130.704 90.1413 130.584C90.0053 130.464 89.8433 130.374 89.6553 130.314C89.4713 130.254 89.2713 130.224 89.0553 130.224C88.8393 130.224 88.6373 130.256 88.4493 130.32C88.2653 130.384 88.1013 130.474 87.9573 130.59C87.8173 130.702 87.6993 130.836 87.6033 130.992C87.5073 131.148 87.4393 131.32 87.3993 131.508C87.3473 131.648 87.2813 131.742 87.2013 131.79C87.1253 131.834 87.0133 131.846 86.8653 131.826L86.3073 131.73ZM99.0883 133.704C99.0883 134.456 99.0063 135.108 98.8423 135.66C98.6823 136.208 98.4623 136.662 98.1823 137.022C97.9023 137.382 97.5703 137.65 97.1863 137.826C96.8063 138.002 96.3983 138.09 95.9623 138.09C95.5223 138.09 95.1123 138.002 94.7323 137.826C94.3563 137.65 94.0283 137.382 93.7483 137.022C93.4683 136.662 93.2483 136.208 93.0883 135.66C92.9283 135.108 92.8483 134.456 92.8483 133.704C92.8483 132.952 92.9283 132.3 93.0883 131.748C93.2483 131.196 93.4683 130.74 93.7483 130.38C94.0283 130.016 94.3563 129.746 94.7323 129.57C95.1123 129.394 95.5223 129.306 95.9623 129.306C96.3983 129.306 96.8063 129.394 97.1863 129.57C97.5703 129.746 97.9023 130.016 98.1823 130.38C98.4623 130.74 98.6823 131.196 98.8423 131.748C99.0063 132.3 99.0883 132.952 99.0883 133.704ZM97.9783 133.704C97.9783 133.048 97.9223 132.498 97.8103 132.054C97.7023 131.606 97.5543 131.246 97.3663 130.974C97.1823 130.702 96.9683 130.508 96.7243 130.392C96.4803 130.272 96.2263 130.212 95.9623 130.212C95.6983 130.212 95.4443 130.272 95.2003 130.392C94.9563 130.508 94.7423 130.702 94.5583 130.974C94.3743 131.246 94.2263 131.606 94.1143 132.054C94.0063 132.498 93.9523 133.048 93.9523 133.704C93.9523 134.36 94.0063 134.91 94.1143 135.354C94.2263 135.798 94.3743 136.156 94.5583 136.428C94.7423 136.7 94.9563 136.896 95.2003 137.016C95.4443 137.132 95.6983 137.19 95.9623 137.19C96.2263 137.19 96.4803 137.132 96.7243 137.016C96.9683 136.896 97.1823 136.7 97.3663 136.428C97.5543 136.156 97.7023 135.798 97.8103 135.354C97.9223 134.91 97.9783 134.36 97.9783 133.704ZM100.229 139.452C100.197 139.424 100.175 139.398 100.163 139.374C100.151 139.35 100.145 139.32 100.145 139.284C100.145 139.256 100.153 139.228 100.169 139.2C100.189 139.172 100.211 139.146 100.235 139.122C100.275 139.078 100.325 139.02 100.385 138.948C100.449 138.876 100.513 138.79 100.577 138.69C100.641 138.594 100.699 138.486 100.751 138.366C100.807 138.25 100.847 138.126 100.871 137.994C100.859 137.998 100.845 138 100.829 138C100.817 138 100.805 138 100.793 138C100.585 138 100.415 137.932 100.283 137.796C100.155 137.656 100.091 137.478 100.091 137.262C100.091 137.074 100.155 136.914 100.283 136.782C100.415 136.65 100.589 136.584 100.805 136.584C100.925 136.584 101.031 136.606 101.123 136.65C101.215 136.694 101.291 136.756 101.351 136.836C101.415 136.912 101.463 137.002 101.495 137.106C101.527 137.206 101.543 137.316 101.543 137.436C101.543 137.616 101.517 137.804 101.465 138C101.417 138.192 101.343 138.382 101.243 138.57C101.147 138.762 101.029 138.948 100.889 139.128C100.749 139.308 100.589 139.474 100.409 139.626L100.229 139.452ZM111.16 136.986C111.276 136.986 111.368 137.02 111.436 137.088C111.504 137.156 111.538 137.244 111.538 137.352V138H105.802V137.634C105.802 137.558 105.818 137.48 105.85 137.4C105.882 137.32 105.932 137.246 106 137.178L108.754 134.412C108.982 134.18 109.19 133.958 109.378 133.746C109.566 133.53 109.726 133.314 109.858 133.098C109.99 132.882 110.092 132.664 110.164 132.444C110.236 132.22 110.272 131.982 110.272 131.73C110.272 131.478 110.232 131.258 110.152 131.07C110.072 130.878 109.962 130.72 109.822 130.596C109.686 130.472 109.524 130.38 109.336 130.32C109.148 130.256 108.946 130.224 108.73 130.224C108.51 130.224 108.308 130.256 108.124 130.32C107.94 130.384 107.776 130.474 107.632 130.59C107.492 130.702 107.374 130.836 107.278 130.992C107.182 131.148 107.114 131.32 107.074 131.508C107.026 131.648 106.96 131.742 106.876 131.79C106.796 131.834 106.682 131.846 106.534 131.826L105.976 131.73C106.032 131.338 106.14 130.992 106.3 130.692C106.464 130.388 106.668 130.134 106.912 129.93C107.16 129.726 107.442 129.572 107.758 129.468C108.074 129.36 108.416 129.306 108.784 129.306C109.148 129.306 109.488 129.36 109.804 129.468C110.12 129.576 110.394 129.734 110.626 129.942C110.858 130.146 111.04 130.396 111.172 130.692C111.304 130.988 111.37 131.324 111.37 131.7C111.37 132.02 111.322 132.318 111.226 132.594C111.13 132.866 111 133.126 110.836 133.374C110.672 133.622 110.482 133.864 110.266 134.1C110.054 134.336 109.828 134.574 109.588 134.814L107.32 137.13C107.48 137.086 107.642 137.052 107.806 137.028C107.97 137 108.128 136.986 108.28 136.986H111.16ZM118.799 133.704C118.799 134.456 118.717 135.108 118.553 135.66C118.393 136.208 118.173 136.662 117.893 137.022C117.613 137.382 117.281 137.65 116.897 137.826C116.517 138.002 116.109 138.09 115.673 138.09C115.233 138.09 114.823 138.002 114.443 137.826C114.067 137.65 113.739 137.382 113.459 137.022C113.179 136.662 112.959 136.208 112.799 135.66C112.639 135.108 112.559 134.456 112.559 133.704C112.559 132.952 112.639 132.3 112.799 131.748C112.959 131.196 113.179 130.74 113.459 130.38C113.739 130.016 114.067 129.746 114.443 129.57C114.823 129.394 115.233 129.306 115.673 129.306C116.109 129.306 116.517 129.394 116.897 129.57C117.281 129.746 117.613 130.016 117.893 130.38C118.173 130.74 118.393 131.196 118.553 131.748C118.717 132.3 118.799 132.952 118.799 133.704ZM117.689 133.704C117.689 133.048 117.633 132.498 117.521 132.054C117.413 131.606 117.265 131.246 117.077 130.974C116.893 130.702 116.679 130.508 116.435 130.392C116.191 130.272 115.937 130.212 115.673 130.212C115.409 130.212 115.155 130.272 114.911 130.392C114.667 130.508 114.453 130.702 114.269 130.974C114.085 131.246 113.937 131.606 113.825 132.054C113.717 132.498 113.663 133.048 113.663 133.704C113.663 134.36 113.717 134.91 113.825 135.354C113.937 135.798 114.085 136.156 114.269 136.428C114.453 136.7 114.667 136.896 114.911 137.016C115.155 137.132 115.409 137.19 115.673 137.19C115.937 137.19 116.191 137.132 116.435 137.016C116.679 136.896 116.893 136.7 117.077 136.428C117.265 136.156 117.413 135.798 117.521 135.354C117.633 134.91 117.689 134.36 117.689 133.704ZM125.082 136.986C125.198 136.986 125.29 137.02 125.358 137.088C125.426 137.156 125.46 137.244 125.46 137.352V138H119.724V137.634C119.724 137.558 119.74 137.48 119.772 137.4C119.804 137.32 119.854 137.246 119.922 137.178L122.676 134.412C122.904 134.18 123.112 133.958 123.3 133.746C123.488 133.53 123.648 133.314 123.78 133.098C123.912 132.882 124.014 132.664 124.086 132.444C124.158 132.22 124.194 131.982 124.194 131.73C124.194 131.478 124.154 131.258 124.074 131.07C123.994 130.878 123.884 130.72 123.744 130.596C123.608 130.472 123.446 130.38 123.258 130.32C123.07 130.256 122.868 130.224 122.652 130.224C122.432 130.224 122.23 130.256 122.046 130.32C121.862 130.384 121.698 130.474 121.554 130.59C121.414 130.702 121.296 130.836 121.2 130.992C121.104 131.148 121.036 131.32 120.996 131.508C120.948 131.648 120.882 131.742 120.798 131.79C120.718 131.834 120.604 131.846 120.456 131.826L119.898 131.73C119.954 131.338 120.062 130.992 120.222 130.692C120.386 130.388 120.59 130.134 120.834 129.93C121.082 129.726 121.364 129.572 121.68 129.468C121.996 129.36 122.338 129.306 122.706 129.306C123.07 129.306 123.41 129.36 123.726 129.468C124.042 129.576 124.316 129.734 124.548 129.942C124.78 130.146 124.962 130.396 125.094 130.692C125.226 130.988 125.292 131.324 125.292 131.7C125.292 132.02 125.244 132.318 125.148 132.594C125.052 132.866 124.922 133.126 124.758 133.374C124.594 133.622 124.404 133.864 124.188 134.1C123.976 134.336 123.75 134.574 123.51 134.814L121.242 137.13C121.402 137.086 121.564 137.052 121.728 137.028C121.892 137 122.05 136.986 122.202 136.986H125.082ZM126.901 131.73C126.957 131.338 127.065 130.992 127.225 130.692C127.385 130.388 127.587 130.134 127.831 129.93C128.079 129.726 128.361 129.572 128.677 129.468C128.997 129.36 129.341 129.306 129.709 129.306C130.073 129.306 130.409 129.358 130.717 129.462C131.025 129.566 131.289 129.714 131.509 129.906C131.733 130.098 131.907 130.33 132.031 130.602C132.155 130.874 132.217 131.176 132.217 131.508C132.217 131.78 132.181 132.024 132.109 132.24C132.041 132.452 131.941 132.638 131.809 132.798C131.681 132.958 131.525 133.094 131.341 133.206C131.157 133.318 130.951 133.41 130.723 133.482C131.283 133.626 131.703 133.874 131.983 134.226C132.267 134.574 132.409 135.01 132.409 135.534C132.409 135.93 132.333 136.286 132.181 136.602C132.033 136.918 131.829 137.188 131.569 137.412C131.309 137.632 131.005 137.802 130.657 137.922C130.313 138.038 129.943 138.096 129.547 138.096C129.091 138.096 128.701 138.04 128.377 137.928C128.053 137.812 127.779 137.654 127.555 137.454C127.331 137.254 127.147 137.018 127.003 136.746C126.859 136.47 126.737 136.172 126.637 135.852L127.099 135.66C127.219 135.608 127.335 135.594 127.447 135.618C127.563 135.642 127.647 135.708 127.699 135.816C127.751 135.928 127.815 136.062 127.891 136.218C127.971 136.374 128.079 136.524 128.215 136.668C128.351 136.812 128.523 136.934 128.731 137.034C128.943 137.134 129.211 137.184 129.535 137.184C129.835 137.184 130.097 137.136 130.321 137.04C130.549 136.94 130.737 136.812 130.885 136.656C131.037 136.5 131.151 136.326 131.227 136.134C131.303 135.942 131.341 135.752 131.341 135.564C131.341 135.332 131.311 135.12 131.251 134.928C131.191 134.736 131.079 134.57 130.915 134.43C130.751 134.29 130.525 134.18 130.237 134.1C129.953 134.02 129.587 133.98 129.139 133.98V133.206C129.507 133.202 129.819 133.162 130.075 133.086C130.335 133.01 130.545 132.906 130.705 132.774C130.869 132.642 130.987 132.484 131.059 132.3C131.135 132.116 131.173 131.912 131.173 131.688C131.173 131.44 131.133 131.224 131.053 131.04C130.977 130.856 130.871 130.704 130.735 130.584C130.599 130.464 130.437 130.374 130.249 130.314C130.065 130.254 129.865 130.224 129.649 130.224C129.433 130.224 129.231 130.256 129.043 130.32C128.859 130.384 128.695 130.474 128.551 130.59C128.411 130.702 128.293 130.836 128.197 130.992C128.101 131.148 128.033 131.32 127.993 131.508C127.941 131.648 127.875 131.742 127.795 131.79C127.719 131.834 127.607 131.846 127.459 131.826L126.901 131.73Z" fill="#666666"/>
<rect x="10.5" y="158.5" width="139" height="32" fill="#FAF9FF"/>
<rect x="10.5" y="158.5" width="139" height="32" stroke="#EEEEEE"/>
<g clip-path="url(#clip0_47_2661)">
<path d="M137.333 173H131.333C130.597 173 130 173.597 130 174.333V180.333C130 181.07 130.597 181.667 131.333 181.667H137.333C138.07 181.667 138.667 181.07 138.667 180.333V174.333C138.667 173.597 138.07 173 137.333 173Z" stroke="#666666" stroke-width="1.2" stroke-linecap="round" stroke-linejoin="round"/>
<path d="M127.333 177H126.667C126.313 177 125.974 176.86 125.724 176.61C125.474 176.36 125.333 176.02 125.333 175.667V169.667C125.333 169.313 125.474 168.974 125.724 168.724C125.974 168.474 126.313 168.333 126.667 168.333H132.667C133.02 168.333 133.359 168.474 133.609 168.724C133.86 168.974 134 169.313 134 169.667V170.333" stroke="#666666" stroke-width="1.2" stroke-linecap="round" stroke-linejoin="round"/>
</g>
<path d="M25.9519 175.108C25.9519 175.532 25.8812 175.921 25.7399 176.276C25.5985 176.631 25.3999 176.936 25.1439 177.192C24.8879 177.448 24.5799 177.647 24.2199 177.788C23.8599 177.929 23.4599 178 23.0199 178H20.8159V172.216H23.0199C23.4599 172.216 23.8599 172.288 24.2199 172.432C24.5799 172.573 24.8879 172.772 25.1439 173.028C25.3999 173.281 25.5985 173.585 25.7399 173.94C25.8812 174.295 25.9519 174.684 25.9519 175.108ZM24.8479 175.108C24.8479 174.791 24.8052 174.507 24.7199 174.256C24.6372 174.003 24.5159 173.789 24.3559 173.616C24.1985 173.44 24.0065 173.305 23.7799 173.212C23.5559 173.119 23.3025 173.072 23.0199 173.072H21.8959V177.144H23.0199C23.3025 177.144 23.5559 177.097 23.7799 177.004C24.0065 176.911 24.1985 176.777 24.3559 176.604C24.5159 176.428 24.6372 176.215 24.7199 175.964C24.8052 175.711 24.8479 175.425 24.8479 175.108ZM27.9818 178H26.9018V172.216H27.9818V178ZM32.3568 173.268C32.3248 173.324 32.2901 173.365 32.2528 173.392C32.2181 173.416 32.1741 173.428 32.1208 173.428C32.0648 173.428 32.0035 173.408 31.9368 173.368C31.8728 173.325 31.7955 173.279 31.7048 173.228C31.6141 173.177 31.5075 173.132 31.3848 173.092C31.2648 173.049 31.1221 173.028 30.9568 173.028C30.8075 173.028 30.6768 173.047 30.5648 173.084C30.4528 173.119 30.3581 173.168 30.2808 173.232C30.2061 173.296 30.1501 173.373 30.1128 173.464C30.0755 173.552 30.0568 173.649 30.0568 173.756C30.0568 173.892 30.0941 174.005 30.1688 174.096C30.2461 174.187 30.3475 174.264 30.4728 174.328C30.5981 174.392 30.7408 174.449 30.9008 174.5C31.0608 174.551 31.2248 174.605 31.3928 174.664C31.5608 174.72 31.7248 174.787 31.8848 174.864C32.0448 174.939 32.1875 175.035 32.3128 175.152C32.4381 175.267 32.5381 175.408 32.6128 175.576C32.6901 175.744 32.7288 175.948 32.7288 176.188C32.7288 176.449 32.6835 176.695 32.5928 176.924C32.5048 177.151 32.3741 177.349 32.2008 177.52C32.0301 177.688 31.8208 177.821 31.5728 177.92C31.3248 178.016 31.0408 178.064 30.7208 178.064C30.5368 178.064 30.3555 178.045 30.1768 178.008C29.9981 177.973 29.8261 177.923 29.6608 177.856C29.4981 177.789 29.3448 177.709 29.2008 177.616C29.0568 177.523 28.9288 177.419 28.8168 177.304L29.1328 176.788C29.1595 176.751 29.1941 176.72 29.2368 176.696C29.2795 176.669 29.3248 176.656 29.3728 176.656C29.4395 176.656 29.5115 176.684 29.5888 176.74C29.6661 176.793 29.7581 176.853 29.8648 176.92C29.9715 176.987 30.0955 177.048 30.2368 177.104C30.3808 177.157 30.5528 177.184 30.7528 177.184C31.0595 177.184 31.2968 177.112 31.4648 176.968C31.6328 176.821 31.7168 176.612 31.7168 176.34C31.7168 176.188 31.6781 176.064 31.6008 175.968C31.5261 175.872 31.4261 175.792 31.3008 175.728C31.1755 175.661 31.0328 175.605 30.8728 175.56C30.7128 175.515 30.5501 175.465 30.3848 175.412C30.2195 175.359 30.0568 175.295 29.8968 175.22C29.7368 175.145 29.5941 175.048 29.4688 174.928C29.3435 174.808 29.2421 174.659 29.1648 174.48C29.0901 174.299 29.0528 174.076 29.0528 173.812C29.0528 173.601 29.0941 173.396 29.1768 173.196C29.2621 172.996 29.3848 172.819 29.5448 172.664C29.7048 172.509 29.9021 172.385 30.1368 172.292C30.3715 172.199 30.6408 172.152 30.9448 172.152C31.2861 172.152 31.6008 172.205 31.8888 172.312C32.1768 172.419 32.4221 172.568 32.6248 172.76L32.3568 173.268ZM37.6394 176.636C37.6981 176.636 37.7501 176.659 37.7954 176.704L38.2194 177.164C37.9848 177.455 37.6954 177.677 37.3514 177.832C37.0101 177.987 36.5994 178.064 36.1194 178.064C35.6901 178.064 35.3034 177.991 34.9594 177.844C34.6181 177.697 34.3261 177.493 34.0834 177.232C33.8408 176.971 33.6541 176.659 33.5234 176.296C33.3954 175.933 33.3314 175.537 33.3314 175.108C33.3314 174.673 33.4008 174.276 33.5394 173.916C33.6781 173.553 33.8728 173.241 34.1234 172.98C34.3768 172.719 34.6781 172.516 35.0274 172.372C35.3768 172.225 35.7634 172.152 36.1874 172.152C36.6088 172.152 36.9821 172.221 37.3074 172.36C37.6354 172.499 37.9141 172.68 38.1434 172.904L37.7834 173.404C37.7621 173.436 37.7341 173.464 37.6994 173.488C37.6674 173.512 37.6221 173.524 37.5634 173.524C37.5234 173.524 37.4821 173.513 37.4394 173.492C37.3968 173.468 37.3501 173.44 37.2994 173.408C37.2488 173.373 37.1901 173.336 37.1234 173.296C37.0568 173.256 36.9794 173.22 36.8914 173.188C36.8034 173.153 36.7008 173.125 36.5834 173.104C36.4688 173.08 36.3354 173.068 36.1834 173.068C35.9248 173.068 35.6874 173.115 35.4714 173.208C35.2581 173.299 35.0741 173.432 34.9194 173.608C34.7648 173.781 34.6448 173.995 34.5594 174.248C34.4741 174.499 34.4314 174.785 34.4314 175.108C34.4314 175.433 34.4768 175.723 34.5674 175.976C34.6608 176.229 34.7861 176.443 34.9434 176.616C35.1008 176.789 35.2861 176.923 35.4994 177.016C35.7128 177.107 35.9421 177.152 36.1874 177.152C36.3341 177.152 36.4661 177.144 36.5834 177.128C36.7034 177.112 36.8128 177.087 36.9114 177.052C37.0128 177.017 37.1074 176.973 37.1954 176.92C37.2861 176.864 37.3754 176.796 37.4634 176.716C37.4901 176.692 37.5181 176.673 37.5474 176.66C37.5768 176.644 37.6074 176.636 37.6394 176.636ZM44.3475 175.108C44.3475 175.532 44.2768 175.925 44.1355 176.288C43.9968 176.648 43.7995 176.96 43.5435 177.224C43.2875 177.488 42.9795 177.695 42.6195 177.844C42.2595 177.991 41.8595 178.064 41.4195 178.064C40.9822 178.064 40.5835 177.991 40.2235 177.844C39.8635 177.695 39.5542 177.488 39.2955 177.224C39.0395 176.96 38.8408 176.648 38.6995 176.288C38.5582 175.925 38.4875 175.532 38.4875 175.108C38.4875 174.684 38.5582 174.292 38.6995 173.932C38.8408 173.569 39.0395 173.256 39.2955 172.992C39.5542 172.728 39.8635 172.523 40.2235 172.376C40.5835 172.227 40.9822 172.152 41.4195 172.152C41.7128 172.152 41.9888 172.187 42.2475 172.256C42.5062 172.323 42.7435 172.419 42.9595 172.544C43.1755 172.667 43.3688 172.817 43.5395 172.996C43.7128 173.172 43.8595 173.369 43.9795 173.588C44.0995 173.807 44.1902 174.044 44.2515 174.3C44.3155 174.556 44.3475 174.825 44.3475 175.108ZM43.2475 175.108C43.2475 174.791 43.2048 174.507 43.1195 174.256C43.0342 174.003 42.9128 173.788 42.7555 173.612C42.5982 173.436 42.4062 173.301 42.1795 173.208C41.9555 173.115 41.7022 173.068 41.4195 173.068C41.1368 173.068 40.8822 173.115 40.6555 173.208C40.4315 173.301 40.2395 173.436 40.0795 173.612C39.9222 173.788 39.8008 174.003 39.7155 174.256C39.6302 174.507 39.5875 174.791 39.5875 175.108C39.5875 175.425 39.6302 175.711 39.7155 175.964C39.8008 176.215 39.9222 176.428 40.0795 176.604C40.2395 176.777 40.4315 176.911 40.6555 177.004C40.8822 177.097 41.1368 177.144 41.4195 177.144C41.7022 177.144 41.9555 177.097 42.1795 177.004C42.4062 176.911 42.5982 176.777 42.7555 176.604C42.9128 176.428 43.0342 176.215 43.1195 175.964C43.2048 175.711 43.2475 175.425 43.2475 175.108ZM47.6204 177.132C47.8284 177.132 48.0138 177.097 48.1764 177.028C48.3418 176.959 48.4804 176.861 48.5924 176.736C48.7044 176.611 48.7898 176.459 48.8484 176.28C48.9098 176.101 48.9404 175.901 48.9404 175.68V172.216H50.0164V175.68C50.0164 176.024 49.9604 176.343 49.8484 176.636C49.7391 176.927 49.5804 177.179 49.3724 177.392C49.1671 177.603 48.9164 177.768 48.6204 177.888C48.3244 178.005 47.9911 178.064 47.6204 178.064C47.2471 178.064 46.9124 178.005 46.6164 177.888C46.3204 177.768 46.0684 177.603 45.8604 177.392C45.6551 177.179 45.4964 176.927 45.3844 176.636C45.2751 176.343 45.2204 176.024 45.2204 175.68V172.216H46.2964V175.676C46.2964 175.897 46.3258 176.097 46.3844 176.276C46.4458 176.455 46.5324 176.608 46.6444 176.736C46.7591 176.861 46.8978 176.959 47.0604 177.028C47.2258 177.097 47.4124 177.132 47.6204 177.132ZM56.1059 172.216V178H55.5539C55.4686 178 55.3966 177.987 55.3379 177.96C55.2819 177.931 55.2273 177.883 55.1739 177.816L52.1539 173.96C52.1699 174.136 52.1779 174.299 52.1779 174.448V178H51.2299V172.216H51.7939C51.8393 172.216 51.8779 172.219 51.9099 172.224C51.9446 172.227 51.9739 172.235 51.9979 172.248C52.0246 172.259 52.0499 172.276 52.0739 172.3C52.0979 172.321 52.1246 172.351 52.1539 172.388L55.1859 176.26C55.1779 176.167 55.1713 176.075 55.1659 175.984C55.1606 175.893 55.1579 175.809 55.1579 175.732V172.216H56.1059ZM61.434 173.1H59.69V178H58.614V173.1H56.87V172.216H61.434V173.1ZM65.4709 177.08C65.5775 177.08 65.6615 177.111 65.7229 177.172C65.7869 177.231 65.8189 177.309 65.8189 177.408V178H61.8509V177.672C61.8509 177.605 61.8642 177.536 61.8909 177.464C61.9202 177.389 61.9655 177.323 62.0269 177.264L63.7829 175.504C63.9295 175.355 64.0602 175.212 64.1749 175.076C64.2922 174.94 64.3895 174.805 64.4669 174.672C64.5442 174.539 64.6029 174.404 64.6429 174.268C64.6855 174.129 64.7069 173.984 64.7069 173.832C64.7069 173.693 64.6869 173.572 64.6469 173.468C64.6069 173.361 64.5495 173.272 64.4749 173.2C64.4029 173.128 64.3149 173.075 64.2109 173.04C64.1095 173.003 63.9949 172.984 63.8669 172.984C63.7495 172.984 63.6402 173.001 63.5389 173.036C63.4402 173.068 63.3522 173.115 63.2749 173.176C63.1975 173.235 63.1322 173.304 63.0789 173.384C63.0255 173.464 62.9855 173.552 62.9589 173.648C62.9135 173.771 62.8549 173.852 62.7829 173.892C62.7109 173.932 62.6069 173.941 62.4709 173.92L61.9509 173.828C61.9909 173.551 62.0682 173.308 62.1829 173.1C62.2975 172.889 62.4402 172.715 62.6109 172.576C62.7842 172.435 62.9815 172.329 63.2029 172.26C63.4269 172.188 63.6669 172.152 63.9229 172.152C64.1895 172.152 64.4335 172.192 64.6549 172.272C64.8762 172.349 65.0655 172.46 65.2229 172.604C65.3802 172.748 65.5029 172.921 65.5909 173.124C65.6789 173.327 65.7229 173.552 65.7229 173.8C65.7229 174.013 65.6909 174.211 65.6269 174.392C65.5655 174.573 65.4815 174.747 65.3749 174.912C65.2709 175.077 65.1482 175.237 65.0069 175.392C64.8655 175.547 64.7175 175.704 64.5629 175.864L63.2589 177.196C63.3842 177.159 63.5082 177.131 63.6309 177.112C63.7562 177.091 63.8749 177.08 63.9869 177.08H65.4709ZM66.6195 173.828C66.6595 173.551 66.7368 173.308 66.8515 173.1C66.9662 172.889 67.1088 172.715 67.2795 172.576C67.4528 172.435 67.6502 172.329 67.8715 172.26C68.0955 172.188 68.3355 172.152 68.5915 172.152C68.8582 172.152 69.0982 172.191 69.3115 172.268C69.5275 172.343 69.7115 172.448 69.8635 172.584C70.0155 172.717 70.1315 172.875 70.2115 173.056C70.2942 173.237 70.3355 173.433 70.3355 173.644C70.3355 173.828 70.3142 173.991 70.2715 174.132C70.2315 174.271 70.1728 174.392 70.0955 174.496C70.0182 174.6 69.9222 174.688 69.8075 174.76C69.6928 174.832 69.5635 174.892 69.4195 174.94C69.7662 175.049 70.0248 175.216 70.1955 175.44C70.3662 175.664 70.4515 175.945 70.4515 176.284C70.4515 176.572 70.3982 176.827 70.2915 177.048C70.1848 177.269 70.0408 177.456 69.8595 177.608C69.6782 177.757 69.4675 177.871 69.2275 177.948C68.9902 178.025 68.7382 178.064 68.4715 178.064C68.1808 178.064 67.9275 178.031 67.7115 177.964C67.4955 177.897 67.3075 177.799 67.1475 177.668C66.9875 177.537 66.8515 177.377 66.7395 177.188C66.6275 176.999 66.5315 176.78 66.4515 176.532L66.8875 176.352C67.0022 176.304 67.1088 176.292 67.2075 176.316C67.3088 176.337 67.3822 176.391 67.4275 176.476C67.4755 176.569 67.5275 176.661 67.5835 176.752C67.6422 176.843 67.7115 176.924 67.7915 176.996C67.8715 177.065 67.9648 177.123 68.0715 177.168C68.1808 177.211 68.3102 177.232 68.4595 177.232C68.6275 177.232 68.7742 177.205 68.8995 177.152C69.0248 177.096 69.1288 177.024 69.2115 176.936C69.2968 176.848 69.3595 176.751 69.3995 176.644C69.4422 176.535 69.4635 176.425 69.4635 176.316C69.4635 176.177 69.4488 176.052 69.4195 175.94C69.3902 175.825 69.3288 175.728 69.2355 175.648C69.1422 175.568 69.0075 175.505 68.8315 175.46C68.6582 175.415 68.4248 175.392 68.1315 175.392V174.688C68.3742 174.685 68.5755 174.663 68.7355 174.62C68.8955 174.577 69.0222 174.519 69.1155 174.444C69.2115 174.367 69.2782 174.275 69.3155 174.168C69.3528 174.061 69.3715 173.944 69.3715 173.816C69.3715 173.544 69.2955 173.337 69.1435 173.196C68.9915 173.055 68.7888 172.984 68.5355 172.984C68.4182 172.984 68.3102 173.001 68.2115 173.036C68.1128 173.068 68.0235 173.115 67.9435 173.176C67.8662 173.235 67.8008 173.304 67.7475 173.384C67.6942 173.464 67.6542 173.552 67.6275 173.648C67.5822 173.771 67.5222 173.852 67.4475 173.892C67.3755 173.932 67.2728 173.941 67.1395 173.92L66.6195 173.828Z" fill="#666666"/>
<defs>
<clipPath id="clip0_47_2661">
<rect width="16" height="16" fill="white" transform="translate(124 167)"/>
</clipPath>
</defs>
</svg>
