<svg width="22" height="22" viewBox="0 0 22 22" fill="none" xmlns="http://www.w3.org/2000/svg">
    <path fill-rule="evenodd" clip-rule="evenodd" d="M10.0833 3.4375C6.41294 3.4375 3.4375 6.41294 3.4375 10.0833C3.4375 13.7537 6.41294 16.7292 10.0833 16.7292C13.7537 16.7292 16.7292 13.7537 16.7292 10.0833C16.7292 6.41294 13.7537 3.4375 10.0833 3.4375ZM2.0625 10.0833C2.0625 5.65355 5.65355 2.0625 10.0833 2.0625C14.5131 2.0625 18.1042 5.65355 18.1042 10.0833C18.1042 14.5131 14.5131 18.1042 10.0833 18.1042C5.65355 18.1042 2.0625 14.5131 2.0625 10.0833Z" fill="#222222"/>
    <path fill-rule="evenodd" clip-rule="evenodd" d="M14.6143 14.6144C14.9723 14.2565 15.5527 14.2565 15.9107 14.6144L19.8982 18.6019C20.2562 18.9599 20.2562 19.5403 19.8982 19.8983C19.5402 20.2563 18.9598 20.2563 18.6018 19.8983L14.6143 15.9108C14.2563 15.5528 14.2563 14.9724 14.6143 14.6144Z" fill="#222222"/>
</svg>
