<svg width="137" height="30" viewBox="0 0 137 30" fill="none" xmlns="http://www.w3.org/2000/svg">
    <path d="M9.447 29.375C8.44433 29.375 7.426 29.3437 6.392 29.281C5.358 29.2497 4.33967 29.1713 3.337 29.046C1.11233 28.858 0 28.1373 0 26.884C0 26.2573 0.250667 25.5053 0.752 24.628C1.94267 22.466 3.16467 20.3197 4.418 18.189C5.67133 16.027 6.909 13.865 8.131 11.703C8.507 11.0137 8.99267 10.152 9.588 9.118C10.1833 8.084 10.7787 7.097 11.374 6.157C11.656 5.71833 12.0633 5.27967 12.596 4.841C13.1287 4.371 13.677 4.07333 14.241 3.948C13.583 3.97933 12.737 4.02633 11.703 4.089C10.7003 4.15167 9.66633 4.277 8.601 4.465C7.567 4.62167 6.627 4.888 5.781 5.264C4.96633 5.60867 4.38667 6.09433 4.042 6.721C3.91667 7.003 3.807 7.285 3.713 7.567C3.619 7.849 3.572 8.131 3.572 8.413C3.572 9.13367 3.82267 9.65067 4.324 9.964C4.35533 9.964 4.371 9.99533 4.371 10.058C4.371 10.1207 4.30833 10.1833 4.183 10.246C4.089 10.3087 3.995 10.3243 3.901 10.293C3.619 10.1363 3.27433 9.76033 2.867 9.165C2.45967 8.53833 2.209 8.02133 2.115 7.614C2.021 7.238 1.974 6.89333 1.974 6.58C1.974 5.76533 2.24033 5.13867 2.773 4.7C3.30567 4.23 3.97933 3.901 4.794 3.713C5.60867 3.49367 6.439 3.36833 7.285 3.337C8.131 3.27433 8.883 3.243 9.541 3.243C11.2017 3.243 12.8623 3.22733 14.523 3.196C16.1837 3.13333 17.8287 3.102 19.458 3.102C20.1787 3.102 20.8837 3.102 21.573 3.102C22.2937 3.102 22.9987 3.13333 23.688 3.196C24.4713 3.22733 25.004 3.384 25.286 3.666C25.5993 3.948 25.756 4.29267 25.756 4.7C25.756 5.20133 25.5837 5.781 25.239 6.439C24.9257 7.06567 24.628 7.64533 24.346 8.178C24.2207 8.42867 24.017 8.61667 23.735 8.742C23.453 8.836 23.3433 8.742 23.406 8.46C23.5627 7.83333 23.641 7.20667 23.641 6.58C23.641 6.016 23.5313 5.51467 23.312 5.076C23.124 4.606 22.748 4.277 22.184 4.089C21.6513 3.93233 20.821 3.854 19.693 3.854C19.2857 3.854 18.8627 3.86967 18.424 3.901C18.0167 3.901 17.5937 3.91667 17.155 3.948C15.9017 4.042 15.0557 4.371 14.617 4.935C13.583 6.37633 12.5803 7.943 11.609 9.635C10.669 11.2957 9.76033 12.878 8.883 14.382C8.85167 14.4447 8.836 14.523 8.836 14.617C8.836 14.805 8.977 14.899 9.259 14.899C10.3557 14.899 11.5307 14.9147 12.784 14.946C14.0687 14.9773 15.1967 14.9773 16.168 14.946C16.3873 14.9147 16.7163 14.8833 17.155 14.852C17.625 14.8207 18.095 14.758 18.565 14.664C19.0663 14.57 19.4423 14.4603 19.693 14.335C19.8497 14.241 19.9437 14.194 19.975 14.194C20.163 14.194 20.163 14.382 19.975 14.758C19.8183 15.1027 19.5363 15.463 19.129 15.839C18.753 16.1837 18.3143 16.356 17.813 16.356C16.2777 16.356 14.9773 16.3247 13.912 16.262C12.878 16.1993 11.7187 16.168 10.434 16.168C10.1207 16.168 9.79167 16.168 9.447 16.168C9.10233 16.168 8.72633 16.1837 8.319 16.215C8.00567 16.2463 7.78633 16.3717 7.661 16.591C7.34767 17.155 7.06567 17.672 6.815 18.142C6.59567 18.612 6.31367 19.1603 5.969 19.787C5.71833 20.257 5.405 20.868 5.029 21.62C4.68433 22.3407 4.371 23.0927 4.089 23.876C3.807 24.628 3.666 25.286 3.666 25.85C3.666 26.8213 4.12033 27.495 5.029 27.871C5.93767 28.2157 7.05 28.4037 8.366 28.435C10.1833 28.435 11.9693 28.2627 13.724 27.918C15.51 27.542 17.1707 26.931 18.706 26.085C20.2727 25.2077 21.6357 24.0327 22.795 22.56C22.8577 22.4973 22.9047 22.466 22.936 22.466C23.03 22.466 23.0927 22.56 23.124 22.748C23.1553 22.9047 23.1397 23.03 23.077 23.124C22.1057 24.3147 21.1657 25.474 20.257 26.602C19.3483 27.6987 18.4397 28.388 17.531 28.67C16.873 28.858 15.8077 29.0147 14.335 29.14C12.8623 29.2967 11.233 29.375 9.447 29.375Z" fill="black"/>
    <path d="M25.5933 28.905C24.6533 28.905 24.011 28.6857 23.6663 28.247C23.3217 27.777 23.1493 27.213 23.1493 26.555C23.1493 25.6777 23.3373 24.7377 23.7133 23.735C24.1207 22.7323 24.4497 21.949 24.7003 21.385C24.293 21.8237 23.9013 22.2467 23.5253 22.654C23.1493 23.0613 22.883 23.359 22.7263 23.547C22.6323 23.6723 22.554 23.735 22.4913 23.735C22.4287 23.735 22.3973 23.6567 22.3973 23.5C22.3973 23.2493 22.4757 23.0143 22.6323 22.795C23.071 22.231 23.5723 21.6357 24.1363 21.009C24.7003 20.3823 25.2487 19.7243 25.7813 19.035C26.408 17.8757 27.0973 16.5283 27.8493 14.993C28.6327 13.4263 29.4317 11.8283 30.2463 10.199C31.0923 8.53833 31.907 7.01867 32.6903 5.64C33.505 4.23 34.2257 3.102 34.8523 2.256C35.385 2.03667 35.8863 1.75467 36.3563 1.41C36.8577 1.06533 37.3433 0.752 37.8133 0.47C38.3147 0.156667 38.8317 0 39.3643 0C39.709 0 39.9597 0.0939997 40.1163 0.281999C40.3043 0.470001 40.4297 0.689334 40.4923 0.939999C40.5237 1.034 40.5393 1.20633 40.5393 1.457C40.5393 2.17767 40.2887 3.055 39.7873 4.089C39.3173 5.123 38.7533 6.14133 38.0953 7.144C37.4687 8.11533 36.9203 8.91433 36.4503 9.541C35.197 11.2957 33.9123 12.8937 32.5963 14.335C31.2803 15.745 30.0897 16.9357 29.0243 17.907C27.9903 18.847 27.2383 19.5363 26.7683 19.975C26.549 20.3823 26.2827 20.9307 25.9693 21.62C25.6873 22.278 25.4367 22.983 25.2173 23.735C24.998 24.4557 24.8883 25.1293 24.8883 25.756C24.8883 26.2887 25.0137 26.743 25.2643 27.119C25.515 27.4637 25.938 27.636 26.5333 27.636C26.6273 27.636 26.7213 27.636 26.8153 27.636C26.9093 27.636 27.019 27.6203 27.1443 27.589C27.677 27.495 28.2567 27.1973 28.8833 26.696C29.51 26.1947 30.1367 25.615 30.7633 24.957C31.39 24.299 31.954 23.6723 32.4553 23.077C32.6747 22.8263 32.8783 22.5913 33.0663 22.372C33.2543 22.1213 33.3797 21.949 33.4423 21.855C33.6617 22.0743 33.646 22.3563 33.3953 22.701C33.176 23.0143 32.988 23.2807 32.8313 23.5C32.612 23.782 32.2987 24.1737 31.8913 24.675C31.484 25.145 31.014 25.662 30.4813 26.226C29.886 26.8213 29.1497 27.4167 28.2723 28.012C27.395 28.6073 26.502 28.905 25.5933 28.905ZM27.5673 18.095C28.5387 17.2803 29.7607 16.121 31.2333 14.617C32.7373 13.0817 34.21 11.233 35.6513 9.071C35.808 8.82033 36.0587 8.39733 36.4033 7.802C36.7793 7.20667 37.1553 6.533 37.5313 5.781C37.9387 4.99767 38.2833 4.24567 38.5653 3.525C38.8473 2.773 38.9883 2.13067 38.9883 1.598C38.9883 1.09667 38.8473 0.846 38.5653 0.846C38.2207 0.846 37.7663 1.14367 37.2023 1.739C36.5443 2.42833 35.7923 3.44667 34.9463 4.794C34.1317 6.11 33.27 7.58267 32.3613 9.212C31.4527 10.8413 30.5753 12.4393 29.7293 14.006C28.9147 15.5727 28.194 16.9357 27.5673 18.095Z" fill="black"/>
    <path d="M42.3191 10.857C41.8804 10.857 41.5671 10.716 41.3791 10.434C41.2538 10.2773 41.1911 10.0737 41.1911 9.823C41.1911 9.32167 41.4261 8.91434 41.8961 8.601C42.2408 8.413 42.5541 8.319 42.8361 8.319C43.3061 8.319 43.6351 8.46 43.8231 8.742C43.9484 8.89867 44.0111 9.10233 44.0111 9.353C44.0111 9.85433 43.7604 10.2617 43.2591 10.575C42.9771 10.763 42.6638 10.857 42.3191 10.857ZM34.1411 28.952C33.8278 28.952 33.5614 28.8893 33.3421 28.764C33.1541 28.6387 33.0601 28.4037 33.0601 28.059C33.0601 27.6203 33.1698 27.1033 33.3891 26.508C33.6398 25.9127 33.9061 25.3173 34.1881 24.722C34.5014 24.1267 34.7364 23.641 34.8931 23.265C35.1124 22.8263 35.3788 22.2623 35.6921 21.573C36.0368 20.8523 36.3501 20.1787 36.6321 19.552C36.9454 18.894 37.1648 18.4397 37.2901 18.189C36.8514 18.659 36.3188 19.2543 35.6921 19.975C35.0968 20.6643 34.5328 21.338 34.0001 21.996C33.4674 22.654 33.0601 23.171 32.7781 23.547C32.6841 23.6723 32.6058 23.735 32.5431 23.735C32.4804 23.735 32.4491 23.6567 32.4491 23.5C32.4491 23.2493 32.5274 23.0143 32.6841 22.795C33.2794 22.043 33.9374 21.197 34.6581 20.257C35.4101 19.317 36.0838 18.4553 36.6791 17.672C37.2744 16.8573 37.6504 16.3247 37.8071 16.074C38.1518 16.0113 38.6531 15.9173 39.3111 15.792C40.0004 15.6667 40.4704 15.4943 40.7211 15.275C40.8151 15.181 40.9091 15.134 41.0031 15.134C41.0658 15.134 41.0971 15.1967 41.0971 15.322C41.1284 15.416 41.0971 15.5257 41.0031 15.651C40.8151 15.8703 40.4861 16.403 40.0161 17.249C39.5461 18.095 39.0448 19.035 38.5121 20.069C38.0108 21.0717 37.5408 21.9803 37.1021 22.795C36.6634 23.641 36.2874 24.4557 35.9741 25.239C35.6608 26.0223 35.5041 26.5863 35.5041 26.931C35.5041 27.3697 35.7234 27.589 36.1621 27.589C36.5694 27.589 37.0864 27.3383 37.7131 26.837C38.3711 26.3357 39.0291 25.7403 39.6871 25.051C40.3451 24.3303 40.9248 23.6723 41.4261 23.077C41.5828 22.889 41.7708 22.6697 41.9901 22.419C42.2408 22.137 42.3974 21.9647 42.4601 21.902C42.5228 21.9647 42.5541 22.0743 42.5541 22.231C42.5228 22.4503 42.4444 22.6697 42.3191 22.889C42.1938 23.077 42.0684 23.2493 41.9431 23.406C41.2851 24.2207 40.5644 25.0667 39.7811 25.944C38.9978 26.79 38.1361 27.5107 37.1961 28.106C36.2561 28.67 35.2378 28.952 34.1411 28.952Z" fill="black"/>
    <path d="M49.1051 29.093C48.7918 29.093 48.4784 29.0147 48.1651 28.858C47.7578 28.67 47.3661 28.294 46.9901 27.73C46.6141 27.166 46.3008 26.5707 46.0501 25.944C45.7994 25.3173 45.6271 24.8003 45.5331 24.393C44.6558 25.145 43.9038 25.8813 43.2771 26.602C42.6504 27.3227 41.9298 28.0903 41.1151 28.905C41.0211 28.999 40.7861 29.046 40.4101 29.046C40.1908 29.046 39.9714 29.0147 39.7521 28.952C39.5328 28.8893 39.4231 28.7953 39.4231 28.67C39.4231 28.5133 39.5171 28.3723 39.7051 28.247C40.8018 27.3697 41.7574 26.6177 42.5721 25.991C43.3868 25.333 44.3268 24.5653 45.3921 23.688C45.3608 23.5313 45.2981 23.1867 45.2041 22.654C45.1101 22.1213 45.0004 21.5417 44.8751 20.915C44.7811 20.2883 44.7028 19.74 44.6401 19.27C44.5774 18.7687 44.5461 18.471 44.5461 18.377C44.6088 18.001 44.8124 17.672 45.1571 17.39C45.5018 17.0767 45.8934 16.8417 46.3321 16.685C46.8021 16.497 47.2094 16.403 47.5541 16.403C47.9928 16.403 48.2121 16.5127 48.2121 16.732C48.2121 16.8573 48.0868 16.92 47.8361 16.92C47.4288 16.92 47.1781 17.0923 47.0841 17.437C46.9901 17.7817 46.9274 18.0637 46.8961 18.283C46.8648 18.471 46.8334 18.659 46.8021 18.847C46.8021 19.035 46.8021 19.223 46.8021 19.411C46.8021 19.881 46.8334 20.351 46.8961 20.821C46.9588 21.291 47.0371 21.7453 47.1311 22.184C47.2878 22.0587 47.6011 21.808 48.0711 21.432C48.5411 21.056 49.0894 20.6173 49.7161 20.116C50.3428 19.6147 50.9694 19.1133 51.5961 18.612C52.2228 18.1107 52.7554 17.6877 53.1941 17.343C53.6328 16.9983 53.8991 16.7947 53.9931 16.732C54.3691 16.4813 54.8234 16.3717 55.3561 16.403C55.9201 16.403 56.4058 16.403 56.8131 16.403C56.9071 16.403 56.9541 16.497 56.9541 16.685C56.9541 16.967 56.8914 17.108 56.7661 17.108C56.3274 17.1393 55.8731 17.249 55.4031 17.437C54.9644 17.5937 54.6198 17.7347 54.3691 17.86C53.6484 18.1733 52.8494 18.6433 51.9721 19.27C51.1261 19.8653 50.2958 20.492 49.4811 21.15C48.6664 21.7767 47.9458 22.3563 47.3191 22.889C47.3818 23.171 47.5071 23.6567 47.6951 24.346C47.9144 25.0353 48.1808 25.6933 48.4941 26.32C48.8701 27.1347 49.3244 27.542 49.8571 27.542C50.2958 27.542 50.7188 27.2913 51.1261 26.79C51.5334 26.2887 51.8781 25.7247 52.1601 25.098C52.4734 24.44 52.6771 23.8917 52.7711 23.453C52.8338 23.265 52.9121 23.171 53.0061 23.171C53.2254 23.171 53.3038 23.3433 53.2411 23.688C53.0844 24.4087 52.8181 25.192 52.4421 26.038C52.0661 26.884 51.5961 27.6047 51.0321 28.2C50.4681 28.7953 49.8258 29.093 49.1051 29.093Z" fill="black"/>
    <path d="M65.406 10.857C64.9673 10.857 64.654 10.716 64.466 10.434C64.3407 10.2773 64.278 10.0737 64.278 9.823C64.278 9.32167 64.513 8.91434 64.983 8.601C65.3277 8.413 65.641 8.319 65.923 8.319C66.393 8.319 66.722 8.46 66.91 8.742C67.0353 8.89867 67.098 9.10233 67.098 9.353C67.098 9.85433 66.8473 10.2617 66.346 10.575C66.064 10.763 65.7507 10.857 65.406 10.857ZM57.228 28.952C56.9147 28.952 56.6483 28.8893 56.429 28.764C56.241 28.6387 56.147 28.4037 56.147 28.059C56.147 27.6203 56.2567 27.1033 56.476 26.508C56.7267 25.9127 56.993 25.3173 57.275 24.722C57.5883 24.1267 57.8233 23.641 57.98 23.265C58.1993 22.8263 58.4657 22.2623 58.779 21.573C59.1237 20.8523 59.437 20.1787 59.719 19.552C60.0323 18.894 60.2517 18.4397 60.377 18.189C59.9383 18.659 59.4057 19.2543 58.779 19.975C58.1837 20.6643 57.6197 21.338 57.087 21.996C56.5543 22.654 56.147 23.171 55.865 23.547C55.771 23.6723 55.6927 23.735 55.63 23.735C55.5673 23.735 55.536 23.6567 55.536 23.5C55.536 23.2493 55.6143 23.0143 55.771 22.795C56.3663 22.043 57.0243 21.197 57.745 20.257C58.497 19.317 59.1707 18.4553 59.766 17.672C60.3613 16.8573 60.7373 16.3247 60.894 16.074C61.2387 16.0113 61.74 15.9173 62.398 15.792C63.0873 15.6667 63.5573 15.4943 63.808 15.275C63.902 15.181 63.996 15.134 64.09 15.134C64.1527 15.134 64.184 15.1967 64.184 15.322C64.2153 15.416 64.184 15.5257 64.09 15.651C63.902 15.8703 63.573 16.403 63.103 17.249C62.633 18.095 62.1317 19.035 61.599 20.069C61.0977 21.0717 60.6277 21.9803 60.189 22.795C59.7503 23.641 59.3743 24.4557 59.061 25.239C58.7477 26.0223 58.591 26.5863 58.591 26.931C58.591 27.3697 58.8103 27.589 59.249 27.589C59.6563 27.589 60.1733 27.3383 60.8 26.837C61.458 26.3357 62.116 25.7403 62.774 25.051C63.432 24.3303 64.0117 23.6723 64.513 23.077C64.6697 22.889 64.8577 22.6697 65.077 22.419C65.3277 22.137 65.4843 21.9647 65.547 21.902C65.6097 21.9647 65.641 22.0743 65.641 22.231C65.6097 22.4503 65.5313 22.6697 65.406 22.889C65.2807 23.077 65.1553 23.2493 65.03 23.406C64.372 24.2207 63.6513 25.0667 62.868 25.944C62.0847 26.79 61.223 27.5107 60.283 28.106C59.343 28.67 58.3247 28.952 57.228 28.952Z" fill="black"/>
    <path d="M64.954 29.469C64.8287 29.469 64.8287 29.3437 64.954 29.093C65.1107 28.811 65.2517 28.4977 65.377 28.153C65.5337 27.8083 65.6903 27.4323 65.847 27.025C66.1603 26.273 66.505 25.427 66.881 24.487C67.257 23.547 67.6173 22.6383 67.962 21.761C68.3067 20.8523 68.6043 20.0847 68.855 19.458C69.137 18.8 69.325 18.377 69.419 18.189C68.9803 18.659 68.4477 19.2543 67.821 19.975C67.2257 20.6643 66.6617 21.338 66.129 21.996C65.5963 22.654 65.189 23.171 64.907 23.547C64.813 23.6723 64.7347 23.735 64.672 23.735C64.6093 23.735 64.578 23.6567 64.578 23.5C64.578 23.2493 64.6563 23.0143 64.813 22.795C65.4083 22.043 66.0663 21.197 66.787 20.257C67.539 19.317 68.2127 18.4553 68.808 17.672C69.4033 16.8573 69.7793 16.3247 69.936 16.074C70.2807 16.0113 70.782 15.9173 71.44 15.792C72.1293 15.6667 72.5993 15.4943 72.85 15.275C72.944 15.181 73.038 15.134 73.132 15.134C73.1947 15.134 73.226 15.1967 73.226 15.322C73.2573 15.416 73.226 15.5257 73.132 15.651C72.944 15.839 72.662 16.2463 72.286 16.873C71.9413 17.4997 71.5497 18.2203 71.111 19.035C70.6723 19.8497 70.2493 20.633 69.842 21.385C70.1553 20.915 70.5627 20.3667 71.064 19.74C71.5967 19.082 72.1763 18.4553 72.803 17.86C73.4297 17.2333 74.0563 16.7163 74.683 16.309C75.341 15.9017 75.952 15.698 76.516 15.698C76.9233 15.698 77.268 15.792 77.55 15.98C77.832 16.1367 78.0513 16.4343 78.208 16.873C78.302 17.0923 78.349 17.343 78.349 17.625C78.349 18.1577 78.208 18.6747 77.926 19.176C77.6753 19.646 77.4873 20.0063 77.362 20.257C77.3307 20.351 77.221 20.445 77.033 20.539C76.845 20.6017 76.7667 20.5703 76.798 20.445C76.8293 20.2883 76.845 20.1317 76.845 19.975C76.8763 19.8183 76.892 19.646 76.892 19.458C76.892 18.9253 76.7823 18.4397 76.563 18.001C76.375 17.5623 76.0147 17.343 75.482 17.343C74.9807 17.343 74.3697 17.6563 73.649 18.283C72.9283 18.9097 72.2077 19.6303 71.487 20.445C70.5783 21.5103 69.8577 22.5287 69.325 23.5C68.7923 24.44 68.3537 25.3643 68.009 26.273C67.821 26.7743 67.633 27.2757 67.445 27.777C67.257 28.247 67.116 28.623 67.022 28.905C66.6147 28.9363 66.2073 29.0303 65.8 29.187C65.3927 29.375 65.1107 29.469 64.954 29.469Z" fill="black"/>
    <path d="M86.2197 22.043C85.8437 22.0117 85.4363 21.9803 84.9977 21.949C84.5903 21.8863 84.0733 21.855 83.4467 21.855C82.726 21.855 82.0523 21.8707 81.4257 21.902C80.8303 21.902 80.1723 21.9333 79.4517 21.996C79.389 21.996 79.4203 21.8863 79.5457 21.667C79.671 21.4477 79.8277 21.2283 80.0157 21.009C80.235 20.7897 80.3917 20.6957 80.4857 20.727C80.8303 20.7897 81.269 20.8367 81.8017 20.868C82.3657 20.868 82.9453 20.8837 83.5407 20.915C84.3553 20.915 85.076 20.8993 85.7027 20.868C86.3293 20.8367 86.8463 20.8053 87.2537 20.774C87.3163 20.774 87.285 20.8837 87.1597 21.103C87.0343 21.3223 86.8777 21.5417 86.6897 21.761C86.5017 21.949 86.345 22.043 86.2197 22.043Z" fill="black"/>
    <path d="M93.9288 29.234C93.2081 29.234 92.4091 29.1713 91.5318 29.046C90.6858 28.952 90.0434 28.7797 89.6048 28.529C89.4794 28.4663 89.3541 28.3567 89.2288 28.2C89.1034 28.012 89.1034 27.8083 89.2288 27.589C89.3228 27.401 89.4481 27.072 89.6048 26.602C89.7614 26.132 89.9181 25.6307 90.0748 25.098C90.2314 24.5653 90.3568 24.1267 90.4508 23.782L91.4848 23.359C91.4221 23.453 91.3124 23.7193 91.1558 24.158C91.0304 24.5967 90.9364 24.9413 90.8738 25.192C90.8424 25.286 90.8268 25.38 90.8268 25.474C90.8268 25.568 90.8268 25.662 90.8268 25.756C90.8268 26.6333 91.0304 27.2443 91.4378 27.589C91.6884 27.8397 92.0488 28.0277 92.5188 28.153C92.9888 28.2783 93.4744 28.341 93.9758 28.341C95.3231 28.341 96.4668 28.059 97.4068 27.495C98.3781 26.8997 99.1614 26.1633 99.7568 25.286C100.383 24.4087 100.838 23.5 101.12 22.56C101.308 21.9333 101.402 21.4007 101.402 20.962C101.402 20.022 101.073 19.3483 100.415 18.941C99.7881 18.5023 99.0048 18.236 98.0648 18.142C97.1248 18.0167 96.1691 17.954 95.1978 17.954C95.3544 17.766 95.4954 17.5937 95.6208 17.437C95.7461 17.2803 95.8088 17.202 95.8088 17.202C96.0281 17.1393 96.1848 17.108 96.2788 17.108C96.3728 17.108 96.4981 17.0923 96.6548 17.061C97.3441 16.9043 98.1431 16.685 99.0518 16.403C99.9918 16.0897 100.853 15.651 101.637 15.087C102.451 14.4917 103.015 13.6927 103.329 12.69C103.454 12.3453 103.517 11.985 103.517 11.609C103.517 10.8883 103.235 10.293 102.671 9.823C102.138 9.32167 101.355 9.071 100.321 9.071C99.8194 9.071 99.2868 9.13367 98.7228 9.259C98.1588 9.38433 97.6888 9.57233 97.3128 9.823C96.9681 10.0423 96.6078 10.4027 96.2318 10.904C95.8871 11.374 95.6521 11.8283 95.5268 12.267C95.4641 12.4863 95.3701 12.831 95.2448 13.301C95.1508 13.771 95.1194 14.053 95.1508 14.147L94.1638 14.664C94.2891 14.288 94.4301 13.7553 94.5868 13.066C94.7434 12.3453 94.8844 11.656 95.0098 10.998C95.1664 10.34 95.2448 9.917 95.2448 9.729C95.2448 9.47833 95.3388 9.27467 95.5268 9.118C95.7461 8.96133 95.9341 8.85167 96.0908 8.789C96.4041 8.66367 96.9211 8.554 97.6418 8.46C98.3938 8.33467 99.0674 8.25633 99.6628 8.225L100.697 8.178C102.169 8.11533 103.313 8.272 104.128 8.648C104.723 8.93 105.146 9.306 105.397 9.776C105.647 10.2147 105.773 10.6847 105.773 11.186C105.773 11.4053 105.757 11.609 105.726 11.797C105.694 11.985 105.647 12.173 105.585 12.361C105.271 13.395 104.629 14.3193 103.658 15.134C102.718 15.9173 101.543 16.544 100.133 17.014C99.6941 17.1393 99.4748 17.249 99.4748 17.343C99.4748 17.4057 99.5688 17.4527 99.7568 17.484C99.9448 17.5153 100.133 17.5467 100.321 17.578C101.041 17.6407 101.684 17.813 102.248 18.095C102.843 18.377 103.266 18.8313 103.517 19.458C103.642 19.74 103.705 20.1003 103.705 20.539C103.705 21.1343 103.579 21.7923 103.329 22.513C103.109 23.2337 102.843 23.9073 102.53 24.534C102.216 25.1293 101.919 25.5993 101.637 25.944C100.853 26.9153 99.8508 27.7143 98.6288 28.341C97.4068 28.9363 95.8401 29.234 93.9288 29.234Z" fill="black"/>
    <path d="M109.836 28.999C108.113 28.999 106.922 28.5447 106.264 27.636C105.606 26.7273 105.277 25.615 105.277 24.299C105.277 23.4217 105.387 22.513 105.606 21.573C105.825 20.6017 106.092 19.6773 106.405 18.8C107.063 17.014 107.94 15.2907 109.037 13.63C110.165 11.938 111.512 10.5593 113.079 9.494C114.677 8.39734 116.494 7.849 118.531 7.849C119.095 7.849 119.628 7.896 120.129 7.99C120.662 8.05267 121.132 8.19367 121.539 8.413C121.664 8.44433 121.774 8.53833 121.868 8.695C121.993 8.82033 121.993 8.977 121.868 9.165C121.743 9.41567 121.555 9.93267 121.304 10.716C121.053 11.468 120.865 12.079 120.74 12.549L119.894 12.925C119.957 12.831 120.051 12.596 120.176 12.22C120.301 11.844 120.395 11.5463 120.458 11.327C120.489 11.233 120.505 11.139 120.505 11.045C120.505 10.951 120.505 10.857 120.505 10.763C120.505 10.0737 120.348 9.57233 120.035 9.259C119.816 9.03967 119.534 8.89867 119.189 8.836C118.876 8.742 118.531 8.695 118.155 8.695C117.058 8.695 115.977 9.024 114.912 9.682C113.878 10.34 112.954 11.1703 112.139 12.173C111.324 13.1443 110.682 14.1157 110.212 15.087C109.961 15.5883 109.711 16.1367 109.46 16.732C109.241 17.296 109.068 17.8287 108.943 18.33C109.444 17.954 109.946 17.6407 110.447 17.39C110.98 17.1393 111.434 16.8887 111.81 16.638C112.155 16.4187 112.64 16.262 113.267 16.168C113.925 16.074 114.489 16.027 114.959 16.027C116.494 16.027 117.591 16.45 118.249 17.296C118.907 18.1107 119.236 19.082 119.236 20.21C119.236 21.3693 118.923 22.56 118.296 23.782C117.701 24.9727 116.902 25.9127 115.899 26.602C115.46 26.884 115.022 27.1347 114.583 27.354C114.144 27.5733 113.674 27.8553 113.173 28.2C112.766 28.482 112.217 28.6857 111.528 28.811C110.839 28.9363 110.275 28.999 109.836 28.999ZM111.481 27.777C112.202 27.777 112.907 27.6047 113.596 27.26C114.755 26.6333 115.57 25.756 116.04 24.628C116.541 23.5 116.792 22.419 116.792 21.385C116.792 20.915 116.745 20.4763 116.651 20.069C116.494 19.2543 116.118 18.5963 115.523 18.095C114.959 17.5937 114.254 17.343 113.408 17.343C112.813 17.343 112.186 17.484 111.528 17.766C110.181 18.3613 109.194 19.3483 108.567 20.727C108.285 21.3223 108.05 21.9177 107.862 22.513C107.705 23.077 107.627 23.641 107.627 24.205C107.627 24.9883 107.815 25.6933 108.191 26.32C108.567 26.9153 109.194 27.3383 110.071 27.589C110.478 27.7143 110.948 27.777 111.481 27.777Z" fill="black"/>
    <path d="M123.557 28.999C122.993 28.999 122.46 28.952 121.959 28.858C121.458 28.7953 120.988 28.6543 120.549 28.435C120.455 28.3723 120.345 28.2783 120.22 28.153C120.126 28.0277 120.142 27.8553 120.267 27.636C120.392 27.3853 120.58 26.884 120.831 26.132C121.082 25.38 121.27 24.769 121.395 24.299L122.241 23.923C122.178 23.9857 122.084 24.205 121.959 24.581C121.834 24.957 121.74 25.2703 121.677 25.521C121.646 25.615 121.63 25.709 121.63 25.803C121.63 25.897 121.63 25.991 121.63 26.085C121.63 26.743 121.787 27.2287 122.1 27.542C122.351 27.7613 122.633 27.918 122.946 28.012C123.259 28.0747 123.604 28.106 123.98 28.106C125.108 28.106 126.173 27.777 127.176 27.119C128.21 26.461 129.134 25.6463 129.949 24.675C130.795 23.6723 131.453 22.6853 131.923 21.714C132.174 21.1813 132.409 20.6487 132.628 20.116C132.879 19.552 133.067 19.0193 133.192 18.518C132.691 18.8627 132.174 19.1603 131.641 19.411C131.14 19.6617 130.701 19.9123 130.325 20.163C129.98 20.3823 129.479 20.539 128.821 20.633C128.163 20.727 127.599 20.774 127.129 20.774C125.594 20.774 124.497 20.3667 123.839 19.552C123.181 18.7373 122.852 17.766 122.852 16.638C122.852 15.4787 123.165 14.3037 123.792 13.113C124.419 11.891 125.233 10.9353 126.236 10.246C126.675 9.93267 127.113 9.66633 127.552 9.447C127.991 9.22767 128.445 8.96133 128.915 8.648C129.354 8.366 129.902 8.16233 130.56 8.037C131.249 7.91167 131.829 7.849 132.299 7.849C134.022 7.849 135.213 8.30333 135.871 9.212C136.529 10.0893 136.858 11.186 136.858 12.502C136.858 13.348 136.748 14.2567 136.529 15.228C136.31 16.168 136.028 17.0923 135.683 18.001C135.213 19.317 134.602 20.633 133.85 21.949C133.098 23.2337 132.221 24.4087 131.218 25.474C130.215 26.5393 129.072 27.401 127.787 28.059C126.502 28.6857 125.092 28.999 123.557 28.999ZM128.821 19.411C129.824 19.411 130.748 19.0977 131.594 18.471C132.44 17.8443 133.098 17.061 133.568 16.121C133.85 15.5257 134.069 14.9303 134.226 14.335C134.414 13.7397 134.508 13.1757 134.508 12.643C134.508 11.8597 134.32 11.1703 133.944 10.575C133.568 9.94833 132.941 9.50967 132.064 9.259C131.531 9.10233 131.046 9.024 130.607 9.024C129.698 9.024 128.837 9.306 128.022 9.87C127.207 10.434 126.534 11.2643 126.001 12.361C125.719 12.9563 125.484 13.5517 125.296 14.147C125.139 14.7423 125.061 15.3063 125.061 15.839C125.061 16.6223 125.265 17.3273 125.672 17.954C126.079 18.5807 126.753 19.0193 127.693 19.27C128.069 19.364 128.445 19.411 128.821 19.411Z" fill="black"/>
</svg>
