<svg width="20" height="20" viewBox="0 0 20 20" fill="none" xmlns="http://www.w3.org/2000/svg">
    <path d="M13.3333 2.5H0.833313V13.3333H13.3333V2.5Z" stroke="#222222" stroke-width="1.35" stroke-linecap="round" stroke-linejoin="round"/>
    <path d="M13.3333 6.6665H16.6666L19.1666 9.1665V13.3332H13.3333V6.6665Z" stroke="#222222" stroke-width="1.35" stroke-linecap="round" stroke-linejoin="round"/>
    <path d="M4.58333 17.5002C5.73393 17.5002 6.66667 16.5674 6.66667 15.4168C6.66667 14.2662 5.73393 13.3335 4.58333 13.3335C3.43274 13.3335 2.5 14.2662 2.5 15.4168C2.5 16.5674 3.43274 17.5002 4.58333 17.5002Z" stroke="#222222" stroke-width="1.35" stroke-linecap="round" stroke-linejoin="round"/>
    <path d="M15.4166 17.5002C16.5672 17.5002 17.5 16.5674 17.5 15.4168C17.5 14.2662 16.5672 13.3335 15.4166 13.3335C14.2661 13.3335 13.3333 14.2662 13.3333 15.4168C13.3333 16.5674 14.2661 17.5002 15.4166 17.5002Z" stroke="#222222" stroke-width="1.35" stroke-linecap="round" stroke-linejoin="round"/>
</svg>
