<svg width="23" height="16" viewBox="0 0 23 16" fill="none" xmlns="http://www.w3.org/2000/svg">
    <path d="M6.75 7.875C8.92617 7.875 10.6875 6.11367 10.6875 3.9375C10.6875 1.76133 8.92617 0 6.75 0C4.57383 0 2.8125 1.76133 2.8125 3.9375C2.8125 6.11367 4.57383 7.875 6.75 7.875ZM9.45 9H9.1582C8.42695 9.35156 7.61484 9.5625 6.75 9.5625C5.88516 9.5625 5.07656 9.35156 4.3418 9H4.05C1.81406 9 0 10.8141 0 13.05V14.0625C0 14.9941 0.755859 15.75 1.6875 15.75H11.8125C12.7441 15.75 13.5 14.9941 13.5 14.0625V13.05C13.5 10.8141 11.6859 9 9.45 9ZM16.875 7.875C18.7383 7.875 20.25 6.36328 20.25 4.5C20.25 2.63672 18.7383 1.125 16.875 1.125C15.0117 1.125 13.5 2.63672 13.5 4.5C13.5 6.36328 15.0117 7.875 16.875 7.875ZM18.5625 9H18.4289C17.9402 9.16875 17.4234 9.28125 16.875 9.28125C16.3266 9.28125 15.8098 9.16875 15.3211 9H15.1875C14.4703 9 13.8094 9.20742 13.2293 9.54141C14.0871 10.466 14.625 11.693 14.625 13.05V14.4C14.625 14.4773 14.6074 14.5512 14.6039 14.625H20.8125C21.7441 14.625 22.5 13.8691 22.5 12.9375C22.5 10.7613 20.7387 9 18.5625 9Z" fill="#878787"/>
</svg>
