<svg width="24" height="24" viewBox="0 0 24 24" fill="none" xmlns="http://www.w3.org/2000/svg">
    <path d="M18 2C18.2652 2 18.5196 2.10536 18.7071 2.29289C18.8946 2.48043 19 2.73478 19 3V11.529C18.1368 10.7569 17.0685 10.2511 15.9242 10.0727C14.7798 9.89435 13.6083 10.051 12.551 10.5237C11.4937 10.9964 10.5958 11.765 9.96574 12.7368C9.33563 13.7085 9.00022 14.8418 9 16C9 19.238 11.76 22 15 22H4C3.73478 22 3.48043 21.8946 3.29289 21.7071C3.10536 21.5196 3 21.2652 3 21V3C3 2.73478 3.10536 2.48043 3.29289 2.29289C3.48043 2.10536 3.73478 2 4 2H18ZM15 12C15.7053 11.9999 16.3982 12.1863 17.0082 12.5403C17.6183 12.8943 18.1239 13.4034 18.4738 14.0158C18.8236 14.6283 19.0054 15.3223 19.0005 16.0276C18.9956 16.733 18.8043 17.4245 18.446 18.032L20.656 20.242L19.243 21.657L17.032 19.447C16.5021 19.7589 15.9075 19.9445 15.2943 19.9894C14.681 20.0342 14.0657 19.937 13.4961 19.7054C12.9265 19.4739 12.418 19.1141 12.01 18.654C11.602 18.194 11.3056 17.6461 11.1437 17.053C10.9819 16.4598 10.959 15.8373 11.0767 15.2338C11.1945 14.6303 11.4499 14.0621 11.8229 13.5733C12.1959 13.0845 12.6766 12.6883 13.2276 12.4154C13.7786 12.1426 14.3851 12.0004 15 12ZM15 14C14.4696 14 13.9609 14.2107 13.5858 14.5858C13.2107 14.9609 13 15.4696 13 16C13 16.5304 13.2107 17.0391 13.5858 17.4142C13.9609 17.7893 14.4696 18 15 18C15.5304 18 16.0391 17.7893 16.4142 17.4142C16.7893 17.0391 17 16.5304 17 16C17 15.4696 16.7893 14.9609 16.4142 14.5858C16.0391 14.2107 15.5304 14 15 14Z" fill="#878787"/>
</svg>
