<svg width="44" height="45" viewBox="0 0 44 45" fill="none" xmlns="http://www.w3.org/2000/svg">
    <rect width="43.8433" height="45" rx="4" fill="#1C2B1A"/>
    <path d="M32.9719 30.3918C32.3183 31.1074 31.6334 31.7514 30.8793 32.3492C30.7906 32.4195 30.6629 32.3354 30.6926 32.2259C31.1153 30.6668 31.8538 29.126 32.9923 27.9806C33.0434 28.7824 33.0442 29.591 32.9719 30.3918ZM32.9922 27.9799C33.6495 28.776 34.2143 29.599 34.7233 30.4876C34.7815 30.5892 34.9363 30.5529 34.9422 30.4359C35.034 28.6157 34.341 26.486 32.6527 25.6271C32.821 26.4011 32.9422 27.1888 32.9922 27.9799Z" fill="url(#paint0_linear_0_1)"/>
    <path d="M32.6527 25.6246C32.239 26.4787 31.776 27.2735 31.2333 28.0438C31.1689 28.1352 31.0245 28.0933 31.0198 27.9815C30.9537 26.4092 31.2225 24.7471 31.9732 23.367C32.2514 24.1016 32.4862 24.8561 32.6527 25.6246ZM31.973 23.3664C32.8265 23.9168 33.6062 24.5188 34.3541 25.1948C34.4404 25.2728 34.5757 25.1914 34.5465 25.0786C34.0959 23.3401 32.8075 21.556 30.9731 21.2409C31.3544 21.9243 31.696 22.6336 31.973 23.3664Z" fill="url(#paint1_linear_0_1)"/>
    <path d="M30.9736 21.2413C30.8241 22.1732 30.6102 23.0621 30.3126 23.9509C30.2771 24.0566 30.1276 24.0586 30.0905 23.9535C29.5699 22.4784 29.359 20.8142 29.6731 19.2849C30.1505 19.905 30.5923 20.5568 30.9736 21.2413ZM29.6727 19.2844C30.6457 19.561 31.5648 19.9069 32.4751 20.331C32.5803 20.38 32.6857 20.2626 32.625 20.1633C31.6891 18.6316 29.9368 17.3053 28.0911 17.5339C28.6577 18.0786 29.1931 18.6605 29.6727 19.2844Z" fill="url(#paint2_linear_0_1)"/>
    <path d="M28.0915 17.5335C28.2242 18.4724 28.2806 19.3881 28.2545 20.3294C28.2515 20.441 28.1088 20.4867 28.0428 20.3969C27.1106 19.1285 26.4152 17.5878 26.2488 16.0258C26.897 16.4829 27.5194 16.9827 28.0915 17.5335ZM11.0211 30.3879C11.6746 31.1035 12.3595 31.7475 13.1136 32.3453C13.2023 32.4156 13.33 32.3314 13.3003 32.222C12.8776 30.6629 12.1391 29.1221 11.0006 27.9767C10.9495 28.7785 10.9487 29.5871 11.0211 30.3879ZM11.0007 27.976C10.3434 28.7721 9.77861 29.5951 9.26962 30.4837C9.21144 30.5853 9.05665 30.549 9.05073 30.432C8.95894 28.6118 9.65191 26.4821 11.3402 25.6231C11.1719 26.3972 11.0507 27.1849 11.0007 27.976Z" fill="url(#paint3_linear_0_1)"/>
    <path d="M11.3409 25.6285C11.7545 26.4826 12.2176 27.2774 12.7603 28.0477C12.8247 28.1391 12.969 28.0972 12.9738 27.9854C13.0399 26.4131 12.771 24.751 12.0203 23.3709C11.7421 24.1055 11.5074 24.86 11.3409 25.6285ZM12.0205 23.3703C11.1671 23.9207 10.3874 24.5227 9.63949 25.1987C9.55322 25.2767 9.41786 25.1953 9.44711 25.0825C9.89765 23.344 11.1861 21.5599 13.0205 21.2448C12.6392 21.9282 12.2976 22.6375 12.0205 23.3703Z" fill="url(#paint4_linear_0_1)"/>
    <path d="M13.019 21.2413C13.1685 22.1732 13.3823 23.0621 13.68 23.9509C13.7154 24.0566 13.865 24.0586 13.902 23.9535C14.4227 22.4784 14.6336 20.8142 14.3194 19.2849C13.842 19.905 13.4003 20.5568 13.019 21.2413ZM14.3199 19.2844C13.3469 19.561 12.4278 19.9069 11.5175 20.331C11.4123 20.38 11.3069 20.2626 11.3675 20.1633C12.3034 18.6316 14.0557 17.3053 15.9014 17.5339C15.3348 18.0786 14.7994 18.6605 14.3199 19.2844Z" fill="url(#paint5_linear_0_1)"/>
    <path d="M15.9015 17.5344C15.7687 18.4733 15.7123 19.389 15.7384 20.3303C15.7415 20.4418 15.8841 20.4876 15.9501 20.3977C16.8823 19.1294 17.5777 17.5887 17.7441 16.0266C17.0959 16.4838 16.4736 16.9835 15.9015 17.5344Z" fill="url(#paint6_linear_0_1)"/>
    <path d="M10.6446 30.3575C10.6448 30.3652 10.6446 30.3729 10.6452 30.3806C10.7346 31.5744 10.9538 32.771 11.2969 33.9373C11.3262 34.0371 11.3939 34.1211 11.485 34.1709C11.5761 34.2206 11.6831 34.232 11.7826 34.2025C11.882 34.1731 11.9657 34.1052 12.0153 34.0138C12.0649 33.9224 12.0762 33.815 12.0469 33.7151C11.7227 32.6132 11.5148 31.4834 11.428 30.3563C11.4278 30.3479 11.4277 30.3395 11.427 30.3309C11.3611 29.6023 11.3545 28.8127 11.4073 27.984C11.4074 27.9837 11.4074 27.9833 11.4074 27.983C11.4529 27.2635 11.5642 26.493 11.7381 25.693L11.7381 25.6928C11.8895 24.9939 12.1123 24.2543 12.4 23.4946L12.4002 23.4939C12.6525 22.8267 12.9802 22.1304 13.3741 21.4244C13.7215 20.8008 14.1476 20.1599 14.6408 19.5192L14.641 19.5189L14.6413 19.5186C15.0784 18.9501 15.5964 18.3768 16.1811 17.8146L16.1811 17.8145C16.7022 17.3128 17.3057 16.8191 17.9752 16.347C17.9776 16.3453 17.9797 16.3433 17.9821 16.3416C17.9844 16.3399 17.9868 16.3385 17.989 16.3367C19.1152 15.4684 19.6859 15.2518 20.29 15.0226C20.7686 14.841 21.2571 14.6552 21.9962 14.1607C22.7354 14.6552 23.2239 14.841 23.7024 15.0226C24.3066 15.2518 24.8773 15.4684 26.0034 16.3367C26.0057 16.3385 26.0081 16.3398 26.0104 16.3415C26.0127 16.3433 26.0149 16.3453 26.0173 16.347C26.6868 16.8191 27.2904 17.3128 27.8114 17.8145L27.8114 17.8146C28.3961 18.3768 28.9142 18.9501 29.3513 19.5186L29.3515 19.5189L29.3518 19.5192C29.8449 20.1598 30.2711 20.8008 30.6184 21.4244C31.0124 22.1304 31.3401 22.8267 31.5923 23.4938L31.5923 23.4939L31.5926 23.4946C31.8804 24.2543 32.1031 24.9939 32.2546 25.6928L32.2546 25.693C32.4286 26.493 32.5398 27.2635 32.5852 27.983L32.5853 27.984C32.6382 28.8126 32.6316 29.6023 32.5657 30.3309C32.5649 30.3395 32.5649 30.3479 32.5647 30.3563C32.4779 31.4834 32.2699 32.6132 31.9458 33.7151C31.9164 33.815 31.9278 33.9224 31.9774 34.0138C32.0269 34.1052 32.1107 34.1731 32.2101 34.2025C32.417 34.264 32.6347 34.1452 32.6958 33.9373C33.0389 32.771 33.2581 31.5744 33.3475 30.3806C33.3481 30.3729 33.3479 30.3652 33.348 30.3575C33.4138 29.6011 33.42 28.7862 33.3656 27.9338L33.3656 27.9333C33.3177 27.175 33.201 26.3656 33.0189 25.5277L33.0187 25.526C32.859 24.7892 32.6252 24.012 32.3237 23.216C32.3236 23.2158 32.3236 23.2156 32.3235 23.2154C32.0577 22.5125 31.7138 21.7812 31.3013 21.0419L31.301 21.0414C30.9349 20.3842 30.4873 19.7106 29.9706 19.0395L29.9704 19.0393L29.9704 19.0392C29.5095 18.4397 28.9651 17.837 28.3522 17.2477L28.3517 17.2472C27.804 16.72 27.1721 16.2027 26.4734 15.7095C25.2599 14.7746 24.6087 14.5275 23.9791 14.2886C23.5872 14.1399 23.2057 13.9949 22.6776 13.6689C23.0819 13.3579 23.5501 12.9677 24.1057 12.4688C24.1648 12.4158 24.2064 12.3461 24.225 12.2689C24.2437 12.1916 24.2386 12.1105 24.2103 12.0363C24.182 11.962 24.1319 11.8982 24.0667 11.8531C24.0014 11.8081 23.9241 11.784 23.8449 11.784C23.7487 11.7839 23.6559 11.8195 23.5843 11.884C22.9401 12.4626 22.4252 12.8854 21.9963 13.2034C21.5675 12.8854 21.0526 12.4626 20.4083 11.884C20.3368 11.8196 20.244 11.784 20.1478 11.784C20.0928 11.784 20.0383 11.7956 19.9881 11.8181C19.9379 11.8406 19.8929 11.8736 19.8563 11.9148C19.8221 11.9532 19.7957 11.998 19.7787 12.0466C19.7617 12.0952 19.7544 12.1467 19.7573 12.1982C19.7601 12.2496 19.773 12.3 19.7953 12.3465C19.8175 12.3929 19.8487 12.4345 19.887 12.4688C20.4425 12.9678 20.9108 13.358 21.3151 13.6689C20.787 13.9949 20.4055 14.1399 20.0136 14.2886C19.3839 14.5274 18.7328 14.7746 17.5193 15.7095C16.8206 16.2027 16.1886 16.72 15.641 17.2472L15.6405 17.2477C15.0276 17.837 14.4832 18.4397 14.0223 19.0392L14.0223 19.0393L14.0221 19.0395C13.5054 19.7106 13.0578 20.3842 12.6916 21.0414L12.6914 21.0419C12.2789 21.7812 11.935 22.5125 11.6692 23.2154L11.669 23.216C11.3675 24.012 11.1337 24.7892 10.974 25.526L10.9738 25.5277C10.7916 26.3656 10.675 27.175 10.627 27.9333L10.627 27.9339C10.5726 28.7862 10.5788 29.6011 10.6446 30.3575Z" fill="#E1C141"/>
    <path d="M23.0674 30L21.9463 30V21.5303C21.8597 21.6169 21.7321 21.7171 21.5635 21.8311C21.3994 21.9404 21.2126 22.0498 21.0029 22.1592C20.7979 22.2686 20.5791 22.3711 20.3467 22.4668C20.1188 22.5625 19.8955 22.6377 19.6768 22.6924V21.5576C19.9229 21.4893 20.1826 21.3981 20.4561 21.2842C20.734 21.1657 21.0052 21.0358 21.2695 20.8945C21.5384 20.7487 21.7913 20.5983 22.0283 20.4434C22.2653 20.2839 22.4704 20.1289 22.6436 19.9785L23.0674 19.9785V30Z" fill="white"/>
    <defs>
        <linearGradient id="paint0_linear_0_1" x1="32.8192" y1="32.375" x2="32.8192" y2="25.6271" gradientUnits="userSpaceOnUse">
            <stop stop-color="#C9A720"/>
            <stop offset="0.490385" stop-color="#F2E9C5"/>
            <stop offset="1" stop-color="#65540E"/>
        </linearGradient>
        <linearGradient id="paint1_linear_0_1" x1="32.7618" y1="28.0938" x2="32.7618" y2="21.2409" gradientUnits="userSpaceOnUse">
            <stop stop-color="#C9A720"/>
            <stop offset="0.490385" stop-color="#F2E9C5"/>
            <stop offset="1" stop-color="#65540E"/>
        </linearGradient>
        <linearGradient id="paint2_linear_0_1" x1="30.367" y1="24.0313" x2="30.367" y2="17.5081" gradientUnits="userSpaceOnUse">
            <stop stop-color="#C9A720"/>
            <stop offset="0.490385" stop-color="#F2E9C5"/>
            <stop offset="1" stop-color="#65540E"/>
        </linearGradient>
        <linearGradient id="paint3_linear_0_1" x1="18.6517" y1="32.3711" x2="18.6517" y2="16.0258" gradientUnits="userSpaceOnUse">
            <stop stop-color="#C9A720"/>
            <stop offset="0.490385" stop-color="#F2E9C5"/>
            <stop offset="1" stop-color="#65540E"/>
        </linearGradient>
        <linearGradient id="paint4_linear_0_1" x1="11.2318" y1="28.0977" x2="11.2318" y2="21.2448" gradientUnits="userSpaceOnUse">
            <stop stop-color="#C9A720"/>
            <stop offset="0.490385" stop-color="#F2E9C5"/>
            <stop offset="1" stop-color="#65540E"/>
        </linearGradient>
        <linearGradient id="paint5_linear_0_1" x1="13.6255" y1="24.0313" x2="13.6255" y2="17.5081" gradientUnits="userSpaceOnUse">
            <stop stop-color="#C9A720"/>
            <stop offset="0.490385" stop-color="#F2E9C5"/>
            <stop offset="1" stop-color="#65540E"/>
        </linearGradient>
        <linearGradient id="paint6_linear_0_1" x1="16.7382" y1="20.4453" x2="16.7382" y2="16.0266" gradientUnits="userSpaceOnUse">
            <stop stop-color="#C9A720"/>
            <stop offset="0.490385" stop-color="#F2E9C5"/>
            <stop offset="1" stop-color="#65540E"/>
        </linearGradient>
    </defs>
</svg>
