
<svg width="44" height="45" viewBox="0 0 44 45" fill="none" xmlns="http://www.w3.org/2000/svg">
<rect width="43.8433" height="45" rx="4" fill="#1C2B1A"/>
<path d="M32.8967 31.3918C32.2431 32.1074 31.5582 32.7514 30.8041 33.3492C30.7154 33.4195 30.5877 33.3354 30.6174 33.2259C31.0401 31.6668 31.7786 30.126 32.9171 28.9806C32.9682 29.7824 32.969 30.591 32.8967 31.3918ZM32.917 28.9799C33.5743 29.776 34.1391 30.599 34.6481 31.4876C34.7063 31.5892 34.8611 31.5529 34.867 31.4359C34.9588 29.6157 34.2658 27.486 32.5775 26.6271C32.7458 27.4011 32.867 28.1888 32.917 28.9799Z" fill="url(#paint0_linear_0_1)"/>
<path d="M32.5775 26.6246C32.1639 27.4787 31.7008 28.2735 31.1581 29.0438C31.0937 29.1352 30.9493 29.0933 30.9446 28.9815C30.8785 27.4092 31.1473 25.7471 31.898 24.367C32.1762 25.1016 32.411 25.8561 32.5775 26.6246ZM31.8978 24.3664C32.7513 24.9168 33.531 25.5188 34.2789 26.1948C34.3652 26.2728 34.5005 26.1914 34.4713 26.0786C34.0207 24.3401 32.7323 22.556 30.8979 22.2409C31.2792 22.9243 31.6208 23.6336 31.8978 24.3664Z" fill="url(#paint1_linear_0_1)"/>
<path d="M30.8984 22.2413C30.7489 23.1732 30.535 24.0621 30.2374 24.9509C30.2019 25.0566 30.0524 25.0586 30.0153 24.9535C29.4947 23.4784 29.2838 21.8142 29.5979 20.2849C30.0753 20.905 30.5171 21.5568 30.8984 22.2413ZM29.5975 20.2844C30.5705 20.561 31.4896 20.9069 32.3999 21.331C32.5051 21.38 32.6105 21.2626 32.5498 21.1633C31.6139 19.6316 29.8616 18.3053 28.0159 18.5339C28.5825 19.0786 29.1179 19.6605 29.5975 20.2844Z" fill="url(#paint2_linear_0_1)"/>
<path d="M28.0163 18.5335C28.149 19.4724 28.2054 20.3881 28.1793 21.3294C28.1763 21.441 28.0336 21.4867 27.9676 21.3969C27.0354 20.1285 26.34 18.5878 26.1736 17.0258C26.8218 17.4829 27.4442 17.9827 28.0163 18.5335ZM10.9459 31.3879C11.5994 32.1035 12.2843 32.7475 13.0384 33.3453C13.1271 33.4156 13.2548 33.3314 13.2251 33.222C12.8024 31.6629 12.0639 30.1221 10.9254 28.9767C10.8743 29.7785 10.8736 30.5871 10.9459 31.3879ZM10.9255 28.976C10.2682 29.7721 9.70342 30.5951 9.19443 31.4837C9.13624 31.5853 8.98145 31.549 8.97553 31.432C8.88374 29.6118 9.57671 27.4821 11.265 26.6231C11.0968 27.3972 10.9755 28.1849 10.9255 28.976Z" fill="url(#paint3_linear_0_1)"/>
<path d="M11.2657 26.6285C11.6793 27.4826 12.1424 28.2774 12.6851 29.0477C12.7495 29.1391 12.8939 29.0972 12.8986 28.9854C12.9647 27.4131 12.6959 25.751 11.9451 24.3709C11.6669 25.1055 11.4322 25.86 11.2657 26.6285ZM11.9453 24.3703C11.0919 24.9207 10.3122 25.5227 9.5643 26.1987C9.47802 26.2767 9.34267 26.1953 9.37191 26.0825C9.82246 24.344 11.1109 22.5599 12.9453 22.2448C12.564 22.9282 12.2224 23.6375 11.9453 24.3703Z" fill="url(#paint4_linear_0_1)"/>
<path d="M12.9438 22.2413C13.0933 23.1732 13.3071 24.0621 13.6048 24.9509C13.6402 25.0566 13.7898 25.0586 13.8268 24.9535C14.3475 23.4784 14.5584 21.8142 14.2443 20.2849C13.7668 20.905 13.3251 21.5568 12.9438 22.2413ZM14.2447 20.2844C13.2717 20.561 12.3526 20.9069 11.4423 21.331C11.3371 21.38 11.2317 21.2626 11.2923 21.1633C12.2282 19.6316 13.9805 18.3053 15.8262 18.5339C15.2596 19.0786 14.7242 19.6605 14.2447 20.2844Z" fill="url(#paint5_linear_0_1)"/>
<path d="M15.8263 18.5344C15.6935 19.4733 15.6371 20.389 15.6632 21.3303C15.6663 21.4418 15.8089 21.4876 15.8749 21.3977C16.8071 20.1294 17.5025 18.5887 17.6689 17.0266C17.0208 17.4838 16.3984 17.9835 15.8263 18.5344Z" fill="url(#paint6_linear_0_1)"/>
<path d="M10.5695 31.3575C10.5696 31.3652 10.5695 31.3729 10.57 31.3806C10.6594 32.5744 10.8786 33.771 11.2217 34.9373C11.2511 35.0371 11.3187 35.1211 11.4098 35.1709C11.5009 35.2206 11.6079 35.232 11.7074 35.2025C11.8068 35.1731 11.8905 35.1052 11.9401 35.0138C11.9897 34.9224 12.001 34.815 11.9717 34.7151C11.6475 33.6132 11.4396 32.4834 11.3528 31.3563C11.3526 31.3479 11.3525 31.3395 11.3518 31.3309C11.2859 30.6023 11.2793 29.8127 11.3322 28.984C11.3322 28.9837 11.3322 28.9833 11.3323 28.983C11.3777 28.2635 11.489 27.493 11.6629 26.693L11.6629 26.6928C11.8143 25.9939 12.0371 25.2543 12.3248 24.4946L12.325 24.4939C12.5773 23.8267 12.905 23.1304 13.2989 22.4244C13.6463 21.8008 14.0724 21.1599 14.5656 20.5192L14.5658 20.5189L14.5661 20.5186C15.0032 19.9501 15.5212 19.3768 16.1059 18.8146L16.1059 18.8145C16.627 18.3128 17.2305 17.8191 17.9 17.347C17.9024 17.3453 17.9045 17.3433 17.9069 17.3416C17.9092 17.3399 17.9116 17.3385 17.9138 17.3367C19.04 16.4684 19.6107 16.2518 20.2148 16.0226C20.6934 15.841 21.1819 15.6552 21.921 15.1607C22.6602 15.6552 23.1487 15.841 23.6272 16.0226C24.2314 16.2518 24.8021 16.4684 25.9282 17.3367C25.9305 17.3385 25.9329 17.3398 25.9352 17.3415C25.9375 17.3433 25.9397 17.3453 25.9422 17.347C26.6116 17.8191 27.2152 18.3128 27.7362 18.8145L27.7362 18.8146C28.3209 19.3768 28.839 19.9501 29.2761 20.5186L29.2763 20.5189L29.2766 20.5192C29.7697 21.1598 30.1959 21.8008 30.5432 22.4244C30.9372 23.1304 31.2649 23.8267 31.5171 24.4938L31.5172 24.4939L31.5174 24.4946C31.8052 25.2543 32.0279 25.9939 32.1794 26.6928L32.1794 26.693C32.3534 27.493 32.4646 28.2635 32.51 28.983L32.5101 28.984C32.563 29.8126 32.5564 30.6023 32.4905 31.3309C32.4897 31.3395 32.4897 31.3479 32.4895 31.3563C32.4027 32.4834 32.1947 33.6132 31.8706 34.7151C31.8412 34.815 31.8526 34.9224 31.9022 35.0138C31.9518 35.1052 32.0355 35.1731 32.1349 35.2025C32.3418 35.264 32.5595 35.1452 32.6206 34.9373C32.9637 33.771 33.1829 32.5744 33.2723 31.3806C33.2729 31.3729 33.2727 31.3652 33.2728 31.3575C33.3386 30.6011 33.3448 29.7862 33.2904 28.9338L33.2904 28.9333C33.2425 28.175 33.1258 27.3656 32.9437 26.5277L32.9435 26.526C32.7838 25.7892 32.55 25.012 32.2485 24.216C32.2484 24.2158 32.2484 24.2156 32.2483 24.2154C31.9825 23.5125 31.6386 22.7812 31.2261 22.0419L31.2258 22.0414C30.8597 21.3842 30.4121 20.7106 29.8954 20.0395L29.8952 20.0393L29.8952 20.0392C29.4343 19.4397 28.8899 18.837 28.277 18.2477L28.2765 18.2472C27.7289 17.72 27.0969 17.2027 26.3982 16.7095C25.1847 15.7746 24.5335 15.5275 23.9039 15.2886C23.512 15.1399 23.1305 14.9949 22.6024 14.6689C23.0067 14.3579 23.4749 13.9677 24.0305 13.4688C24.0896 13.4158 24.1312 13.3461 24.1498 13.2689C24.1685 13.1916 24.1634 13.1105 24.1351 13.0363C24.1068 12.962 24.0567 12.8982 23.9915 12.8531C23.9262 12.8081 23.8489 12.784 23.7697 12.784C23.6735 12.7839 23.5807 12.8195 23.5091 12.884C22.8649 13.4626 22.35 13.8854 21.9211 14.2034C21.4924 13.8854 20.9774 13.4626 20.3331 12.884C20.2616 12.8196 20.1688 12.784 20.0726 12.784C20.0176 12.784 19.9631 12.7956 19.9129 12.8181C19.8627 12.8406 19.8177 12.8736 19.7811 12.9148C19.7469 12.9532 19.7205 12.998 19.7035 13.0466C19.6865 13.0952 19.6792 13.1467 19.6821 13.1982C19.6849 13.2496 19.6978 13.3 19.7201 13.3465C19.7423 13.3929 19.7735 13.4345 19.8118 13.4688C20.3673 13.9678 20.8356 14.358 21.2399 14.6689C20.7118 14.9949 20.3303 15.1399 19.9384 15.2886C19.3087 15.5274 18.6576 15.7746 17.4441 16.7095C16.7454 17.2027 16.1134 17.72 15.5658 18.2472L15.5653 18.2477C14.9524 18.837 14.408 19.4397 13.9471 20.0392L13.9471 20.0393L13.9469 20.0395C13.4302 20.7106 12.9826 21.3842 12.6164 22.0414L12.6162 22.0419C12.2037 22.7812 11.8598 23.5125 11.594 24.2154L11.5938 24.216C11.2923 25.012 11.0585 25.7892 10.8988 26.526L10.8986 26.5277C10.7164 27.3656 10.5998 28.175 10.5518 28.9333L10.5518 28.9339C10.4974 29.7862 10.5036 30.6011 10.5695 31.3575Z" fill="#7B7B7B"/>
<path d="M24.498 31L18.5918 31V30.002L21.4492 27.1377C22.1784 26.4085 22.6979 25.8024 23.0078 25.3193C23.3223 24.8317 23.4795 24.3122 23.4795 23.7607C23.4795 23.1956 23.3177 22.7581 22.9941 22.4482C22.6706 22.1383 22.2103 21.9834 21.6133 21.9834C20.7383 21.9834 19.8997 22.3571 19.0977 23.1045V21.9287C19.8633 21.3317 20.7542 21.0332 21.7705 21.0332C22.6455 21.0332 23.3337 21.2702 23.835 21.7441C24.3363 22.2181 24.5869 22.8538 24.5869 23.6514C24.5869 24.2803 24.4137 24.8955 24.0674 25.4971C23.721 26.0941 23.099 26.8369 22.2012 27.7256L19.9385 29.9609V29.9883L24.498 29.9883V31Z" fill="white"/>
<defs>
    <linearGradient id="paint0_linear_0_1" x1="32.744" y1="33.375" x2="32.744" y2="26.6271" gradientUnits="userSpaceOnUse">
        <stop stop-color="#F0EDE9"/>
        <stop offset="1" stop-color="#A09182"/>
    </linearGradient>
    <linearGradient id="paint1_linear_0_1" x1="32.6866" y1="29.0938" x2="32.6866" y2="22.2409" gradientUnits="userSpaceOnUse">
        <stop stop-color="#F0EDE9"/>
        <stop offset="1" stop-color="#A09182"/>
    </linearGradient>
    <linearGradient id="paint2_linear_0_1" x1="30.2918" y1="25.0313" x2="30.2918" y2="18.5081" gradientUnits="userSpaceOnUse">
        <stop stop-color="#F0EDE9"/>
        <stop offset="1" stop-color="#A09182"/>
    </linearGradient>
    <linearGradient id="paint3_linear_0_1" x1="18.5765" y1="33.3711" x2="18.5765" y2="17.0258" gradientUnits="userSpaceOnUse">
        <stop stop-color="#F0EDE9"/>
        <stop offset="1" stop-color="#A09182"/>
    </linearGradient>
    <linearGradient id="paint4_linear_0_1" x1="11.1566" y1="29.0977" x2="11.1566" y2="22.2448" gradientUnits="userSpaceOnUse">
        <stop stop-color="#F0EDE9"/>
        <stop offset="1" stop-color="#A09182"/>
    </linearGradient>
    <linearGradient id="paint5_linear_0_1" x1="13.5503" y1="25.0313" x2="13.5503" y2="18.5081" gradientUnits="userSpaceOnUse">
        <stop stop-color="#F0EDE9"/>
        <stop offset="1" stop-color="#A09182"/>
    </linearGradient>
    <linearGradient id="paint6_linear_0_1" x1="16.663" y1="21.4453" x2="16.663" y2="17.0266" gradientUnits="userSpaceOnUse">
        <stop stop-color="#F0EDE9"/>
        <stop offset="1" stop-color="#A09182"/>
    </linearGradient>
</defs>
</svg>
