<svg width="44" height="45" viewBox="0 0 44 45" fill="none" xmlns="http://www.w3.org/2000/svg">
    <rect width="43.8433" height="45" rx="4" fill="#1C2B1A"/>
    <path d="M32.9719 28.3918C32.3183 29.1074 31.6334 29.7514 30.8793 30.3492C30.7906 30.4195 30.6629 30.3354 30.6926 30.2259C31.1153 28.6668 31.8538 27.126 32.9923 25.9806C33.0434 26.7824 33.0442 27.591 32.9719 28.3918ZM32.9922 25.9799C33.6495 26.776 34.2143 27.599 34.7233 28.4876C34.7815 28.5892 34.9363 28.5529 34.9422 28.4359C35.034 26.6157 34.341 24.486 32.6527 23.6271C32.821 24.4011 32.9422 25.1888 32.9922 25.9799Z" fill="url(#paint0_linear_0_1)"/>
    <path d="M32.6527 23.6246C32.239 24.4787 31.776 25.2735 31.2333 26.0438C31.1689 26.1352 31.0245 26.0933 31.0198 25.9815C30.9537 24.4092 31.2225 22.7471 31.9732 21.367C32.2514 22.1016 32.4862 22.8561 32.6527 23.6246ZM31.973 21.3664C32.8265 21.9168 33.6062 22.5188 34.3541 23.1948C34.4404 23.2728 34.5757 23.1914 34.5465 23.0786C34.0959 21.3401 32.8075 19.556 30.9731 19.2409C31.3544 19.9243 31.696 20.6336 31.973 21.3664Z" fill="url(#paint1_linear_0_1)"/>
    <path d="M30.9736 19.2413C30.8241 20.1732 30.6102 21.0621 30.3126 21.9509C30.2771 22.0566 30.1276 22.0586 30.0905 21.9535C29.5699 20.4784 29.359 18.8142 29.6731 17.2849C30.1505 17.905 30.5923 18.5568 30.9736 19.2413ZM29.6727 17.2844C30.6457 17.561 31.5648 17.9069 32.4751 18.331C32.5803 18.38 32.6857 18.2626 32.625 18.1633C31.6891 16.6316 29.9368 15.3053 28.0911 15.5339C28.6577 16.0786 29.1931 16.6605 29.6727 17.2844Z" fill="url(#paint2_linear_0_1)"/>
    <path d="M28.0915 15.5335C28.2242 16.4724 28.2806 17.3881 28.2545 18.3294C28.2515 18.441 28.1088 18.4867 28.0428 18.3969C27.1106 17.1285 26.4152 15.5878 26.2488 14.0258C26.897 14.4829 27.5194 14.9827 28.0915 15.5335ZM11.0211 28.3879C11.6746 29.1035 12.3595 29.7475 13.1136 30.3453C13.2023 30.4156 13.33 30.3314 13.3003 30.222C12.8776 28.6629 12.1391 27.1221 11.0006 25.9767C10.9495 26.7785 10.9487 27.5871 11.0211 28.3879ZM11.0007 25.976C10.3434 26.7721 9.77861 27.5951 9.26962 28.4837C9.21144 28.5853 9.05665 28.549 9.05073 28.432C8.95894 26.6118 9.65191 24.4821 11.3402 23.6231C11.1719 24.3972 11.0507 25.1849 11.0007 25.976Z" fill="url(#paint3_linear_0_1)"/>
    <path d="M11.3409 23.6285C11.7545 24.4826 12.2176 25.2774 12.7603 26.0477C12.8247 26.1391 12.969 26.0972 12.9738 25.9854C13.0399 24.4131 12.771 22.751 12.0203 21.3709C11.7421 22.1055 11.5074 22.86 11.3409 23.6285ZM12.0205 21.3703C11.1671 21.9207 10.3874 22.5227 9.63949 23.1987C9.55322 23.2767 9.41786 23.1953 9.44711 23.0825C9.89765 21.344 11.1861 19.5599 13.0205 19.2448C12.6392 19.9282 12.2976 20.6375 12.0205 21.3703Z" fill="url(#paint4_linear_0_1)"/>
    <path d="M13.019 19.2413C13.1685 20.1732 13.3823 21.0621 13.68 21.9509C13.7154 22.0566 13.865 22.0586 13.902 21.9535C14.4227 20.4784 14.6336 18.8142 14.3194 17.2849C13.842 17.905 13.4003 18.5568 13.019 19.2413ZM14.3199 17.2844C13.3469 17.561 12.4278 17.9069 11.5175 18.331C11.4123 18.38 11.3069 18.2626 11.3675 18.1633C12.3034 16.6316 14.0557 15.3053 15.9014 15.5339C15.3348 16.0786 14.7994 16.6605 14.3199 17.2844Z" fill="url(#paint5_linear_0_1)"/>
    <path d="M15.9015 15.5344C15.7687 16.4733 15.7123 17.389 15.7384 18.3303C15.7415 18.4418 15.8841 18.4876 15.9501 18.3977C16.8823 17.1294 17.5777 15.5887 17.7441 14.0266C17.0959 14.4838 16.4736 14.9835 15.9015 15.5344Z" fill="url(#paint6_linear_0_1)"/>
    <path d="M10.6446 28.3575C10.6448 28.3652 10.6446 28.3729 10.6452 28.3806C10.7346 29.5744 10.9538 30.771 11.2969 31.9373C11.3262 32.0371 11.3939 32.1211 11.485 32.1709C11.5761 32.2206 11.6831 32.232 11.7826 32.2025C11.882 32.1731 11.9657 32.1052 12.0153 32.0138C12.0649 31.9224 12.0762 31.815 12.0469 31.7151C11.7227 30.6132 11.5148 29.4834 11.428 28.3563C11.4278 28.3479 11.4277 28.3395 11.427 28.3309C11.3611 27.6023 11.3545 26.8127 11.4073 25.984C11.4074 25.9837 11.4074 25.9833 11.4074 25.983C11.4529 25.2635 11.5642 24.493 11.7381 23.693L11.7381 23.6928C11.8895 22.9939 12.1123 22.2543 12.4 21.4946L12.4002 21.4939C12.6525 20.8267 12.9802 20.1304 13.3741 19.4244C13.7215 18.8008 14.1476 18.1599 14.6408 17.5192L14.641 17.5189L14.6413 17.5186C15.0784 16.9501 15.5964 16.3768 16.1811 15.8146L16.1811 15.8145C16.7022 15.3128 17.3057 14.8191 17.9752 14.347C17.9776 14.3453 17.9797 14.3433 17.9821 14.3416C17.9844 14.3399 17.9868 14.3385 17.989 14.3367C19.1152 13.4684 19.6859 13.2518 20.29 13.0226C20.7686 12.841 21.2571 12.6552 21.9962 12.1607C22.7354 12.6552 23.2239 12.841 23.7024 13.0226C24.3066 13.2518 24.8773 13.4684 26.0034 14.3367C26.0057 14.3385 26.0081 14.3398 26.0104 14.3415C26.0127 14.3433 26.0149 14.3453 26.0173 14.347C26.6868 14.8191 27.2904 15.3128 27.8114 15.8145L27.8114 15.8146C28.3961 16.3768 28.9142 16.9501 29.3513 17.5186L29.3515 17.5189L29.3518 17.5192C29.8449 18.1598 30.2711 18.8008 30.6184 19.4244C31.0124 20.1304 31.3401 20.8267 31.5923 21.4938L31.5923 21.4939L31.5926 21.4946C31.8804 22.2543 32.1031 22.9939 32.2546 23.6928L32.2546 23.693C32.4286 24.493 32.5398 25.2635 32.5852 25.983L32.5853 25.984C32.6382 26.8126 32.6316 27.6023 32.5657 28.3309C32.5649 28.3395 32.5649 28.3479 32.5647 28.3563C32.4779 29.4834 32.2699 30.6132 31.9458 31.7151C31.9164 31.815 31.9278 31.9224 31.9774 32.0138C32.0269 32.1052 32.1107 32.1731 32.2101 32.2025C32.417 32.264 32.6347 32.1452 32.6958 31.9373C33.0389 30.771 33.2581 29.5744 33.3475 28.3806C33.3481 28.3729 33.3479 28.3652 33.348 28.3575C33.4138 27.6011 33.42 26.7862 33.3656 25.9338L33.3656 25.9333C33.3177 25.175 33.201 24.3656 33.0189 23.5277L33.0187 23.526C32.859 22.7892 32.6252 22.012 32.3237 21.216C32.3236 21.2158 32.3236 21.2156 32.3235 21.2154C32.0577 20.5125 31.7138 19.7812 31.3013 19.0419L31.301 19.0414C30.9349 18.3842 30.4873 17.7106 29.9706 17.0395L29.9704 17.0393L29.9704 17.0392C29.5095 16.4397 28.9651 15.837 28.3522 15.2477L28.3517 15.2472C27.804 14.72 27.1721 14.2027 26.4734 13.7095C25.2599 12.7746 24.6087 12.5275 23.9791 12.2886C23.5872 12.1399 23.2057 11.9949 22.6776 11.6689C23.0819 11.3579 23.5501 10.9677 24.1057 10.4688C24.1648 10.4158 24.2064 10.3461 24.225 10.2689C24.2437 10.1916 24.2386 10.1105 24.2103 10.0363C24.182 9.96204 24.1319 9.89817 24.0667 9.85313C24.0014 9.80809 23.9241 9.78399 23.8449 9.78404C23.7487 9.78393 23.6559 9.81954 23.5843 9.88403C22.9401 10.4626 22.4252 10.8854 21.9963 11.2034C21.5675 10.8854 21.0526 10.4626 20.4083 9.88403C20.3368 9.81957 20.244 9.78395 20.1478 9.78404C20.0928 9.78396 20.0383 9.79557 19.9881 9.81811C19.9379 9.84065 19.8929 9.8736 19.8563 9.9148C19.8221 9.9532 19.7957 9.99799 19.7787 10.0466C19.7617 10.0952 19.7544 10.1467 19.7573 10.1982C19.7601 10.2496 19.773 10.3 19.7953 10.3465C19.8175 10.3929 19.8487 10.4345 19.887 10.4688C20.4425 10.9678 20.9108 11.358 21.3151 11.6689C20.787 11.9949 20.4055 12.1399 20.0136 12.2886C19.3839 12.5274 18.7328 12.7746 17.5193 13.7095C16.8206 14.2027 16.1886 14.72 15.641 15.2472L15.6405 15.2477C15.0276 15.837 14.4832 16.4397 14.0223 17.0392L14.0223 17.0393L14.0221 17.0395C13.5054 17.7106 13.0578 18.3842 12.6916 19.0414L12.6914 19.0419C12.2789 19.7812 11.935 20.5125 11.6692 21.2154L11.669 21.216C11.3675 22.012 11.1337 22.7892 10.974 23.526L10.9738 23.5277C10.7916 24.3656 10.675 25.175 10.627 25.9333L10.627 25.9339C10.5726 26.7862 10.5788 27.6011 10.6446 28.3575Z" fill="#D25656"/>
    <path d="M24.5732 28L18.667 28V27.002L21.5244 24.1377C22.2536 23.4085 22.7731 22.8024 23.083 22.3193C23.3975 21.8317 23.5547 21.3122 23.5547 20.7607C23.5547 20.1956 23.3929 19.7581 23.0693 19.4482C22.7458 19.1383 22.2855 18.9834 21.6885 18.9834C20.8135 18.9834 19.9749 19.3571 19.1729 20.1045V18.9287C19.9385 18.3317 20.8294 18.0332 21.8457 18.0332C22.7207 18.0332 23.4089 18.2702 23.9102 18.7441C24.4115 19.2181 24.6621 19.8538 24.6621 20.6514C24.6621 21.2803 24.4889 21.8955 24.1426 22.4971C23.7962 23.0941 23.1742 23.8369 22.2764 24.7256L20.0137 26.9609V26.9883L24.5732 26.9883V28Z" fill="white"/>
    <defs>
        <linearGradient id="paint0_linear_0_1" x1="32.8192" y1="30.375" x2="32.8192" y2="23.6271" gradientUnits="userSpaceOnUse">
            <stop stop-color="#8D4E33"/>
            <stop offset="1" stop-color="#F2442D"/>
        </linearGradient>
        <linearGradient id="paint1_linear_0_1" x1="32.7618" y1="26.0938" x2="32.7618" y2="19.2409" gradientUnits="userSpaceOnUse">
            <stop stop-color="#8D4E33"/>
            <stop offset="1" stop-color="#F2442D"/>
        </linearGradient>
        <linearGradient id="paint2_linear_0_1" x1="30.367" y1="22.0313" x2="30.367" y2="15.5081" gradientUnits="userSpaceOnUse">
            <stop stop-color="#8D4E33"/>
            <stop offset="1" stop-color="#F2442D"/>
        </linearGradient>
        <linearGradient id="paint3_linear_0_1" x1="18.6517" y1="30.3711" x2="18.6517" y2="14.0258" gradientUnits="userSpaceOnUse">
            <stop stop-color="#8D4E33"/>
            <stop offset="1" stop-color="#F2442D"/>
        </linearGradient>
        <linearGradient id="paint4_linear_0_1" x1="11.2318" y1="26.0977" x2="11.2318" y2="19.2448" gradientUnits="userSpaceOnUse">
            <stop stop-color="#8D4E33"/>
            <stop offset="1" stop-color="#F2442D"/>
        </linearGradient>
        <linearGradient id="paint5_linear_0_1" x1="13.6255" y1="22.0313" x2="13.6255" y2="15.5081" gradientUnits="userSpaceOnUse">
            <stop stop-color="#8D4E33"/>
            <stop offset="1" stop-color="#F2442D"/>
        </linearGradient>
        <linearGradient id="paint6_linear_0_1" x1="16.7382" y1="18.4453" x2="16.7382" y2="14.0266" gradientUnits="userSpaceOnUse">
            <stop stop-color="#8D4E33"/>
            <stop offset="1" stop-color="#F2442D"/>
        </linearGradient>
    </defs>
</svg>