<svg width="44" height="45" viewBox="0 0 44 45" fill="none" xmlns="http://www.w3.org/2000/svg">
    <rect width="43.8433" height="45" rx="4" fill="#1C2B1A"/>
    <path d="M32.8967 30.3918C32.2431 31.1074 31.5582 31.7514 30.8041 32.3492C30.7154 32.4195 30.5877 32.3354 30.6174 32.2259C31.0401 30.6668 31.7786 29.126 32.9171 27.9806C32.9682 28.7824 32.969 29.591 32.8967 30.3918ZM32.917 27.9799C33.5743 28.776 34.1391 29.599 34.6481 30.4876C34.7063 30.5892 34.8611 30.5529 34.867 30.4359C34.9588 28.6157 34.2658 26.486 32.5775 25.6271C32.7458 26.4011 32.867 27.1888 32.917 27.9799Z" fill="#AB7841"/>
    <path d="M32.5775 25.6246C32.1639 26.4787 31.7008 27.2735 31.1581 28.0438C31.0937 28.1352 30.9493 28.0933 30.9446 27.9815C30.8785 26.4092 31.1473 24.7471 31.898 23.367C32.1762 24.1016 32.411 24.8561 32.5775 25.6246ZM31.8978 23.3664C32.7513 23.9168 33.531 24.5188 34.2789 25.1948C34.3652 25.2728 34.5005 25.1914 34.4713 25.0786C34.0207 23.3401 32.7323 21.556 30.8979 21.2409C31.2792 21.9243 31.6208 22.6336 31.8978 23.3664Z" fill="#AB7841"/>
    <path d="M30.8984 21.2413C30.7489 22.1732 30.535 23.0621 30.2374 23.9509C30.2019 24.0566 30.0524 24.0586 30.0153 23.9535C29.4947 22.4784 29.2838 20.8142 29.5979 19.2849C30.0753 19.905 30.5171 20.5568 30.8984 21.2413ZM29.5975 19.2844C30.5705 19.561 31.4896 19.9069 32.3999 20.331C32.5051 20.38 32.6105 20.2626 32.5498 20.1633C31.6139 18.6316 29.8616 17.3053 28.0159 17.5339C28.5825 18.0786 29.1179 18.6605 29.5975 19.2844Z" fill="#AB7841"/>
    <path d="M28.0163 17.5335C28.149 18.4724 28.2054 19.3881 28.1793 20.3294C28.1763 20.441 28.0336 20.4867 27.9676 20.3969C27.0354 19.1285 26.34 17.5878 26.1736 16.0258C26.8218 16.4829 27.4442 16.9827 28.0163 17.5335ZM10.9459 30.3879C11.5994 31.1035 12.2843 31.7475 13.0384 32.3453C13.1271 32.4156 13.2548 32.3314 13.2251 32.222C12.8024 30.6629 12.0639 29.1221 10.9254 27.9767C10.8743 28.7785 10.8736 29.5871 10.9459 30.3879ZM10.9255 27.976C10.2682 28.7721 9.70342 29.5951 9.19443 30.4837C9.13624 30.5853 8.98145 30.549 8.97553 30.432C8.88374 28.6118 9.57671 26.4821 11.265 25.6231C11.0968 26.3972 10.9755 27.1849 10.9255 27.976Z" fill="#AB7841"/>
    <path d="M11.2657 25.6285C11.6793 26.4826 12.1424 27.2774 12.6851 28.0477C12.7495 28.1391 12.8939 28.0972 12.8986 27.9854C12.9647 26.4131 12.6959 24.751 11.9451 23.3709C11.6669 24.1055 11.4322 24.86 11.2657 25.6285ZM11.9453 23.3703C11.0919 23.9207 10.3122 24.5227 9.5643 25.1987C9.47802 25.2767 9.34267 25.1953 9.37191 25.0825C9.82246 23.344 11.1109 21.5599 12.9453 21.2448C12.564 21.9282 12.2224 22.6375 11.9453 23.3703Z" fill="#AB7841"/>
    <path d="M12.9438 21.2413C13.0933 22.1732 13.3071 23.0621 13.6048 23.9509C13.6402 24.0566 13.7898 24.0586 13.8268 23.9535C14.3475 22.4784 14.5584 20.8142 14.2443 19.2849C13.7668 19.905 13.3251 20.5568 12.9438 21.2413ZM14.2447 19.2844C13.2717 19.561 12.3526 19.9069 11.4423 20.331C11.3371 20.38 11.2317 20.2626 11.2923 20.1633C12.2282 18.6316 13.9805 17.3053 15.8262 17.5339C15.2596 18.0786 14.7242 18.6605 14.2447 19.2844Z" fill="#AB7841"/>
    <path d="M15.8263 17.5344C15.6935 18.4733 15.6371 19.389 15.6632 20.3303C15.6663 20.4418 15.8089 20.4876 15.8749 20.3977C16.8071 19.1294 17.5025 17.5887 17.6689 16.0266C17.0208 16.4838 16.3984 16.9835 15.8263 17.5344Z" fill="#AB7841"/>
    <path d="M10.5695 30.3575C10.5696 30.3652 10.5695 30.3729 10.57 30.3806C10.6594 31.5744 10.8786 32.771 11.2217 33.9373C11.2511 34.0371 11.3187 34.1211 11.4098 34.1709C11.5009 34.2206 11.6079 34.232 11.7074 34.2025C11.8068 34.1731 11.8905 34.1052 11.9401 34.0138C11.9897 33.9224 12.001 33.815 11.9717 33.7151C11.6475 32.6132 11.4396 31.4834 11.3528 30.3563C11.3526 30.3479 11.3525 30.3395 11.3518 30.3309C11.2859 29.6023 11.2793 28.8127 11.3322 27.984C11.3322 27.9837 11.3322 27.9833 11.3323 27.983C11.3777 27.2635 11.489 26.493 11.6629 25.693L11.6629 25.6928C11.8143 24.9939 12.0371 24.2543 12.3248 23.4946L12.325 23.4939C12.5773 22.8267 12.905 22.1304 13.2989 21.4244C13.6463 20.8008 14.0724 20.1599 14.5656 19.5192L14.5658 19.5189L14.5661 19.5186C15.0032 18.9501 15.5212 18.3768 16.1059 17.8146L16.1059 17.8145C16.627 17.3128 17.2305 16.8191 17.9 16.347C17.9024 16.3453 17.9045 16.3433 17.9069 16.3416C17.9092 16.3399 17.9116 16.3385 17.9138 16.3367C19.04 15.4684 19.6107 15.2518 20.2148 15.0226C20.6934 14.841 21.1819 14.6552 21.921 14.1607C22.6602 14.6552 23.1487 14.841 23.6272 15.0226C24.2314 15.2518 24.8021 15.4684 25.9282 16.3367C25.9305 16.3385 25.9329 16.3398 25.9352 16.3415C25.9375 16.3433 25.9397 16.3453 25.9422 16.347C26.6116 16.8191 27.2152 17.3128 27.7362 17.8145L27.7362 17.8146C28.3209 18.3768 28.839 18.9501 29.2761 19.5186L29.2763 19.5189L29.2766 19.5192C29.7697 20.1598 30.1959 20.8008 30.5432 21.4244C30.9372 22.1304 31.2649 22.8267 31.5171 23.4938L31.5172 23.4939L31.5174 23.4946C31.8052 24.2543 32.0279 24.9939 32.1794 25.6928L32.1794 25.693C32.3534 26.493 32.4646 27.2635 32.51 27.983L32.5101 27.984C32.563 28.8126 32.5564 29.6023 32.4905 30.3309C32.4897 30.3395 32.4897 30.3479 32.4895 30.3563C32.4027 31.4834 32.1947 32.6132 31.8706 33.7151C31.8412 33.815 31.8526 33.9224 31.9022 34.0138C31.9518 34.1052 32.0355 34.1731 32.1349 34.2025C32.3418 34.264 32.5595 34.1452 32.6206 33.9373C32.9637 32.771 33.1829 31.5744 33.2723 30.3806C33.2729 30.3729 33.2727 30.3652 33.2728 30.3575C33.3386 29.6011 33.3448 28.7862 33.2904 27.9338L33.2904 27.9333C33.2425 27.175 33.1258 26.3656 32.9437 25.5277L32.9435 25.526C32.7838 24.7892 32.55 24.012 32.2485 23.216C32.2484 23.2158 32.2484 23.2156 32.2483 23.2154C31.9825 22.5125 31.6386 21.7812 31.2261 21.0419L31.2258 21.0414C30.8597 20.3842 30.4121 19.7106 29.8954 19.0395L29.8952 19.0393L29.8952 19.0392C29.4343 18.4397 28.8899 17.837 28.277 17.2477L28.2765 17.2472C27.7289 16.72 27.0969 16.2027 26.3982 15.7095C25.1847 14.7746 24.5335 14.5275 23.9039 14.2886C23.512 14.1399 23.1305 13.9949 22.6024 13.6689C23.0067 13.3579 23.4749 12.9677 24.0305 12.4688C24.0896 12.4158 24.1312 12.3461 24.1498 12.2689C24.1685 12.1916 24.1634 12.1105 24.1351 12.0363C24.1068 11.962 24.0567 11.8982 23.9915 11.8531C23.9262 11.8081 23.8489 11.784 23.7697 11.784C23.6735 11.7839 23.5807 11.8195 23.5091 11.884C22.8649 12.4626 22.35 12.8854 21.9211 13.2034C21.4924 12.8854 20.9774 12.4626 20.3331 11.884C20.2616 11.8196 20.1688 11.784 20.0726 11.784C20.0176 11.784 19.9631 11.7956 19.9129 11.8181C19.8627 11.8406 19.8177 11.8736 19.7811 11.9148C19.7469 11.9532 19.7205 11.998 19.7035 12.0466C19.6865 12.0952 19.6792 12.1467 19.6821 12.1982C19.6849 12.2496 19.6978 12.3 19.7201 12.3465C19.7423 12.3929 19.7735 12.4345 19.8118 12.4688C20.3673 12.9678 20.8356 13.358 21.2399 13.6689C20.7118 13.9949 20.3303 14.1399 19.9384 14.2886C19.3087 14.5274 18.6576 14.7746 17.4441 15.7095C16.7454 16.2027 16.1134 16.72 15.5658 17.2472L15.5653 17.2477C14.9524 17.837 14.408 18.4397 13.9471 19.0392L13.9471 19.0393L13.9469 19.0395C13.4302 19.7106 12.9826 20.3842 12.6164 21.0414L12.6162 21.0419C12.2037 21.7812 11.8598 22.5125 11.594 23.2154L11.5938 23.216C11.2923 24.012 11.0585 24.7892 10.8988 25.526L10.8986 25.5277C10.7164 26.3656 10.5998 27.175 10.5518 27.9333L10.5518 27.9339C10.4974 28.7862 10.5036 29.6011 10.5695 30.3575Z" fill="#FF6D3A"/>
    <path d="M25.0039 28.3955L23.7461 28.3955V31L22.6387 31V28.3955L18.0312 28.3955V27.6641L22.3926 21.1973L23.7461 21.1973V27.4863L25.0039 27.4863V28.3955ZM22.6387 27.4863V23.248C22.6387 22.9473 22.6478 22.61 22.666 22.2363H22.6387C22.5749 22.4004 22.4495 22.651 22.2627 22.9883L19.248 27.4863L22.6387 27.4863Z" fill="white"/>
</svg>
