<svg width="52" height="52" viewBox="0 0 52 52" fill="none" xmlns="http://www.w3.org/2000/svg">
    <rect width="51.4588" height="51.4588" rx="3.81176" fill="url(#paint0_radial_2_2514)"/>
    <path d="M35.4557 13.5277C35.4557 13.5277 36.0975 13.1822 36.1962 11.7012H39.8C39.8 11.7012 40.6886 21.5745 32.4443 23.9441L32.8886 22.9568C32.8886 22.9568 37.8253 21.8707 38.6646 12.8366H36.5418C36.5418 12.8366 36.4924 14.1201 35.2089 14.4163L35.4557 13.5277Z" fill="#FED141"/>
    <path d="M28.2981 29.8666C26.2741 29.3236 24.7437 29.8666 24.6943 29.8666C24.8424 29.6198 24.8918 29.4223 24.9412 29.2249V28.7806C24.8918 28.5831 24.8424 28.4844 24.8424 28.4844C24.8424 28.4844 26.1753 28.9287 28.2981 28.4844C28.2981 28.4844 28.2487 28.5831 28.1994 28.7806C28.15 28.9287 28.15 29.0768 28.1994 29.2249C28.1006 29.4223 28.15 29.6692 28.2981 29.8666Z" fill="#E6AC43"/>
    <path d="M29.0378 37.1266C27.1125 33.3748 28.9885 30.2153 28.9885 30.2153L28.248 29.9191C26.2239 29.376 24.6936 29.9191 24.6442 29.9191L23.9037 30.2153C23.9037 30.2153 25.7796 33.4241 23.9037 37.1266C23.8543 37.1266 20.2012 37.1266 19.7075 41.1253H33.2834C32.7403 37.1266 29.0872 37.1266 29.0378 37.1266ZM25.829 33.9672L25.7796 34.3621C25.7796 34.5102 25.7303 34.6583 25.6809 34.757C25.6809 34.8064 25.6809 34.9051 25.6315 34.9545L25.5822 35.152C25.4341 35.695 25.1379 36.1887 24.7923 36.5836C24.9404 36.0406 25.1379 35.5469 25.2366 35.0532C25.286 34.9051 25.286 34.8064 25.286 34.6583L25.3353 34.2634C25.3353 34.0165 25.3847 33.7203 25.3353 33.4735C25.3353 32.9305 25.286 32.4368 25.1872 31.8938C25.0885 31.4001 24.9404 30.8571 24.7923 30.3634C25.1379 30.8077 25.3847 31.3014 25.5328 31.8444C25.6809 32.3874 25.7796 32.9305 25.7796 33.4735C25.829 33.671 25.829 33.8191 25.829 33.9672ZM27.5568 34.3127L27.6062 34.7077C27.6062 34.8558 27.6556 34.9545 27.6556 35.1026C27.7543 35.6456 27.9024 36.1393 28.0999 36.633C27.7543 36.1887 27.4581 35.695 27.31 35.2013L27.2606 35.0039C27.2606 34.9545 27.2113 34.8558 27.2113 34.8064C27.1619 34.6583 27.1619 34.5102 27.1125 34.4115L27.0632 34.0165V33.6216C27.0632 33.0786 27.1619 32.4862 27.31 31.9925C27.4581 31.4495 27.7049 30.9558 28.0505 30.5115C27.9024 31.0545 27.7543 31.5482 27.6556 32.0419C27.5568 32.5849 27.5075 33.0786 27.5075 33.6216C27.5568 33.8191 27.5568 34.0659 27.5568 34.3127Z" fill="#FED141"/>
    <path d="M25.8293 33.5216V33.9165L25.78 34.3114C25.78 34.4595 25.7306 34.6076 25.6812 34.7064C25.6812 34.7557 25.6812 34.8545 25.6319 34.9038L25.5825 35.1013C25.4344 35.6443 25.1382 36.138 24.7926 36.5329C24.9407 35.9899 25.1382 35.4962 25.2369 35.0026C25.2863 34.8545 25.2863 34.7557 25.2863 34.6076L25.3357 34.2127C25.3357 33.9659 25.385 33.6697 25.3357 33.4228C25.3357 32.8798 25.2863 32.3861 25.1876 31.8431C25.0888 31.3494 24.9407 30.8064 24.7926 30.3127C25.1382 30.757 25.385 31.2507 25.5331 31.7937C25.7306 32.4355 25.8293 32.9785 25.8293 33.5216ZM27.7053 35.1013C27.804 35.6443 27.9521 36.138 28.1496 36.6317C27.804 36.1874 27.5078 35.6937 27.3597 35.2L27.3103 35.0026C27.3103 34.9532 27.261 34.8545 27.261 34.8051C27.2116 34.657 27.2116 34.5089 27.1622 34.4102L27.1129 34.0152V33.6203C27.1129 33.0772 27.2116 32.4848 27.3597 31.9912C27.5078 31.4481 27.7546 30.9545 28.1002 30.5102C27.9521 31.0532 27.804 31.5469 27.7053 32.0405C27.6065 32.5836 27.5572 33.0772 27.5572 33.6203V34.4102L27.6065 34.8051C27.6559 34.8545 27.6559 34.9532 27.7053 35.1013ZM35.9495 9.5293C35.9495 9.5293 34.9128 25.9191 28.1989 28.4861C26.1255 28.9304 24.7433 28.4861 24.7433 28.4861C18.0294 25.9191 16.9927 9.5293 16.9927 9.5293H35.9495Z" fill="#FED141"/>
    <path d="M17.4865 13.5277C17.4865 13.5277 16.8448 13.1822 16.746 11.7012H13.0929C13.0929 11.7012 12.2043 21.5745 20.4485 23.9441L20.0042 22.9568C20.0042 22.9568 15.0676 21.8707 14.2283 12.8366H16.3511C16.3511 12.8366 16.4005 14.1201 17.684 14.4163L17.4865 13.5277Z" fill="#FED141"/>
    <path d="M25.8295 33.9637L25.7802 34.3586C25.7802 34.5067 25.7308 34.6548 25.6814 34.7536C25.6814 34.8029 25.6814 34.9017 25.6321 34.951L25.5827 35.1485C25.4346 35.6915 25.1384 36.1852 24.7928 36.5801C24.9409 36.0371 25.1384 35.5434 25.2371 35.0498C25.2865 34.9017 25.2865 34.8029 25.2865 34.6548L25.3359 34.2599C25.3359 34.0131 25.3852 33.7169 25.3359 33.47C25.3359 32.927 25.2865 32.4333 25.1878 31.8903C25.089 31.3966 24.9409 30.8536 24.7928 30.3599C25.1384 30.8042 25.3852 31.2979 25.5333 31.8409C25.6814 32.384 25.7802 32.927 25.7802 33.47C25.8295 33.6675 25.8295 33.8156 25.8295 33.9637ZM23.2625 37.6168C22.8675 37.6662 22.5219 37.8143 22.1764 37.9624C21.8308 38.1599 21.5346 38.4067 21.2384 38.6535C21.0903 38.8016 20.9916 38.9497 20.8435 39.0978C20.7447 39.2459 20.5966 39.394 20.5473 39.5915C20.3498 39.9371 20.2511 40.2826 20.1523 40.6776C20.3992 40.3814 20.5966 40.0852 20.8435 39.789C20.9422 39.6409 21.0903 39.4928 21.189 39.394L21.3865 39.1966L21.584 38.9991C21.8308 38.7523 22.127 38.5054 22.3738 38.2586C22.67 38.0611 22.9662 37.8143 23.2625 37.6168ZM24.8422 9.72461C24.8422 9.72461 23.9042 20.9309 26.4713 27.2498C26.4713 27.2498 21.7814 20.0916 21.2384 9.72461H24.8422ZM25.4346 37.7649C25.0397 37.9624 24.6447 38.1105 24.2992 38.3573C23.9536 38.5548 23.6574 38.8016 23.3612 39.0485C23.2625 39.0978 23.2131 39.1966 23.1637 39.2459L22.9662 39.4434C22.9169 39.5421 22.8181 39.5915 22.7688 39.6902C22.7194 39.789 22.67 39.8383 22.5713 39.9371C22.5219 39.9864 22.5219 40.0358 22.4726 40.0358C22.4232 40.0852 22.4232 40.1345 22.3738 40.1839C22.3245 40.2826 22.2751 40.3814 22.1764 40.4307C22.0776 40.6282 21.9789 40.7763 21.8308 40.9738V40.2826C21.8308 40.1839 21.8802 40.0358 21.8802 39.9371C21.8802 39.8383 21.9295 39.6902 21.9789 39.5915C22.0283 39.4928 22.0776 39.394 22.127 39.2459C22.1764 39.1472 22.2257 39.0485 22.3245 38.9497C22.3738 38.851 22.4726 38.7523 22.5219 38.6535C22.6207 38.5548 22.67 38.4561 22.7688 38.4067C23.1143 38.0611 23.5587 37.8637 24.003 37.7156C24.4966 37.6662 24.9903 37.6662 25.4346 37.7649Z" fill="#FFEAA7"/>
    <path d="M17.6348 9.72461C17.6348 9.72461 16.993 15.7474 22.7196 25.8675C22.7196 25.8675 18.474 12.7853 19.0171 9.72461H17.6348Z" fill="#FFEBA8"/>
    <path d="M32.8393 9.72461C32.8393 9.72461 32.8393 19.9929 29.828 25.8675C29.828 25.8675 35.5051 18.0676 34.9621 9.72461H32.8393ZM27.7052 35.0991C27.8039 35.6422 27.952 36.1358 28.1495 36.6295C27.8039 36.1852 27.5077 35.6915 27.3596 35.1979L27.3103 35.0004C27.3103 34.951 27.2609 34.8523 27.2609 34.8029C27.2115 34.6548 27.2115 34.5067 27.1622 34.408L27.1128 34.0131V33.6181C27.1128 33.0751 27.2115 32.4827 27.3596 31.989C27.5077 31.446 27.7546 30.9523 28.1001 30.508C27.952 31.0511 27.8039 31.5447 27.7052 32.0384C27.6065 32.5814 27.5571 33.0751 27.5571 33.6181V34.408L27.6065 34.8029C27.6558 34.8523 27.6558 34.951 27.7052 35.0991ZM29.6799 37.6168C30.0748 37.6662 30.4204 37.8143 30.7659 37.9624C31.1115 38.1599 31.4077 38.3573 31.7039 38.6535C31.852 38.8016 31.9507 38.9497 32.0988 39.0978C32.1976 39.2459 32.3457 39.394 32.395 39.5915C32.5925 39.9371 32.6912 40.2826 32.79 40.6776C32.5431 40.3814 32.3457 40.0852 32.0988 39.789C32.0001 39.6409 31.852 39.4928 31.7533 39.394L31.5558 39.1966L31.3583 38.9991C31.1115 38.7523 30.8153 38.5054 30.5685 38.2586C30.2723 38.0611 29.9761 37.8143 29.6799 37.6168Z" fill="#EDB52C"/>
    <path d="M29.4827 29.3745H23.46C23.3119 29.3745 23.2131 29.2758 23.2131 29.1277C23.2131 28.9796 23.3119 28.8809 23.46 28.8809H29.4827C29.6308 28.8809 29.7295 28.9796 29.7295 29.1277C29.7295 29.2758 29.6308 29.3745 29.4827 29.3745Z" fill="#FED141"/>
    <defs>
        <radialGradient id="paint0_radial_2_2514" cx="0" cy="0" r="1" gradientUnits="userSpaceOnUse" gradientTransform="translate(25.7294 25.7294) rotate(90) scale(54.3176)">
            <stop stop-color="#1A2917"/>
            <stop offset="1" stop-color="#233120"/>
        </radialGradient>
    </defs>
</svg>
