<svg width="17" height="17" viewBox="0 0 17 17" fill="none" xmlns="http://www.w3.org/2000/svg">
    <path d="M4.9585 10.625C3.78489 10.625 2.8335 11.5764 2.8335 12.75C2.8335 13.9236 3.78489 14.875 4.9585 14.875C6.1321 14.875 7.0835 13.9236 7.0835 12.75C7.0835 11.5764 6.1321 10.625 4.9585 10.625Z" stroke="#799D73" stroke-width="1.0625" stroke-linecap="round" stroke-linejoin="round"/>
    <path d="M12.0415 10.625C10.8679 10.625 9.9165 11.5764 9.9165 12.75C9.9165 13.9236 10.8679 14.875 12.0415 14.875C13.2151 14.875 14.1665 13.9236 14.1665 12.75C14.1665 11.5764 13.2151 10.625 12.0415 10.625Z" stroke="#799D73" stroke-width="1.0625" stroke-linecap="round" stroke-linejoin="round"/>
    <path d="M9.91683 12.0415H7.0835" stroke="#799D73" stroke-width="1.0625" stroke-linecap="round" stroke-linejoin="round"/>
    <path d="M15.5832 9.20817C13.8431 8.33869 11.3143 7.7915 8.49984 7.7915C5.68533 7.7915 3.15659 8.33869 1.4165 9.20817" stroke="#799D73" stroke-width="1.0625" stroke-linecap="round" stroke-linejoin="round"/>
    <path d="M13.4582 8.14583L12.7091 3.33799C12.5563 2.35747 11.4913 1.82617 10.6314 2.30151L10.1958 2.54232C9.13866 3.12667 7.86101 3.12667 6.8039 2.54232L6.36828 2.30151C5.50838 1.82617 4.44334 2.35747 4.29057 3.33799L3.5415 8.14583" stroke="#799D73" stroke-width="1.0625" stroke-linecap="round" stroke-linejoin="round"/>
</svg>
