<svg width="53" height="53" viewBox="0 0 53 53" fill="none" xmlns="http://www.w3.org/2000/svg">
    <g clip-path="url(#clip0_2_14517)">
        <path d="M34.514 22.8723L36.8851 26.1412C37.0291 26.3397 37.218 26.5013 37.4365 26.6128C37.655 26.7242 37.8967 26.7823 38.142 26.7823C38.3872 26.7823 38.629 26.7242 38.8475 26.6128C39.066 26.5013 39.2549 26.3397 39.3989 26.1412L41.7699 22.8723C46.4509 21.3207 49.6736 16.8969 49.6736 11.9242C49.6735 5.56567 44.5005 0.392578 38.142 0.392578C31.7833 0.392578 26.6104 5.56567 26.6104 11.9242C26.6102 16.8969 29.8331 21.3207 34.514 22.8723ZM34.5493 10.5274C33.9429 9.92109 33.9429 8.9379 34.5493 8.3315C35.1556 7.72521 36.1388 7.72521 36.7452 8.3315L38.142 9.72834L39.5388 8.3315C40.1451 7.72521 41.1283 7.72521 41.7347 8.3315C42.3411 8.93779 42.3411 9.92098 41.7347 10.5274L40.3378 11.9242L41.7346 13.3211C42.341 13.9273 42.341 14.9105 41.7346 15.5169C41.1284 16.1231 40.1453 16.1235 39.5387 15.5169L38.1419 14.1201L36.745 15.5169C36.1389 16.1231 35.1558 16.1235 34.5492 15.5169C33.9428 14.9106 33.9428 13.9275 34.5492 13.3211L35.946 11.9242L34.5493 10.5274Z" fill="#DDC687"/>
        <path d="M14.8581 23.3588C17.5261 23.3588 19.6889 21.196 19.6889 18.528C19.6889 15.8601 17.5261 13.6973 14.8581 13.6973C12.1902 13.6973 10.0273 15.8601 10.0273 18.528C10.0273 21.196 12.1902 23.3588 14.8581 23.3588Z" fill="#DDC687"/>
        <path d="M14.8579 23.3594C10.6117 23.3594 7.0018 26.1045 5.70723 29.9153H24.0085C22.7141 26.1045 19.1041 23.3594 14.8579 23.3594ZM3.5333 51.8399C3.5333 52.6975 4.22851 53.3927 5.08603 53.3927H47.9139C48.7714 53.3927 49.4666 52.6975 49.4666 51.8399V43.193H3.5333V51.8399ZM51.4473 33.0208H1.55273C0.695211 33.0208 0 33.716 0 34.5735V38.5348C0 39.3923 0.695211 40.0875 1.55273 40.0875H51.4473C52.3048 40.0875 53 39.3923 53 38.5348V34.5735C53 33.716 52.3048 33.0208 51.4473 33.0208Z" fill="#DDC687"/>
    </g>
    <defs>
        <clipPath id="clip0_2_14517">
            <rect width="53" height="53" fill="white"/>
        </clipPath>
    </defs>
</svg>
