<svg width="12" height="12" viewBox="0 0 12 12" fill="none" xmlns="http://www.w3.org/2000/svg">
    <path d="M9.37503 4.855V4.5025C9.37503 2.568 7.86303 1 6.00003 1C4.13703 1 2.62503 2.568 2.62503 4.5025V4.855C2.62563 5.27578 2.50555 5.6879 2.27903 6.0425L1.72503 6.905C1.21953 7.6925 1.60553 8.763 2.48503 9.012C4.78318 9.66283 7.21689 9.66283 9.51503 9.012C10.3945 8.763 10.7805 7.6925 10.275 6.9055L9.72103 6.043C9.49433 5.68845 9.37408 5.27633 9.37453 4.8555L9.37503 4.855Z" stroke="#FACD52" stroke-width="0.5"/>
    <path d="M3.75 9.5C4.0775 10.374 4.961 11 6 11C7.039 11 7.9225 10.374 8.25 9.5" stroke="#FACD52" stroke-width="0.5" stroke-linecap="round"/>
</svg>
