<svg width="24" height="24" viewBox="0 0 24 24" fill="none" xmlns="http://www.w3.org/2000/svg">
    <g clip-path="url(#clip0_159_3874)">
        <path d="M7.75 12C9.92617 12 11.6875 10.2387 11.6875 8.0625C11.6875 5.88633 9.92617 4.125 7.75 4.125C5.57383 4.125 3.8125 5.88633 3.8125 8.0625C3.8125 10.2387 5.57383 12 7.75 12ZM10.45 13.125H10.1582C9.42695 13.4766 8.61484 13.6875 7.75 13.6875C6.88516 13.6875 6.07656 13.4766 5.3418 13.125H5.05C2.81406 13.125 1 14.9391 1 17.175V18.1875C1 19.1191 1.75586 19.875 2.6875 19.875H12.8125C13.7441 19.875 14.5 19.1191 14.5 18.1875V17.175C14.5 14.9391 12.6859 13.125 10.45 13.125ZM17.875 12C19.7383 12 21.25 10.4883 21.25 8.625C21.25 6.76172 19.7383 5.25 17.875 5.25C16.0117 5.25 14.5 6.76172 14.5 8.625C14.5 10.4883 16.0117 12 17.875 12ZM19.5625 13.125H19.4289C18.9402 13.2938 18.4234 13.4062 17.875 13.4062C17.3266 13.4062 16.8098 13.2938 16.3211 13.125H16.1875C15.4703 13.125 14.8094 13.3324 14.2293 13.6664C15.0871 14.591 15.625 15.818 15.625 17.175V18.525C15.625 18.6023 15.6074 18.6762 15.6039 18.75H21.8125C22.7441 18.75 23.5 17.9941 23.5 17.0625C23.5 14.8863 21.7387 13.125 19.5625 13.125Z" fill="url(#paint0_linear_159_3874)"/>
    </g>
    <defs>
        <linearGradient id="paint0_linear_159_3874" x1="23.5" y1="4.80608" x2="10.4193" y2="25.2274" gradientUnits="userSpaceOnUse">
            <stop offset="0.155173" stop-color="#B28406"/>
            <stop offset="0.551761" stop-color="#FFD358"/>
            <stop offset="1" stop-color="#B28406"/>
        </linearGradient>
        <clipPath id="clip0_159_3874">
            <rect width="22.5" height="18" fill="white" transform="translate(1 3)"/>
        </clipPath>
    </defs>
</svg>
