<svg width="27" height="27" viewBox="0 0 27 27" fill="none" xmlns="http://www.w3.org/2000/svg">
    <g clip-path="url(#clip0_134_20085)">
        <path d="M15.7279 5.82704C16.9329 6.58261 17.778 7.8612 17.9318 9.34535C18.4371 9.58307 18.9886 9.70656 19.547 9.70704C21.6583 9.70704 23.3695 7.99586 23.3695 5.88493C23.3695 3.77368 21.6583 2.0625 19.547 2.0625C17.4559 2.06315 15.7597 3.74376 15.7279 5.82704ZM13.2237 13.6534C15.3349 13.6534 17.0461 11.9419 17.0461 9.83096C17.0461 7.72004 15.3346 6.00886 13.2237 6.00886C11.1128 6.00886 9.40061 7.72036 9.40061 9.83129C9.40061 11.9422 11.1128 13.6534 13.2237 13.6534ZM14.8451 13.9139H11.6016C8.90296 13.9139 6.70747 16.1097 6.70747 18.8084V22.7749L6.71756 22.8371L6.99077 22.9226C9.56616 23.7273 11.8036 23.9956 13.6452 23.9956C17.2423 23.9956 19.3272 22.9701 19.4556 22.9047L19.711 22.7756H19.7383V18.8084C19.7393 16.1097 17.5438 13.9139 14.8451 13.9139ZM21.1691 9.9679H17.9507C17.918 11.2106 17.3954 12.3901 16.4968 13.2491C18.8955 13.9624 20.6506 16.1868 20.6506 18.8143V20.0366C23.8284 19.9201 25.6596 19.0195 25.7803 18.959L26.0356 18.8296H26.0629V14.8617C26.0629 12.1634 23.8674 9.9679 21.1691 9.9679ZM6.51655 9.70769C7.26431 9.70769 7.96004 9.48944 8.54941 9.11767C8.73433 7.92153 9.37072 6.84176 10.3276 6.10058C10.3315 6.02902 10.3383 5.95812 10.3383 5.88591C10.3383 3.77466 8.62682 2.06348 6.51655 2.06348C4.40497 2.06348 2.69411 3.77466 2.69411 5.88591C2.69411 7.99618 4.40497 9.70769 6.51655 9.70769ZM9.94932 13.2491C9.05571 12.3942 8.53389 11.2223 8.49639 9.98611C8.37702 9.97733 8.25895 9.9679 8.13731 9.9679H4.89416C2.19549 9.9679 0 12.1634 0 14.8617V18.8289L0.010083 18.8901L0.2833 18.9762C2.34934 19.6212 4.19323 19.9185 5.7948 20.0122V18.8143C5.79545 16.1868 7.54989 13.963 9.94932 13.2491Z" fill="#DDC687"/>
    </g>
    <defs>
        <clipPath id="clip0_134_20085">
            <rect width="26.0629" height="26.0629" fill="white"/>
        </clipPath>
    </defs>
</svg>
