<svg width="28" height="28" viewBox="0 0 28 28" fill="none" xmlns="http://www.w3.org/2000/svg">
    <g clip-path="url(#clip0_2_18429)">
        <path d="M13.6799 3.20643C14.123 3.20643 14.4815 2.84784 14.4815 2.40482V0.801607C14.4815 0.358586 14.123 0 13.6799 0C13.2369 0 12.8783 0.358586 12.8783 0.801607V2.40482C12.8783 2.84784 13.2369 3.20643 13.6799 3.20643ZM17.4531 4.57477L19.0563 2.97156C19.3695 2.65845 19.3695 2.15119 19.0563 1.83808C18.7432 1.52498 18.2359 1.52492 17.9228 1.83808L16.3196 3.4413C16.0065 3.75441 16.0065 4.26166 16.3196 4.57477C16.6328 4.88788 17.14 4.88793 17.4531 4.57477ZM9.90677 4.57477C10.2199 4.88793 10.7271 4.88793 11.0402 4.57477C11.3533 4.26161 11.3534 3.75441 11.0402 3.4413L9.43703 1.83808C9.12392 1.52492 8.61666 1.52492 8.30356 1.83808C7.99045 2.15125 7.99039 2.65845 8.30356 2.97156L9.90677 4.57477ZM7.21364 11.3294C7.21364 9.56103 5.77555 8.12295 4.00721 8.12295C2.23886 8.12295 0.800781 9.56103 0.800781 11.3294C0.800781 13.0977 2.23886 14.5358 4.00721 14.5358C5.77555 14.5358 7.21364 13.0977 7.21364 11.3294Z" fill="#536C4F"/>
        <path d="M13.6808 6.46582C12.3547 6.46582 11.2759 7.54468 11.2759 8.87064C11.2759 11.9643 8.70492 14.5353 5.61125 14.5353H4.00803C1.79816 14.5353 0 16.3335 0 18.5434V26.5594C0 27.0025 0.358586 27.361 0.801607 27.361H7.21446C7.65679 27.361 8.00538 27.0025 8.00538 26.5603L8.01003 19.064C12.6913 17.961 16.0856 13.746 16.0856 8.87064C16.0856 7.54462 15.0067 6.46582 13.6808 6.46582ZM26.5599 11.3289C26.5599 9.56056 25.1218 8.12247 23.3535 8.12247C21.5851 8.12247 20.1471 9.56056 20.1471 11.3289C20.1471 13.0972 21.5851 14.5353 23.3535 14.5353C25.1218 14.5353 26.5599 13.0972 26.5599 11.3289Z" fill="#536C4F"/>
        <path d="M23.3533 14.5349H21.7501C19.9068 14.5349 18.2289 13.5762 17.2054 12.1992C16.7363 13.8542 15.9193 15.3562 14.8281 16.6423C16.1063 17.7706 17.6857 18.6662 19.3511 19.0628L19.3559 26.5599C19.356 27.002 19.7046 27.3607 20.1469 27.3607H26.5598C27.0028 27.3607 27.3614 27.0021 27.3614 26.559V18.543C27.3614 16.3331 25.5632 14.5349 23.3533 14.5349Z" fill="#536C4F"/>
    </g>
    <defs>
        <clipPath id="clip0_2_18429">
            <rect width="27.3615" height="27.3615" fill="white"/>
        </clipPath>
    </defs>
</svg>
