<svg width="12" height="12" viewBox="0 0 12 12" fill="none" xmlns="http://www.w3.org/2000/svg">
    <g clip-path="url(#clip0_134_21420)">
        <g filter="url(#filter0_d_134_21420)">
            <path d="M6 2.375C8.25071 2.375 10 4.03821 10 6C10 7.96179 8.25071 9.625 6 9.625C5.12397 9.625 4.22955 9.8184 3.4502 9.95996C3.40741 9.96773 3.36389 9.97197 3.32031 9.97754C3.35667 9.88193 3.38852 9.78413 3.41406 9.68457C3.55464 9.1358 3.26114 8.66685 2.99609 8.39258L2.99512 8.3916C2.37101 7.74842 2 6.91115 2 6C2 4.03821 3.74929 2.375 6 2.375Z" stroke="url(#paint0_linear_134_21420)" shape-rendering="crispEdges"/>
        </g>
    </g>
    <defs>
        <filter id="filter0_d_134_21420" x="-2.5" y="1.875" width="17" height="16.625" filterUnits="userSpaceOnUse" color-interpolation-filters="sRGB">
            <feFlood flood-opacity="0" result="BackgroundImageFix"/>
            <feColorMatrix in="SourceAlpha" type="matrix" values="0 0 0 0 0 0 0 0 0 0 0 0 0 0 0 0 0 0 127 0" result="hardAlpha"/>
            <feOffset dy="4"/>
            <feGaussianBlur stdDeviation="2"/>
            <feComposite in2="hardAlpha" operator="out"/>
            <feColorMatrix type="matrix" values="0 0 0 0 0 0 0 0 0 0 0 0 0 0 0 0 0 0 0.25 0"/>
            <feBlend mode="normal" in2="BackgroundImageFix" result="effect1_dropShadow_134_21420"/>
            <feBlend mode="normal" in="SourceGraphic" in2="effect1_dropShadow_134_21420" result="shape"/>
        </filter>
        <linearGradient id="paint0_linear_134_21420" x1="1.5" y1="6.1875" x2="10.5" y2="6.1875" gradientUnits="userSpaceOnUse">
            <stop stop-color="#FFC758"/>
            <stop offset="0.504808" stop-color="#7D5911"/>
            <stop offset="1" stop-color="#FFC758"/>
        </linearGradient>
        <clipPath id="clip0_134_21420">
            <rect width="12" height="12" fill="white"/>
        </clipPath>
    </defs>
</svg>
