<svg width="30" height="30" viewBox="0 0 30 30" fill="none" xmlns="http://www.w3.org/2000/svg">
    <g filter="url(#filter0_d_279_1372)">
        <path d="M9.80005 12.4678C9.80005 11.7604 10.081 11.0821 10.5812 10.5819C11.0814 10.0818 11.7597 9.80078 12.467 9.80078H21.133C21.4833 9.80078 21.8301 9.86977 22.1537 10.0038C22.4772 10.1378 22.7712 10.3343 23.0189 10.5819C23.2666 10.8296 23.463 11.1236 23.597 11.4472C23.7311 11.7707 23.8 12.1175 23.8 12.4678V21.1338C23.8 21.484 23.7311 21.8308 23.597 22.1544C23.463 22.478 23.2666 22.772 23.0189 23.0196C22.7712 23.2673 22.4772 23.4637 22.1537 23.5978C21.8301 23.7318 21.4833 23.8008 21.133 23.8008H12.467C12.1168 23.8008 11.77 23.7318 11.4464 23.5978C11.1229 23.4637 10.8288 23.2673 10.5812 23.0196C10.3335 22.772 10.1371 22.478 10.0031 22.1544C9.86903 21.8308 9.80005 21.484 9.80005 21.1338V12.4678Z" stroke="#F5F0E8" stroke-width="2" stroke-linecap="round" stroke-linejoin="round" shape-rendering="crispEdges"/>
    </g>
    <g filter="url(#filter1_d_279_1372)">
        <path d="M6.81205 19.5378C6.50505 19.3634 6.2497 19.1108 6.07195 18.8057C5.8942 18.5006 5.80039 18.1539 5.80005 17.8008V7.80078C5.80005 6.70078 6.70005 5.80078 7.80005 5.80078H17.8C18.55 5.80078 18.958 6.18578 19.3 6.80078" stroke="#F5F0E8" stroke-width="2" stroke-linecap="round" stroke-linejoin="round" shape-rendering="crispEdges"/>
    </g>
    <defs>
        <filter id="filter0_d_279_1372" x="4.00005" y="4.00078" width="25.6" height="25.6" filterUnits="userSpaceOnUse" color-interpolation-filters="sRGB">
            <feFlood flood-opacity="0" result="BackgroundImageFix"/>
            <feColorMatrix in="SourceAlpha" type="matrix" values="0 0 0 0 0 0 0 0 0 0 0 0 0 0 0 0 0 0 127 0" result="hardAlpha"/>
            <feOffset/>
            <feGaussianBlur stdDeviation="2.4"/>
            <feComposite in2="hardAlpha" operator="out"/>
            <feColorMatrix type="matrix" values="0 0 0 0 0 0 0 0 0 0 0 0 0 0 0 0 0 0 0.91 0"/>
            <feBlend mode="normal" in2="BackgroundImageFix" result="effect1_dropShadow_279_1372"/>
            <feBlend mode="normal" in="SourceGraphic" in2="effect1_dropShadow_279_1372" result="shape"/>
        </filter>
        <filter id="filter1_d_279_1372" x="4.86374e-05" y="0.000781059" width="25.1002" height="25.3383" filterUnits="userSpaceOnUse" color-interpolation-filters="sRGB">
            <feFlood flood-opacity="0" result="BackgroundImageFix"/>
            <feColorMatrix in="SourceAlpha" type="matrix" values="0 0 0 0 0 0 0 0 0 0 0 0 0 0 0 0 0 0 127 0" result="hardAlpha"/>
            <feOffset/>
            <feGaussianBlur stdDeviation="2.4"/>
            <feComposite in2="hardAlpha" operator="out"/>
            <feColorMatrix type="matrix" values="0 0 0 0 0 0 0 0 0 0 0 0 0 0 0 0 0 0 0.91 0"/>
            <feBlend mode="normal" in2="BackgroundImageFix" result="effect1_dropShadow_279_1372"/>
            <feBlend mode="normal" in="SourceGraphic" in2="effect1_dropShadow_279_1372" result="shape"/>
        </filter>
    </defs>
</svg>
