<svg width="53" height="53" viewBox="0 0 53 53" fill="none" xmlns="http://www.w3.org/2000/svg">
    <path d="M26.4999 37.541C22.8031 37.541 19.5878 40.3346 17.9271 44.4553C17.1321 46.4251 18.2716 48.5827 19.7821 48.5827H33.2154C34.7281 48.5827 35.8654 46.4251 35.0726 44.4553C33.412 40.3346 30.1966 37.541 26.4999 37.541Z" stroke="#D4AF37" stroke-width="1.5" stroke-linecap="round"/>
    <path d="M40.8542 11.041H43.5086C46.1609 11.041 47.4858 11.041 48.1793 11.8736C48.8705 12.7083 48.5834 13.9582 48.007 16.4603L47.1458 20.2144C45.8451 25.8545 41.0971 30.0503 35.3334 30.916M12.1459 11.041H9.49147C6.83927 11.041 5.51206 11.041 4.82085 11.8736C4.12964 12.7083 4.41672 13.9582 4.9931 16.4603L5.85435 20.2144C7.15506 25.8545 11.903 30.0503 17.6667 30.916" stroke="#D4AF37" stroke-width="1.5" stroke-linecap="round" stroke-linejoin="round"/>
    <path d="M26.4997 37.541C33.1688 37.541 38.789 27.2458 40.4784 13.2273C40.9444 9.35385 41.1785 7.41493 39.9418 5.91547C38.7051 4.41602 36.7066 4.41602 32.7117 4.41602H20.2876C16.2905 4.41602 14.2942 4.41602 13.0575 5.91547C11.8209 7.41493 12.0572 9.35385 12.5209 13.2295C14.2103 27.2458 19.8305 37.541 26.4997 37.541Z" stroke="#D4AF37" stroke-width="1.5" stroke-linecap="round"/>
</svg>
