<svg width="12" height="13" viewBox="0 0 12 13" fill="none" xmlns="http://www.w3.org/2000/svg">
    <path d="M10.125 2.54167L9.76333 8.38958C9.67117 9.8835 9.62508 10.6307 9.25 11.168C9.06483 11.4335 8.82645 11.6576 8.55 11.826C7.99175 12.1667 7.24333 12.1667 5.7465 12.1667C4.24733 12.1667 3.49775 12.1667 2.93833 11.8254C2.66177 11.6567 2.42337 11.4322 2.23833 11.1662C1.86383 10.6284 1.81833 9.88 1.7285 8.38375L1.375 2.54167M0.5 2.54167H11M8.116 2.54167L7.71758 1.72033C7.45333 1.17433 7.32092 0.901917 7.09283 0.731583C7.04217 0.693851 6.98852 0.660296 6.93242 0.63125C6.67983 0.5 6.3765 0.5 5.77042 0.5C5.14858 0.5 4.83767 0.5 4.58042 0.6365C4.52355 0.666956 4.46931 0.702077 4.41825 0.7415C4.18783 0.91825 4.05892 1.20117 3.80108 1.76642L3.44758 2.54167M4.29167 8.95833V5.45833M7.20833 8.95833V5.45833" stroke="#828282" stroke-linecap="round"/>
</svg>
