<svg width="17" height="17" viewBox="0 0 17 17" fill="none" xmlns="http://www.w3.org/2000/svg">
    <path d="M0.914062 15.1172C0.794271 15.4505 0.679688 15.7865 0.570312 16.125C0.523438 16.2865 0.416667 16.3516 0.25 16.3203C0.166667 16.3099 0.104167 16.2656 0.0625 16.1875C0.0208333 16.1146 0.0130208 16.0365 0.0390625 15.9531C0.205729 15.4271 0.393229 14.8984 0.601562 14.3672V11.7188C0.601562 10.0625 0.947917 8.48177 1.64062 6.97656C2.33854 5.47135 3.32031 4.1849 4.58594 3.11719C5.77344 2.11198 7.09635 1.34115 8.55469 0.804688C10.0182 0.268229 11.5286 0 13.0859 0H15.4375C15.5625 0 15.6823 0.0234375 15.7969 0.0703125C15.9115 0.122396 16.013 0.192708 16.1016 0.28125C16.1901 0.369792 16.2578 0.473958 16.3047 0.59375C16.3516 0.708333 16.3724 0.828125 16.3672 0.953125C16.362 1.20833 16.2734 1.42969 16.1016 1.61719C14.8359 3.07031 13.7188 4.625 12.75 6.28125C12.6615 6.42708 12.5417 6.54427 12.3906 6.63281C12.2396 6.71615 12.0781 6.75781 11.9062 6.75781H11.1641L11.5391 7.375C11.6328 7.52604 11.6823 7.6901 11.6875 7.86719C11.6875 8.04427 11.6458 8.21094 11.5625 8.36719C11.4792 8.52865 11.3698 8.73698 11.2344 8.99219C11.099 9.24219 10.9896 9.45052 10.9062 9.61719C10.4167 10.5859 9.75781 11.4245 8.92969 12.1328C8.73177 12.2995 8.5026 12.3828 8.24219 12.3828H7.49219C7.52344 12.4714 7.53906 12.5599 7.53906 12.6484C7.54427 12.7891 7.50781 12.9193 7.42969 13.0391C7.35677 13.1536 7.25781 13.2396 7.13281 13.2969C6.00781 13.8438 4.82031 14.1146 3.57031 14.1094H1.49219L0.914062 15.1172ZM1.82812 12.9844H3.57031C4.33073 12.9844 5.07552 12.8646 5.80469 12.625L5.44531 12.4609C5.3151 12.4089 5.21354 12.3203 5.14062 12.1953C5.06771 12.0703 5.04167 11.9375 5.0625 11.7969C5.08854 11.6406 5.16146 11.5104 5.28125 11.4062C5.39583 11.3073 5.53385 11.2578 5.69531 11.2578H8.24219C8.92969 10.6484 9.48438 9.93229 9.90625 9.10938C9.98438 8.95312 10.0859 8.75521 10.2109 8.51562C10.3411 8.27604 10.4505 8.07031 10.5391 7.89844L9.8125 6.70312C9.74479 6.59375 9.71094 6.47396 9.71094 6.34375C9.71094 6.29167 9.71615 6.24219 9.72656 6.19531H6.89062C6.66667 6.39844 6.44271 6.61458 6.21875 6.84375C4.40625 8.65104 2.94271 10.6979 1.82812 12.9844ZM13.2891 3.375C13.8411 2.59896 14.4245 1.84896 15.0391 1.125H13.0859C11.8984 1.125 10.737 1.29688 9.60156 1.64062V3.375C10.612 2.71354 11.6667 2.13542 12.7656 1.64062C12.9323 1.5625 13.0547 1.60417 13.1328 1.76562C13.1693 1.84375 13.1745 1.91927 13.1484 1.99219C13.1224 2.0651 13.0703 2.11979 12.9922 2.15625C12.1849 2.52083 11.4036 2.92708 10.6484 3.375H13.2891ZM6.74219 2.9375C6.23698 3.25 5.76042 3.59635 5.3125 3.97656C4.17188 4.9401 3.28906 6.09896 2.66406 7.45312C2.03906 8.80208 1.72656 10.224 1.72656 11.7188V11.9453C2.8151 9.91927 4.17969 8.08333 5.82031 6.4375C6.1276 6.13542 6.4349 5.84635 6.74219 5.57031V2.9375Z" fill="white"/>
</svg>
