<svg width="18" height="16" viewBox="0 0 18 16" fill="none" xmlns="http://www.w3.org/2000/svg">
    <path d="M13.6231 12.9742L13.624 13C13.624 13.1875 13.614 13.3725 13.5931 13.555C12.0809 14.4226 10.3674 14.8778 8.62397 14.875C6.81564 14.875 5.11814 14.395 3.6548 13.555C3.63338 13.3621 3.62308 13.1682 3.62397 12.9742C3.62696 12.0298 3.90032 11.1057 4.40897 10.31C4.86064 9.60161 5.48366 9.01856 6.22041 8.61479C6.95716 8.21102 7.78383 7.99957 8.62397 8C9.46425 7.99943 10.2911 8.21081 11.028 8.61459C11.7649 9.01836 12.3881 9.60149 12.8398 10.31C13.3487 11.1056 13.6207 12.0305 13.624 12.975C14.6796 13.0613 15.7416 12.9253 16.7415 12.5758C16.7796 12.1053 16.6838 11.6336 16.4651 11.2153C16.2464 10.797 15.9137 10.4491 15.5055 10.212C15.0973 9.97489 14.6303 9.85817 14.1586 9.87536C13.6869 9.89256 13.2296 10.043 12.8398 10.3092M3.62397 12.9742C2.56866 13.0636 1.50723 12.9281 0.508137 12.5767C0.470096 12.1063 0.565966 11.6348 0.784661 11.2166C1.00336 10.7984 1.33594 10.4507 1.74397 10.2136C2.152 9.97648 2.6188 9.85971 3.0904 9.87678C3.562 9.89384 4.01915 10.044 4.40897 10.31M11.124 3C11.124 3.66304 10.8606 4.29893 10.3917 4.76777C9.9229 5.23661 9.28701 5.5 8.62397 5.5C7.96093 5.5 7.32504 5.23661 6.8562 4.76777C6.38736 4.29893 6.12397 3.66304 6.12397 3C6.12397 2.33696 6.38736 1.70107 6.8562 1.23223C7.32504 0.763392 7.96093 0.5 8.62397 0.5C9.28701 0.5 9.9229 0.763392 10.3917 1.23223C10.8606 1.70107 11.124 2.33696 11.124 3ZM16.124 5.5C16.124 5.74623 16.0755 5.99005 15.9812 6.21753C15.887 6.44502 15.7489 6.65172 15.5748 6.82582C15.4007 6.99993 15.194 7.13805 14.9665 7.23227C14.739 7.3265 14.4952 7.375 14.249 7.375C14.0027 7.375 13.7589 7.3265 13.5314 7.23227C13.304 7.13805 13.0973 6.99993 12.9231 6.82582C12.749 6.65172 12.6109 6.44502 12.5167 6.21753C12.4225 5.99005 12.374 5.74623 12.374 5.5C12.374 5.00272 12.5715 4.52581 12.9231 4.17417C13.2748 3.82254 13.7517 3.625 14.249 3.625C14.7463 3.625 15.2232 3.82254 15.5748 4.17417C15.9264 4.52581 16.124 5.00272 16.124 5.5ZM4.87397 5.5C4.87397 5.74623 4.82547 5.99005 4.73124 6.21753C4.63702 6.44502 4.49891 6.65172 4.3248 6.82582C4.15069 6.99993 3.94399 7.13805 3.7165 7.23227C3.48902 7.3265 3.2452 7.375 2.99897 7.375C2.75274 7.375 2.50892 7.3265 2.28144 7.23227C2.05395 7.13805 1.84725 6.99993 1.67315 6.82582C1.49904 6.65172 1.36092 6.44502 1.2667 6.21753C1.17247 5.99005 1.12397 5.74623 1.12397 5.5C1.12397 5.00272 1.32151 4.52581 1.67315 4.17417C2.02478 3.82254 2.50169 3.625 2.99897 3.625C3.49625 3.625 3.97316 3.82254 4.3248 4.17417C4.67643 4.52581 4.87397 5.00272 4.87397 5.5Z" stroke="#D4AF37" stroke-linecap="round" stroke-linejoin="round"/>
</svg>
