<svg width="20" height="20" viewBox="0 0 20 20" fill="none" xmlns="http://www.w3.org/2000/svg">
    <g clip-path="url(#clip0_2_453)">
        <path d="M19.5919 10.1957C19.5919 9.49599 19.4919 8.79628 19.3919 8.19653H9.99585V11.995H15.3936C15.1937 13.1945 14.394 14.194 13.3944 14.8938V17.3927H16.5931C18.4923 15.6934 19.5919 13.0945 19.5919 10.1957Z" fill="#4285F4"/>
        <path d="M9.99592 19.9917C12.6948 19.9917 14.8939 19.092 16.5932 17.5927L13.3945 15.0937C12.4949 15.6934 11.3953 15.9933 9.99592 15.9933C7.39699 15.9933 5.19791 14.1941 4.39824 11.895H1.09961V14.4939C2.7989 17.8925 6.09753 19.9917 9.99592 19.9917Z" fill="#34A853"/>
        <path d="M4.39817 11.995C4.19826 11.3952 4.0983 10.6955 4.0983 9.9958C4.0983 9.29609 4.19826 8.59638 4.39817 7.99663V5.39771H1.09954C0.399834 6.79712 0 8.39646 0 9.9958C0 11.5951 0.399834 13.1945 1.09954 14.5939L4.39817 11.995Z" fill="#FBBC04"/>
        <path d="M9.99592 3.99834C11.4953 3.99834 12.7948 4.49813 13.7943 5.49772L16.6931 2.59892C14.9938 0.999585 12.6948 0 9.99592 0C6.09753 0 2.7989 2.09913 1.09961 5.39776L4.39824 7.99668C5.19791 5.79759 7.39699 3.99834 9.99592 3.99834Z" fill="#EA4335"/>
    </g>
    <defs>
        <clipPath id="clip0_2_453">
            <rect width="19.9917" height="19.9917" fill="white"/>
        </clipPath>
    </defs>
</svg>
