<svg width="19" height="19" viewBox="0 0 19 19" fill="none" xmlns="http://www.w3.org/2000/svg">
    <g clip-path="url(#clip0_2_18492)">
        <path d="M11.0966 4.11207C11.9468 4.64515 12.543 5.54724 12.6515 6.59437C13.008 6.76208 13.3971 6.84921 13.7911 6.84955C15.2807 6.84955 16.488 5.64225 16.488 4.15292C16.488 2.66335 15.2807 1.45605 13.7911 1.45605C12.3158 1.45651 11.119 2.64224 11.0966 4.11207ZM9.32978 9.63384C10.8193 9.63384 12.0266 8.42631 12.0266 6.93698C12.0266 5.44765 10.8191 4.24035 9.32978 4.24035C7.84045 4.24035 6.63246 5.44788 6.63246 6.93721C6.63246 8.42654 7.84045 9.63384 9.32978 9.63384ZM10.4737 9.81766H8.18536C6.28136 9.81766 4.73236 11.3669 4.73236 13.2709V16.0694L4.73947 16.1132L4.93224 16.1736C6.74927 16.7413 8.32787 16.9307 9.62719 16.9307C12.165 16.9307 13.636 16.2071 13.7266 16.161L13.9068 16.0699H13.9261V13.2709C13.9268 11.3669 12.3778 9.81766 10.4737 9.81766ZM14.9355 7.03359H12.6648C12.6418 7.91038 12.2731 8.74251 11.6391 9.3486C13.3315 9.85185 14.5698 11.4213 14.5698 13.275V14.1374C16.8118 14.0553 18.1038 13.4198 18.1889 13.3771L18.369 13.2858H18.3883V10.4864C18.3883 8.58259 16.8393 7.03359 14.9355 7.03359ZM4.59765 6.85001C5.12523 6.85001 5.61609 6.69603 6.03191 6.43373C6.16238 5.5898 6.61137 4.82799 7.28648 4.30506C7.28924 4.25458 7.29406 4.20455 7.29406 4.1536C7.29406 2.66404 6.08653 1.45674 4.59765 1.45674C3.10786 1.45674 1.90079 2.66404 1.90079 4.1536C1.90079 5.64248 3.10786 6.85001 4.59765 6.85001ZM7.0196 9.3486C6.38912 8.7454 6.02096 7.91859 5.99451 7.04644C5.91029 7.04025 5.82698 7.03359 5.74116 7.03359H3.453C1.549 7.03359 0 8.58259 0 10.4864V13.2853L0.00711391 13.3285L0.199878 13.3893C1.65754 13.8444 2.95847 14.0541 4.08844 14.1202V13.275C4.08889 11.4213 5.32672 9.85231 7.0196 9.3486Z" fill="#C9A84C"/>
    </g>
    <defs>
        <clipPath id="clip0_2_18492">
            <rect width="18.3883" height="18.3883" fill="white"/>
        </clipPath>
    </defs>
</svg>
