<svg width="28" height="28" viewBox="0 0 28 28" fill="none" xmlns="http://www.w3.org/2000/svg">
    <rect width="28" height="28" rx="4" fill="#344C30"/>
    <path d="M10.8076 11.53C10.8076 11.2113 10.9342 10.9056 11.1597 10.6802C11.3851 10.4548 11.6908 10.3281 12.0095 10.3281C12.3283 10.3281 12.634 10.4548 12.8594 10.6802C13.0848 10.9056 13.2115 11.2113 13.2115 11.53C13.2115 11.8488 13.0848 12.1545 12.8594 12.3799C12.634 12.6053 12.3283 12.732 12.0095 12.732C11.6908 12.732 11.3851 12.6053 11.1597 12.3799C10.9342 12.1545 10.8076 11.8488 10.8076 11.53Z" fill="#B9BBB0"/>
    <path d="M12.1133 6H16.6367C17.5747 6 18.3186 6 18.9173 6.04896C19.5306 6.09878 20.0485 6.20358 20.5227 6.44409C21.2903 6.83565 21.9142 7.46019 22.3051 8.22818C22.5464 8.70062 22.6512 9.21944 22.701 9.83274C22.75 10.4314 22.75 11.1753 22.75 12.1133V16.6367C22.75 17.5747 22.75 18.3186 22.701 18.9173C22.6512 19.5306 22.5464 20.0485 22.3059 20.5227C21.9146 21.2902 21.2904 21.9141 20.5227 22.3051C20.0485 22.5464 19.5306 22.6512 18.9173 22.701C18.3186 22.75 17.5747 22.75 16.6367 22.75H12.1133C11.1753 22.75 10.4314 22.75 9.83274 22.701C9.21944 22.6512 8.70147 22.5464 8.22818 22.3059C7.46038 21.9147 6.83614 21.2905 6.44495 20.5227C6.20358 20.0485 6.09878 19.5306 6.04982 18.9173C6 18.3186 6 17.5747 6 16.6367V12.1133C6 11.1753 6 10.4314 6.04896 9.83274C6.09878 9.21944 6.20358 8.70147 6.44409 8.22818C6.8355 7.46024 7.46006 6.83599 8.22818 6.44495C8.70062 6.20358 9.21944 6.09878 9.83274 6.04896C10.4314 6 11.1753 6 12.1133 6ZM7.28846 15.8808V16.6083C7.28846 17.5816 7.28846 18.2722 7.33313 18.8125C7.37608 19.345 7.4594 19.6757 7.59254 19.9377C7.86016 20.4629 8.28713 20.8898 8.81228 21.1575C9.07427 21.2906 9.40497 21.3731 9.93754 21.4169C10.2717 21.4444 10.6634 21.4547 11.1435 21.459C11.104 20.2633 11.287 19.1311 11.6529 18.0918C10.6909 16.7123 9.09231 15.8232 7.28846 15.8808ZM21.4624 13.2317C16.4262 12.8082 12.2482 16.5594 12.4337 21.4615H16.6083C17.5816 21.4615 18.2722 21.4615 18.8125 21.4169C19.345 21.3739 19.6757 21.2906 19.9377 21.1575C20.4629 20.8898 20.8898 20.4629 21.1575 19.9377C21.2906 19.6757 21.3731 19.345 21.4169 18.8125C21.4615 18.2713 21.4615 17.5807 21.4615 16.6083L21.4624 13.2317ZM9.00641 10.9391C9.00641 11.5656 9.25528 12.1664 9.69828 12.6094C10.1413 13.0524 10.7421 13.3013 11.3686 13.3013C11.9951 13.3013 12.5959 13.0524 13.0389 12.6094C13.4819 12.1664 13.7308 11.5656 13.7308 10.9391C13.7308 10.3126 13.4819 9.71178 13.0389 9.26879C12.5959 8.82579 11.9951 8.57692 11.3686 8.57692C10.7421 8.57692 10.1413 8.82579 9.69828 9.26879C9.25528 9.71178 9.00641 10.3126 9.00641 10.9391ZM10.2949 10.9391C10.2949 10.6543 10.408 10.3812 10.6094 10.1799C10.8107 9.97851 11.0838 9.86538 11.3686 9.86538C11.6534 9.86538 11.9265 9.97851 12.1278 10.1799C12.3292 10.3812 12.4423 10.6543 12.4423 10.9391C12.4423 11.2239 12.3292 11.497 12.1278 11.6983C11.9265 11.8997 11.6534 12.0128 11.3686 12.0128C11.0838 12.0128 10.8107 11.8997 10.6094 11.6983C10.408 11.497 10.2949 11.2239 10.2949 10.9391Z" fill="#B9BBB0"/>
</svg>
