<svg width="24" height="24" viewBox="0 0 24 24" fill="none" xmlns="http://www.w3.org/2000/svg">
    <path d="M22 7.53516V17.0002C22 17.7654 21.7077 18.5017 21.1827 19.0584C20.6578 19.6152 19.9399 19.9503 19.176 19.9952L19 20.0002H5C4.23479 20.0002 3.49849 19.7078 2.94174 19.1829C2.38499 18.6579 2.04989 17.94 2.005 17.1762L2 17.0002V7.53516L11.445 13.8322L11.561 13.8982C11.6977 13.965 11.8478 13.9997 12 13.9997C12.1522 13.9997 12.3023 13.965 12.439 13.8982L12.555 13.8322L22 7.53516Z" fill="url(#paint0_linear_159_3829)"/>
    <path d="M19.0003 4C20.0803 4 21.0273 4.57 21.5553 5.427L12.0003 11.797L2.44531 5.427C2.6961 5.01982 3.0406 4.6785 3.45008 4.43149C3.85957 4.18448 4.32217 4.03894 4.79931 4.007L5.00031 4H19.0003Z" fill="url(#paint1_linear_159_3829)"/>
    <defs>
        <linearGradient id="paint0_linear_159_3829" x1="22" y1="8.07419" x2="12.1912" y2="25.2733" gradientUnits="userSpaceOnUse">
            <stop offset="0.155173" stop-color="#B28406"/>
            <stop offset="0.551761" stop-color="#FFD358"/>
            <stop offset="1" stop-color="#B28406"/>
        </linearGradient>
        <linearGradient id="paint1_linear_159_3829" x1="21.5553" y1="4.33717" x2="16.8835" y2="16.8503" gradientUnits="userSpaceOnUse">
            <stop offset="0.155173" stop-color="#B28406"/>
            <stop offset="0.551761" stop-color="#FFD358"/>
            <stop offset="1" stop-color="#B28406"/>
        </linearGradient>
    </defs>
</svg>
