<svg width="15" height="15" viewBox="0 0 15 15" fill="none" xmlns="http://www.w3.org/2000/svg">
    <path d="M1.97363 3.44737C1.97363 4.22906 2.28416 4.97873 2.8369 5.53147C3.38964 6.08421 4.13931 6.39474 4.921 6.39474C5.70269 6.39474 6.45237 6.08421 7.00511 5.53147C7.55784 4.97873 7.86837 4.22906 7.86837 3.44737C7.86837 2.66568 7.55784 1.916 7.00511 1.36326C6.45237 0.810525 5.70269 0.5 4.921 0.5C4.13931 0.5 3.38964 0.810525 2.8369 1.36326C2.28416 1.916 1.97363 2.66568 1.97363 3.44737Z" stroke="#828282" stroke-linecap="round" stroke-linejoin="round"/>
    <path d="M0.5 13.7633V12.2897C0.5 11.508 0.810525 10.7583 1.36326 10.2055C1.916 9.65281 2.66568 9.34229 3.44737 9.34229H6.39474C7.10211 9.34229 7.75053 9.59134 8.25895 10.0062" stroke="#828282" stroke-linecap="round" stroke-linejoin="round"/>
    <path d="M10.0791 0.595703C10.7131 0.75803 11.275 1.12675 11.6763 1.64372C12.0776 2.1607 12.2954 2.79652 12.2954 3.45097C12.2954 4.10541 12.0776 4.74124 11.6763 5.25821C11.275 5.77519 10.7131 6.1439 10.0791 6.30623" stroke="#828282" stroke-linecap="round" stroke-linejoin="round"/>
    <path d="M10.0791 12.2896H14.5002" stroke="#828282" stroke-linecap="round" stroke-linejoin="round"/>
    <path d="M12.2896 10.0791V14.5002" stroke="#828282" stroke-linecap="round" stroke-linejoin="round"/>
</svg>
