<svg width="14" height="17" viewBox="0 0 14 17" fill="none" xmlns="http://www.w3.org/2000/svg">
    <path d="M5.07031 2.8125H7.88281C8.03906 2.8125 8.17188 2.86719 8.28125 2.97656C8.39062 3.08594 8.44531 3.21875 8.44531 3.375V4.5C8.44531 4.65625 8.39062 4.79167 8.28125 4.90625C8.17188 5.01562 8.03906 5.07031 7.88281 5.07031H5.07031C4.91406 5.07031 4.78125 5.01562 4.67188 4.90625C4.5625 4.79167 4.50781 4.65625 4.50781 4.5V3.375C4.50781 3.21875 4.5625 3.08594 4.67188 2.97656C4.78125 2.86719 4.91406 2.8125 5.07031 2.8125ZM0 1.14062C0 0.828125 0.109375 0.559896 0.328125 0.335938C0.546875 0.111979 0.8125 0 1.125 0H11.5469C12.0104 0 12.4062 0.166667 12.7344 0.5C13.0677 0.828125 13.2344 1.22396 13.2344 1.6875V14.9219H10.9844V15.4844H13.3047L13.1719 15.8594C13.0885 16.0781 12.9479 16.2578 12.75 16.3984C12.5573 16.5391 12.3359 16.6094 12.0859 16.6094H1.14844C0.835938 16.6094 0.565104 16.5 0.335938 16.2812C0.111979 16.0625 0 15.7969 0 15.4844V1.14062ZM10.4219 15.4844V14.9219H1.4375C1.35417 14.9219 1.28385 14.9505 1.22656 15.0078C1.16927 15.0651 1.14062 15.1302 1.14062 15.2031C1.14062 15.276 1.16927 15.3411 1.22656 15.3984C1.28385 15.4557 1.35417 15.4844 1.4375 15.4844H10.4219ZM2.53906 13.5156H10.4219V1.125H2.53906V13.5156ZM10.9844 13.5156H12.1094V1.6875C12.1094 1.53125 12.0547 1.39844 11.9453 1.28906C11.8359 1.17969 11.7031 1.125 11.5469 1.125H10.9844V13.5156Z" fill="white"/>
</svg>
