<svg width="24" height="24" viewBox="0 0 24 24" fill="none" xmlns="http://www.w3.org/2000/svg">
    <path d="M14.0001 18.498H17.4344C19.0277 18.498 19.8843 16.6262 18.8428 15.4204L18.1305 14.5958C17.2495 13.5758 16.8264 12.2384 16.9606 10.8972C17.2499 8.0065 14.9799 5.49805 12.0748 5.49805H11.9266C9.0212 5.49805 6.75095 8.00651 7.0399 10.8975C7.17394 12.2385 6.75095 13.5757 5.87005 14.5958L5.15806 15.4202C4.11656 16.6262 4.97329 18.498 6.56674 18.498H9.99985M14.0001 18.498V18.9979C14.0001 20.1026 13.1046 20.998 12 20.998C10.8953 20.998 9.99985 20.1026 9.99985 18.9979V18.498M14.0001 18.498H9.99985M9.99985 5.49805V4.99817C9.99985 3.89353 10.8953 2.99805 12 2.99805C13.1046 2.99805 14.0001 3.89353 14.0001 4.99817V5.49805H9.99985Z" stroke="#FFDD6E" stroke-width="1.67647" stroke-linejoin="round"/>
</svg>
