<svg width="20" height="20" viewBox="0 0 20 20" fill="none" xmlns="http://www.w3.org/2000/svg">
    <path d="M6.66675 8.33333V5.83333C6.66675 4.94928 7.01794 4.10143 7.64306 3.47631C8.26818 2.85119 9.11603 2.5 10.0001 2.5C10.8841 2.5 11.732 2.85119 12.3571 3.47631C12.9822 4.10143 13.3334 4.94928 13.3334 5.83333V8.33333" stroke="#C9A84C" stroke-width="1.5" stroke-linecap="round"/>
    <path d="M4.16675 8.33325H15.8334V15.8333C15.8334 16.2753 15.6578 16.6992 15.3453 17.0118C15.0327 17.3243 14.6088 17.4999 14.1667 17.4999H5.83341C5.39139 17.4999 4.96746 17.3243 4.6549 17.0118C4.34234 16.6992 4.16675 16.2753 4.16675 15.8333V8.33325Z" stroke="#C9A84C" stroke-width="1.5" stroke-linejoin="round"/>
    <path d="M12.0835 12.9167H12.0918V12.9251H12.0835V12.9167Z" stroke="#C9A84C" stroke-width="1.5" stroke-linejoin="round"/>
</svg>
