<svg width="17" height="15" viewBox="0 0 17 15" fill="none" xmlns="http://www.w3.org/2000/svg">
    <path d="M11.3889 14.5001H2.05556C1.2 14.5001 0.5 13.8001 0.5 12.9446C0.5 10.7979 2.24222 9.05566 4.38889 9.05566H9.05556C11.2022 9.05566 12.9444 10.7979 12.9444 12.9446C12.9444 13.8001 12.2444 14.5001 11.3889 14.5001Z" stroke="#828282" stroke-miterlimit="10" stroke-linecap="round" stroke-linejoin="round"/>
    <path d="M6.72244 6.72222C8.44066 6.72222 9.83355 5.32933 9.83355 3.61111C9.83355 1.89289 8.44066 0.5 6.72244 0.5C5.00422 0.5 3.61133 1.89289 3.61133 3.61111C3.61133 5.32933 5.00422 6.72222 6.72244 6.72222Z" stroke="#828282" stroke-miterlimit="10" stroke-linecap="round" stroke-linejoin="round"/>
    <path d="M16.0557 4.19434L12.5557 7.69434" stroke="#828282" stroke-miterlimit="10" stroke-linecap="round" stroke-linejoin="round"/>
    <path d="M16.0557 7.69434L12.5557 4.19434" stroke="#828282" stroke-miterlimit="10" stroke-linecap="round" stroke-linejoin="round"/>
</svg>
