<svg width="14" height="15" viewBox="0 0 14 15" fill="none" xmlns="http://www.w3.org/2000/svg">
    <path d="M2.97392 10.6094H10.447M11.2299 0.5H0.5V14.5H12.9209V3.33398L11.2299 0.5Z" stroke="#828282" stroke-linecap="round" stroke-linejoin="round"/>
    <path d="M2.97388 6.97869L4.97665 4.81151L6.083 6.55341C6.083 6.55341 8.26288 5.08443 8.57865 4.81559M9.96015 5.43381C10.1096 4.64439 10.1154 3.95177 10.1028 3.58492C10.1007 3.50772 10.0691 3.43427 10.0145 3.37963C9.95993 3.325 9.88652 3.29332 9.80933 3.29109C9.18959 3.27232 8.56962 3.32015 7.96009 3.43376C7.70397 3.48233 7.61905 3.7945 7.80384 3.97895L9.41529 5.59075C9.59974 5.77519 9.91157 5.68993 9.96015 5.43381Z" stroke="#828282" stroke-linecap="round" stroke-linejoin="round"/>
</svg>
