<svg width="17" height="17" viewBox="0 0 17 17" fill="none" xmlns="http://www.w3.org/2000/svg">
    <path d="M2.77224 5.02593C3.5259 3.72521 4.72658 2.74272 6.15072 2.26138C7.57486 1.78005 9.12539 1.83268 10.5136 2.40947C11.9018 2.98627 13.0331 4.04792 13.6969 5.39674C14.3606 6.74557 14.5115 8.28964 14.1215 9.74145C13.7315 11.1933 12.8272 12.4539 11.5769 13.2885C10.3266 14.1232 8.81564 14.4751 7.32525 14.2786C5.83486 14.0821 4.46667 13.3507 3.47542 12.2205C2.48418 11.0904 1.93744 9.63846 1.93701 8.13517" stroke="#FFD358" stroke-width="1.16219" stroke-linecap="round" stroke-linejoin="round"/>
    <path d="M9.68487 8.13504C9.68487 8.99085 8.9911 9.68463 8.13528 9.68463C7.27947 9.68463 6.58569 8.99085 6.58569 8.13504C6.58569 7.27922 7.27947 6.58545 8.13528 6.58545C8.9911 6.58545 9.68487 7.27922 9.68487 8.13504Z" fill="#FFD358" stroke="#FFD358" stroke-width="1.16219" stroke-linecap="round" stroke-linejoin="round"/>
    <path d="M5.81109 5.0357H2.71191V1.93652" stroke="#FFD358" stroke-width="1.16219" stroke-linecap="round" stroke-linejoin="round"/>
</svg>
