<svg width="16" height="16" viewBox="0 0 16 16" fill="none" xmlns="http://www.w3.org/2000/svg">
    <path d="M8.00016 8.66634C8.36835 8.66634 8.66683 8.36786 8.66683 7.99967C8.66683 7.63148 8.36835 7.33301 8.00016 7.33301C7.63197 7.33301 7.3335 7.63148 7.3335 7.99967C7.3335 8.36786 7.63197 8.66634 8.00016 8.66634Z" stroke="#FCA814" stroke-linecap="round" stroke-linejoin="round"/>
    <path d="M12.6295 8.21969C12.6793 8.07725 12.6793 7.92213 12.6295 7.77969C12.2542 6.85998 11.6134 6.07291 10.7889 5.51887C9.96438 4.96483 8.99353 4.66895 8.00018 4.66895C7.00682 4.66895 6.03597 4.96483 5.21147 5.51887C4.38697 6.07291 3.74618 6.85998 3.37084 7.77969C3.32105 7.92213 3.32105 8.07725 3.37084 8.21969C3.74618 9.13941 4.38697 9.92648 5.21147 10.4805C6.03597 11.0346 7.00682 11.3304 8.00018 11.3304C8.99353 11.3304 9.96438 11.0346 10.7889 10.4805C11.6134 9.92648 12.2542 9.13941 12.6295 8.21969Z" stroke="#FCA814" stroke-linecap="round" stroke-linejoin="round"/>
</svg>
