<svg width="37" height="33" viewBox="0 0 37 33" fill="none" xmlns="http://www.w3.org/2000/svg">
    <path d="M0 3.82774C0 2.0395 1.44965 0.589844 3.23789 0.589844H33.5372C35.3254 0.589844 36.7751 2.0395 36.7751 3.82774V28.352C36.7751 30.1402 35.3254 31.5898 33.5372 31.5898H3.2379C1.44966 31.5898 0 30.1402 0 28.352V3.82774Z" fill="#AE7E20"/>
    <path fill-rule="evenodd" clip-rule="evenodd" d="M26.6591 16.7493C26.6882 16.6638 26.6921 16.5724 26.6689 16.4852C26.1178 14.4198 15.8872 8.54866 12.6724 7.56155C11.8349 7.3043 11.2281 7.40789 10.8718 7.86852C9.83911 9.20176 11.9717 13.3475 13.2164 15.5153L19.6641 15.7418C20.0377 15.7549 20.3299 16.0692 20.3169 16.4439C20.3039 16.8186 19.9904 17.1117 19.6168 17.0986L13.1073 16.8694C11.7063 18.9727 9.37893 22.8579 10.3018 24.2379C10.3364 24.2897 10.3743 24.3384 10.4155 24.3827C10.7564 24.7493 11.3148 24.8457 12.0761 24.6694C15.3497 23.9115 25.9643 18.7736 26.6591 16.7493Z" fill="white"/>
</svg>
