<svg width="14" height="13" viewBox="0 0 14 13" fill="none" xmlns="http://www.w3.org/2000/svg">
    <g filter="url(#filter0_d_2_18294)">
        <path d="M5.25 5.75C5.25 5.33127 5.42593 4.81113 5.91797 4.55762L8.30566 3.32715L8.4375 3.27344C8.70176 3.19173 8.97211 3.26013 9.16992 3.40723L9.2627 3.4873L9.14648 3.35938C8.89124 3.04802 8.75 2.65634 8.75 2.25C8.75 2.6692 8.57286 3.18855 8.08203 3.44141L5.69141 4.67285C5.34517 4.85099 4.96505 4.74044 4.7373 4.5127L4.85352 4.64062C5.10876 4.95198 5.25 5.34366 5.25 5.75ZM5.25 5.75C5.25 6.16804 5.42529 6.6881 5.91699 6.94141L8.30664 8.17285C8.6086 8.3283 8.93852 8.26469 9.16992 8.09277L9.2627 8.0127C8.9346 8.34079 8.75 8.78573 8.75 9.25C8.75 8.8301 8.57227 8.31067 8.08105 8.05762L5.69238 6.82617C5.38781 6.66941 5.05861 6.73692 4.8291 6.9082L4.7373 6.9873C5.0654 6.65921 5.25 6.21427 5.25 5.75Z" stroke="url(#paint0_linear_2_18294)" shape-rendering="crispEdges"/>
    </g>
    <defs>
        <filter id="filter0_d_2_18294" x="-2.75" y="0" width="19.5" height="19.5" filterUnits="userSpaceOnUse" color-interpolation-filters="sRGB">
            <feFlood flood-opacity="0" result="BackgroundImageFix"/>
            <feColorMatrix in="SourceAlpha" type="matrix" values="0 0 0 0 0 0 0 0 0 0 0 0 0 0 0 0 0 0 127 0" result="hardAlpha"/>
            <feOffset dy="4"/>
            <feGaussianBlur stdDeviation="2"/>
            <feComposite in2="hardAlpha" operator="out"/>
            <feColorMatrix type="matrix" values="0 0 0 0 0 0 0 0 0 0 0 0 0 0 0 0 0 0 0.25 0"/>
            <feBlend mode="normal" in2="BackgroundImageFix" result="effect1_dropShadow_2_18294"/>
            <feBlend mode="normal" in="SourceGraphic" in2="effect1_dropShadow_2_18294" result="shape"/>
        </filter>
        <linearGradient id="paint0_linear_2_18294" x1="1.25" y1="5.75" x2="12.75" y2="5.75" gradientUnits="userSpaceOnUse">
            <stop stop-color="#FFC758"/>
            <stop offset="0.504808" stop-color="#7D5911"/>
            <stop offset="1" stop-color="#FFC758"/>
        </linearGradient>
    </defs>
</svg>
