<svg width="30" height="24" viewBox="0 0 30 24" fill="none" xmlns="http://www.w3.org/2000/svg">
    <path d="M19.2232 0.886719V3.94271M19.2232 10.0547V13.1107M19.2232 19.2227V22.2787M3.9432 0.886719H25.3352C26.1457 0.886719 26.923 1.20869 27.4961 1.7818C28.0692 2.35491 28.3912 3.13221 28.3912 3.94271V8.52671C27.5807 8.52671 26.8034 8.84868 26.2303 9.42179C25.6571 9.9949 25.3352 10.7722 25.3352 11.5827C25.3352 12.3932 25.6571 13.1705 26.2303 13.7436C26.8034 14.3167 27.5807 14.6387 28.3912 14.6387V19.2227C28.3912 20.0332 28.0692 20.8105 27.4961 21.3836C26.923 21.9567 26.1457 22.2787 25.3352 22.2787H3.9432C3.1327 22.2787 2.3554 21.9567 1.78229 21.3836C1.20918 20.8105 0.887207 20.0332 0.887207 19.2227V14.6387C1.69771 14.6387 2.47501 14.3167 3.04812 13.7436C3.62123 13.1705 3.9432 12.3932 3.9432 11.5827C3.9432 10.7722 3.62123 9.9949 3.04812 9.42179C2.47501 8.84868 1.69771 8.52671 0.887207 8.52671V3.94271C0.887207 3.13221 1.20918 2.35491 1.78229 1.7818C2.3554 1.20869 3.1327 0.886719 3.9432 0.886719Z" stroke="url(#paint0_linear_2_5476)" stroke-width="1.77445" stroke-linecap="round" stroke-linejoin="round"/>
    <defs>
        <linearGradient id="paint0_linear_2_5476" x1="28.3911" y1="-2.8125" x2="-11.1089" y2="38.6875" gradientUnits="userSpaceOnUse">
            <stop stop-color="#34AC1D"/>
            <stop offset="1" stop-color="#1F3C1A"/>
        </linearGradient>
    </defs>
</svg>
