<svg width="14" height="14" viewBox="0 0 14 14" fill="none" xmlns="http://www.w3.org/2000/svg">
    <path d="M12.9174 12.9174L0.5 0.5M7.68433 10.3187L6.79242 11.2106C5.52658 12.4764 3.26792 12.6818 2.0015 11.4153C1.39344 10.8071 1.05185 9.98229 1.05185 9.12225C1.05185 8.26221 1.39344 7.43739 2.0015 6.82917L3.1005 5.73075M4.42467 4.40658L6.82917 2.0015C7.43733 1.39334 8.26218 1.05167 9.12225 1.05167C9.98232 1.05167 10.8072 1.39334 11.4153 2.0015C12.0235 2.60966 12.3652 3.43451 12.3652 4.29458C12.3652 5.15466 12.0235 5.9795 11.4153 6.58767L9.01025 8.99217" stroke="#828282" stroke-linecap="round" stroke-linejoin="round"/>
</svg>
