<svg width="75" height="75" viewBox="0 0 75 75" fill="none" xmlns="http://www.w3.org/2000/svg">
    <rect x="0.5" y="0.5" width="74" height="74" rx="37" fill="#D4AF37" fill-opacity="0.1"/>
    <rect x="0.5" y="0.5" width="74" height="74" rx="37" stroke="#D4AF37"/>
    <path d="M28 42C28 39.172 28 37.757 28.879 36.879C29.757 36 31.172 36 34 36H42C44.828 36 46.243 36 47.121 36.879C48 37.757 48 39.172 48 42C48 44.828 48 46.243 47.121 47.121C46.243 48 44.828 48 42 48H34C31.172 48 29.757 48 28.879 47.121C28 46.243 28 44.828 28 42Z" stroke="#D4AF37" stroke-width="1.5"/>
    <path d="M32 36V34C32 32.4087 32.6321 30.8826 33.7574 29.7574C34.8826 28.6321 36.4087 28 38 28C39.5913 28 41.1174 28.6321 42.2426 29.7574C43.3679 30.8826 44 32.4087 44 34V36" stroke="#D4AF37" stroke-width="1.5" stroke-linecap="round"/>
</svg>
