<svg width="28" height="28" viewBox="0 0 28 28" fill="none" xmlns="http://www.w3.org/2000/svg">
    <rect width="28" height="28" rx="4" fill="#344C30"/>
    <path d="M21.9604 10.3125C21.7897 10.2927 21.617 10.3234 21.4636 10.4006L17.4526 12.4047V15.9285L21.4636 17.9327C21.5977 17.9997 21.7467 18.0314 21.8965 18.0247C22.0463 18.0181 22.192 17.9733 22.3196 17.8946C22.4473 17.8159 22.5527 17.7059 22.626 17.5751C22.6992 17.4442 22.7379 17.2968 22.7383 17.1469V11.1864C22.738 10.9707 22.6587 10.7627 22.5154 10.6016C22.372 10.4406 22.1745 10.3377 21.9604 10.3125Z" fill="#B9BBB0"/>
    <path d="M8.64282 8C7.19367 8 6 9.19369 6 10.6429V17.6905C6 19.1396 7.19367 20.3333 8.64282 20.3333H15.6903C17.1395 20.3333 18.3331 19.1396 18.3331 17.6905V10.6429C18.3331 9.19369 17.1395 8 15.6903 8H8.64282Z" fill="#B9BBB0"/>
</svg>
