<svg width="20" height="20" viewBox="0 0 20 20" fill="none" xmlns="http://www.w3.org/2000/svg">
    <path d="M16.7642 6.35414C16.6027 6.33549 16.4394 6.36446 16.2942 6.43747L12.5 8.3333V11.6666L16.2942 13.5625C16.4211 13.6259 16.562 13.6558 16.7037 13.6495C16.8455 13.6432 16.9832 13.6008 17.104 13.5264C17.2247 13.452 17.3245 13.3479 17.3938 13.2242C17.4631 13.1004 17.4996 12.961 17.5 12.8191V7.1808C17.4998 6.97684 17.4247 6.78004 17.2891 6.62768C17.1535 6.47533 16.9667 6.378 16.7642 6.35414Z" fill="white"/>
    <path d="M4.1665 4.16699C2.79567 4.16699 1.6665 5.29616 1.6665 6.66699V13.3337C1.6665 14.7045 2.79567 15.8337 4.1665 15.8337H10.8332C12.204 15.8337 13.3332 14.7045 13.3332 13.3337V6.66699C13.3332 5.29616 12.204 4.16699 10.8332 4.16699H4.1665Z" fill="white"/>
</svg>
