<svg width="16" height="16" viewBox="0 0 16 16" fill="none" xmlns="http://www.w3.org/2000/svg">
    <path d="M14 11.3333V12.6667C14 13.0203 13.8595 13.3594 13.6095 13.6095C13.3594 13.8595 13.0203 14 12.6667 14H3.33333C2.97971 14 2.64057 13.8595 2.39052 13.6095C2.14048 13.3594 2 13.0203 2 12.6667V11.3333M14 4.66667V3.33333C14 2.97971 13.8595 2.64057 13.6095 2.39052C13.3594 2.14048 13.0203 2 12.6667 2H3.33333C2.97971 2 2.64057 2.14048 2.39052 2.39052C2.14048 2.64057 2 2.97971 2 3.33333V4.66667" stroke="#828282" stroke-linecap="round" stroke-linejoin="round"/>
    <path d="M8.00016 8.66683C8.36835 8.66683 8.66683 8.36835 8.66683 8.00016C8.66683 7.63197 8.36835 7.3335 8.00016 7.3335C7.63197 7.3335 7.3335 7.63197 7.3335 8.00016C7.3335 8.36835 7.63197 8.66683 8.00016 8.66683Z" stroke="#828282" stroke-linecap="round" stroke-linejoin="round"/>
    <path d="M12.6295 8.22018C12.6793 8.07774 12.6793 7.92262 12.6295 7.78018C12.2542 6.86047 11.6134 6.07339 10.7889 5.51936C9.96438 4.96532 8.99353 4.66943 8.00018 4.66943C7.00682 4.66943 6.03597 4.96532 5.21147 5.51936C4.38697 6.07339 3.74618 6.86047 3.37084 7.78018C3.32105 7.92262 3.32105 8.07774 3.37084 8.22018C3.74618 9.1399 4.38697 9.92697 5.21147 10.481C6.03597 11.035 7.00682 11.3309 8.00018 11.3309C8.99353 11.3309 9.96438 11.035 10.7889 10.481C11.6134 9.92697 12.2542 9.1399 12.6295 8.22018Z" stroke="#828282" stroke-linecap="round" stroke-linejoin="round"/>
</svg>
